<svg width="21" height="21" viewBox="0 0 21 21" fill="none" xmlns="http://www.w3.org/2000/svg">
<rect x="0.75" y="0.75" width="19.5" height="19.5" rx="9.75" stroke="#374957" stroke-width="1.5"/>
<path d="M7.084 14.884C6.484 14.884 5.952 14.76 5.488 14.512C5.024 14.256 4.66 13.912 4.396 13.48C4.132 13.04 4 12.548 4 12.004C4 11.82 4.052 11.672 4.156 11.56C4.268 11.44 4.4 11.38 4.552 11.38C4.712 11.38 4.844 11.44 4.948 11.56C5.052 11.672 5.104 11.82 5.104 12.004C5.104 12.332 5.188 12.636 5.356 12.916C5.524 13.188 5.752 13.408 6.04 13.576C6.328 13.736 6.652 13.816 7.012 13.816C7.54 13.816 7.964 13.672 8.284 13.384C8.612 13.088 8.776 12.676 8.776 12.148C8.776 11.812 8.704 11.512 8.56 11.248C8.416 10.976 8.22 10.76 7.972 10.6C7.724 10.44 7.444 10.36 7.132 10.36C6.956 10.36 6.808 10.3 6.688 10.18C6.576 10.06 6.52 9.912 6.52 9.736C6.52 9.56 6.576 9.416 6.688 9.304C6.808 9.184 6.956 9.124 7.132 9.124C7.356 9.124 7.572 9.068 7.78 8.956C7.988 8.836 8.16 8.68 8.296 8.488C8.432 8.288 8.5 8.064 8.5 7.816C8.5 7.464 8.372 7.168 8.116 6.928C7.86 6.688 7.532 6.568 7.132 6.568C6.828 6.568 6.548 6.628 6.292 6.748C6.044 6.868 5.844 7.028 5.692 7.228C5.548 7.428 5.476 7.652 5.476 7.9C5.476 8.084 5.424 8.24 5.32 8.368C5.216 8.488 5.084 8.548 4.924 8.548C4.772 8.548 4.64 8.492 4.528 8.38C4.424 8.26 4.372 8.112 4.372 7.936C4.372 7.472 4.492 7.056 4.732 6.688C4.972 6.32 5.3 6.032 5.716 5.824C6.132 5.608 6.596 5.5 7.108 5.5C7.58 5.5 8.004 5.604 8.38 5.812C8.764 6.012 9.064 6.288 9.28 6.64C9.504 6.984 9.616 7.376 9.616 7.816C9.616 8.128 9.544 8.404 9.4 8.644C9.264 8.884 9.088 9.092 8.872 9.268C8.656 9.436 8.428 9.576 8.188 9.688C8.612 9.832 8.956 10.028 9.22 10.276C9.484 10.516 9.676 10.796 9.796 11.116C9.924 11.436 9.988 11.784 9.988 12.16C9.988 12.68 9.856 13.148 9.592 13.564C9.328 13.972 8.976 14.296 8.536 14.536C8.096 14.768 7.612 14.884 7.084 14.884Z" fill="black"/>
<path d="M14.2676 14.884C13.6676 14.884 13.1356 14.76 12.6716 14.512C12.2076 14.256 11.8436 13.912 11.5796 13.48C11.3156 13.04 11.1836 12.548 11.1836 12.004C11.1836 11.82 11.2356 11.672 11.3396 11.56C11.4516 11.44 11.5836 11.38 11.7356 11.38C11.8956 11.38 12.0276 11.44 12.1316 11.56C12.2356 11.672 12.2876 11.82 12.2876 12.004C12.2876 12.332 12.3716 12.636 12.5396 12.916C12.7076 13.188 12.9356 13.408 13.2236 13.576C13.5116 13.736 13.8356 13.816 14.1956 13.816C14.7236 13.816 15.1476 13.672 15.4676 13.384C15.7956 13.088 15.9596 12.676 15.9596 12.148C15.9596 11.812 15.8876 11.512 15.7436 11.248C15.5996 10.976 15.4036 10.76 15.1556 10.6C14.9076 10.44 14.6276 10.36 14.3156 10.36C14.1396 10.36 13.9916 10.3 13.8716 10.18C13.7596 10.06 13.7036 9.912 13.7036 9.736C13.7036 9.56 13.7596 9.416 13.8716 9.304C13.9916 9.184 14.1396 9.124 14.3156 9.124C14.5396 9.124 14.7556 9.068 14.9636 8.956C15.1716 8.836 15.3436 8.68 15.4796 8.488C15.6156 8.288 15.6836 8.064 15.6836 7.816C15.6836 7.464 15.5556 7.168 15.2996 6.928C15.0436 6.688 14.7156 6.568 14.3156 6.568C14.0116 6.568 13.7316 6.628 13.4756 6.748C13.2276 6.868 13.0276 7.028 12.8756 7.228C12.7316 7.428 12.6596 7.652 12.6596 7.9C12.6596 8.084 12.6076 8.24 12.5036 8.368C12.3996 8.488 12.2676 8.548 12.1076 8.548C11.9556 8.548 11.8236 8.492 11.7116 8.38C11.6076 8.26 11.5556 8.112 11.5556 7.936C11.5556 7.472 11.6756 7.056 11.9156 6.688C12.1556 6.32 12.4836 6.032 12.8996 5.824C13.3156 5.608 13.7796 5.5 14.2916 5.5C14.7636 5.5 15.1876 5.604 15.5636 5.812C15.9476 6.012 16.2476 6.288 16.4636 6.64C16.6876 6.984 16.7996 7.376 16.7996 7.816C16.7996 8.128 16.7276 8.404 16.5836 8.644C16.4476 8.884 16.2716 9.092 16.0556 9.268C15.8396 9.436 15.6116 9.576 15.3716 9.688C15.7956 9.832 16.1396 10.028 16.4036 10.276C16.6676 10.516 16.8596 10.796 16.9796 11.116C17.1076 11.436 17.1716 11.784 17.1716 12.16C17.1716 12.68 17.0396 13.148 16.7756 13.564C16.5116 13.972 16.1596 14.296 15.7196 14.536C15.2796 14.768 14.7956 14.884 14.2676 14.884Z" fill="black"/>
</svg>
