<svg width="40" height="40" viewBox="0 0 40 40" fill="none" xmlns="http://www.w3.org/2000/svg">
<g id="Frame">
<g id="Group">
<path id="Vector" d="M28.5486 30.0088C28.3351 26.7983 26.7469 19.3611 26.6274 18.1913L24.7062 21.1457C24.7062 21.1457 25.9699 26.5336 26.2858 28.728C26.6018 30.9139 26.6445 32.2289 24.8257 32.485C22.452 32.818 21.2395 30.3247 21.0602 28.5914C20.8382 26.4653 20.8382 21.2652 20.2234 20.0442L18.473 22.435C18.473 22.435 19.2756 28.839 19.1646 30.2906C19.0536 31.7422 17.7643 32.3313 15.9028 32.3911C14.0414 32.4509 13.6401 30.9481 13.6401 30.1796V25.4919L14.938 22.7253L13.6401 23.2377V20.9578L11.8299 22.5802V23.8951C7.19339 25.7053 5.74182 28.3011 5.36612 29.505C4.9648 30.7858 4.92211 33.2023 7.44101 33.9451C9.89161 34.6624 12.1885 33.2962 12.1885 33.2962C12.1885 33.2962 13.4266 35.5163 15.8004 35.3711C18.1741 35.2259 19.8135 33.5694 20.0355 33.2279C20.0355 33.2279 22.3751 35.4906 24.5098 35.3711C27.2422 35.2174 28.7535 33.2108 28.5486 30.0088ZM7.47517 30.4101C7.08239 29.394 8.00457 28.506 8.68766 28.0364C9.25975 27.6436 10.3271 26.9691 11.847 26.5848V30.9993C10.0538 31.8532 7.85941 31.4006 7.47517 30.4101ZM34.0731 11.7275C34.0731 11.7275 34.6879 17.3716 34.7733 21.5128C34.8416 24.8258 34.9099 31.1701 34.611 32.8436C34.3207 34.5258 32.5874 35.9688 32.5874 35.9688C32.5874 35.9688 32.7069 26.4738 32.4422 22.7168C32.2117 19.4977 31.836 14.4343 31.836 14.4343L34.0731 11.7275Z" fill="#1E2125"/>
<g id="Vector_2">
<path d="M15.7236 13.7502C15.7236 13.7502 15.1259 16.1239 16.2615 17.0717C17.3886 18.0195 19.0793 16.8668 19.2928 16.1068C19.2928 16.1068 20.3942 17.0034 21.3506 16.4228C22.3069 15.8421 22.3325 14.6382 22.2557 13.4855C22.1788 12.3328 21.3591 10.8812 21.3591 10.8812L20.4113 12.1534C20.4113 12.1534 21.3164 13.6648 21.1969 14.587C21.0773 15.5091 19.7795 14.7663 19.6001 14.2966C19.4208 13.827 19.0537 12.8622 19.0964 12.2132L18.1913 12.9048C18.1913 12.9048 18.6097 14.5784 18.0205 15.2786C17.4399 15.9788 16.6885 15.5433 16.6287 14.8858C16.5689 14.2283 16.7482 12.8365 16.7482 12.8365L15.7236 13.7502Z" fill="#0A9D4E"/>
<path d="M17.8326 11.607C17.8326 11.607 17.7643 6.81678 16.8678 4.84435L18.1912 3.00003L18.1913 3C18.1913 3 18.1912 3.00001 18.1912 3.00003C18.1887 3.01552 20.3994 8.81856 17.8326 11.607Z" fill="#0A9D4E"/>
</g>
</g>
</g>
</svg>
