<svg width="39" height="38" viewBox="0 0 39 38" fill="none" xmlns="http://www.w3.org/2000/svg">
<g id="apple">
<rect x="1" y="0.5" width="37" height="37" rx="18.5" stroke="#E3E7EA"/>
<g id="1">
<path id="bg" d="M33.5 19C33.5 26.728 27.235 33 19.5 33C11.765 33 5.5 26.728 5.5 19C5.5 11.265 11.765 5 19.5 5C27.235 5 33.5 11.265 33.5 19Z" fill="#283544"/>
<path id="apple_2" d="M26.0621 15.4574C25.9857 15.502 24.1671 16.4425 24.1671 18.5279C24.2528 20.9061 26.4621 21.7401 26.5 21.7401C26.4621 21.7847 26.1665 22.8763 25.2907 24.0205C24.5956 25.0062 23.8242 26 22.6528 26C21.5385 26 21.1385 25.3431 19.8528 25.3431C18.472 25.3431 18.0813 26 17.0242 26C15.8528 26 15.0242 24.953 14.2913 23.9766C13.3391 22.6986 12.5298 20.6931 12.5012 18.7675C12.482 17.7471 12.6919 16.744 13.2248 15.8921C13.977 14.7026 15.3198 13.8952 16.7863 13.8686C17.9099 13.8333 18.9099 14.5875 19.5956 14.5875C20.2528 14.5875 21.4814 13.8686 22.8714 13.8686C23.4714 13.8692 25.0714 14.0376 26.0621 15.4574ZM19.5006 13.6649C19.3006 12.733 19.8528 11.8012 20.3671 11.2068C21.0242 10.4879 22.0621 10 22.9571 10C23.0143 10.9318 22.6522 11.8458 22.005 12.5114C21.4242 13.2302 20.4242 13.7714 19.5006 13.6649Z" fill="white"/>
</g>
</g>
</svg>
