<svg width="178" height="306" viewBox="0 0 178 306" fill="none" xmlns="http://www.w3.org/2000/svg">
<path fill-rule="evenodd" clip-rule="evenodd" d="M2.03254 305L2.03254 198.308C-1.64212 115 5.96012 55.3692 88.9999 1C172.04 55.3692 179.642 115 175.967 198.308V305H88.9999H2.03254Z" fill="#FFDD02"/>
<path d="M2.03254 198.308L2.53254 198.308L2.53254 198.297L2.53205 198.286L2.03254 198.308ZM2.03254 305L1.53254 305L1.53254 305.5H2.03254V305ZM88.9999 1L89.2738 0.581686L88.9999 0.402363L88.726 0.581686L88.9999 1ZM175.967 198.308L175.468 198.286L175.467 198.297V198.308H175.967ZM175.967 305V305.5H176.467V305H175.967ZM1.53254 198.308L1.53254 305L2.53254 305L2.53254 198.308L1.53254 198.308ZM88.726 0.581686C47.1358 27.8123 24.3947 56.3914 12.5291 88.6292C0.671062 120.847 -0.304676 156.667 1.53303 198.33L2.53205 198.286C0.695098 156.64 1.68315 120.992 13.4675 88.9746C25.2444 56.9779 47.8242 28.5569 89.2738 1.41831L88.726 0.581686ZM88.726 1.41831C130.176 28.5569 152.755 56.9779 164.532 88.9746C176.317 120.992 177.305 156.64 175.468 198.286L176.467 198.33C178.305 156.667 177.329 120.847 165.471 88.6292C153.605 56.3914 130.864 27.8123 89.2738 0.581686L88.726 1.41831ZM175.467 198.308V305H176.467V198.308H175.467ZM175.967 304.5H88.9999V305.5H175.967V304.5ZM2.03254 305.5H88.9999V304.5H2.03254V305.5Z" fill="#FFDD02"/>
</svg>
