<svg width="24" height="24" viewBox="0 0 24 24" fill="none" xmlns="http://www.w3.org/2000/svg">
<g id="fi-rr-angle-small-left">
<path id="Vector" d="M13.4001 12.7101C13.4938 12.6171 13.5682 12.5065 13.619 12.3846C13.6697 12.2628 13.6959 12.1321 13.6959 12.0001C13.6959 11.868 13.6697 11.7373 13.619 11.6155C13.5682 11.4936 13.4938 11.383 13.4001 11.2901L8.81008 6.71006C8.71635 6.6171 8.64196 6.5065 8.59119 6.38464C8.54042 6.26278 8.51428 6.13207 8.51428 6.00006C8.51428 5.86805 8.54042 5.73734 8.59119 5.61548C8.64196 5.49362 8.71635 5.38302 8.81008 5.29006C8.99744 5.10381 9.25089 4.99927 9.51508 4.99927C9.77926 4.99927 10.0327 5.10381 10.2201 5.29006L14.8101 9.88006C15.3719 10.4426 15.6874 11.2051 15.6874 12.0001C15.6874 12.7951 15.3719 13.5576 14.8101 14.1201L10.2201 18.7101C10.0338 18.8948 9.78242 18.999 9.52008 19.0001C9.38847 19.0008 9.25801 18.9756 9.13617 18.9258C9.01433 18.8761 8.90352 18.8027 8.81008 18.7101C8.71635 18.6171 8.64196 18.5065 8.59119 18.3846C8.54042 18.2628 8.51428 18.1321 8.51428 18.0001C8.51428 17.868 8.54042 17.7373 8.59119 17.6155C8.64196 17.4936 8.71635 17.383 8.81008 17.2901L13.4001 12.7101Z" fill="white"/>
</g>
</svg>
