<svg width="30" height="30" viewBox="0 0 30 30" fill="none" xmlns="http://www.w3.org/2000/svg">
<g id="Frame 146">
<g id="1">
<rect id="Rectangle 157" x="13.2832" y="4" width="3.43284" height="4.80597" rx="1.71642" fill="#FFBC42"/>
<rect id="Rectangle 158" x="22.0801" y="6.40186" width="3.43284" height="4.80597" rx="1.71642" transform="rotate(40.8397 22.0801 6.40186)" fill="#FFBC42"/>
<rect id="Rectangle 162" width="3.43284" height="4.80597" rx="1.71642" transform="matrix(-0.756542 0.653945 0.653945 0.756542 7.91992 6.40295)" fill="#FFBC42"/>
<rect id="Rectangle 163" x="7.73828" y="26.0163" width="3.43284" height="4.80597" rx="1.71642" transform="rotate(-139.16 7.73828 26.0163)" fill="#FFBC42"/>
<rect id="Rectangle 159" x="27.0137" y="14.2985" width="3.43284" height="4.80597" rx="1.71642" transform="rotate(90 27.0137 14.2985)" fill="#FFBC42"/>
<rect id="Rectangle 164" width="3.43284" height="4.80597" rx="1.71642" transform="matrix(4.37114e-08 1 1 -4.37114e-08 2.98438 14.2997)" fill="#FFBC42"/>
<path id="Vector" d="M14.1837 21.7657C14.3578 21.7656 14.5314 21.783 14.702 21.8175C14.7655 21.5007 14.9 21.2024 15.0954 20.945C15.2908 20.6877 15.542 20.478 15.8301 20.3317C16.1182 20.1854 16.4358 20.1064 16.7588 20.1006C17.0819 20.0947 17.4021 20.1622 17.6953 20.2979C18.233 18.817 19.8694 18.0523 21.3504 18.5899C22.8314 19.1275 23.596 20.7641 23.0584 22.245C24.3557 22.286 25.3805 23.3598 25.3611 24.6576C25.3415 25.9555 24.285 26.9979 22.9869 27H14.1837C12.7384 27 11.5666 25.8283 11.5666 24.3828C11.5666 22.9374 12.7384 21.7657 14.1837 21.7657Z" fill="#FFBC42"/>
<path id="Subtract" d="M20.9838 17.8957C21.1096 17.4042 21.1766 16.889 21.1766 16.3582C21.1766 12.9456 18.4101 10.1791 14.9975 10.1791C11.5848 10.1791 8.81836 12.9456 8.81836 16.3582C8.81836 18.7022 10.1235 20.7414 12.0468 21.7886C12.515 21.3487 13.1453 21.0791 13.8385 21.0791C14.0126 21.0791 14.1862 21.0965 14.3568 21.1309C14.4203 20.8141 14.5548 20.5158 14.7502 20.2585C14.9456 20.0011 15.1968 19.7914 15.4849 19.6452C15.773 19.4989 16.0905 19.4199 16.4136 19.414C16.7367 19.4082 17.0569 19.4756 17.3501 19.6114C17.8852 18.1376 19.5085 17.3731 20.9838 17.8957Z" fill="#FFBC42"/>
</g>
</g>
</svg>
