<svg width="30" height="30" viewBox="0 0 30 30" fill="none" xmlns="http://www.w3.org/2000/svg">
<g id="Frame 146">
<g id="1">
<g id="Union">
<path d="M25.5617 20.8324C25.4711 20.7207 25.426 20.5743 25.426 20.4279C25.426 20.3527 25.4377 20.2783 25.4611 20.2089C25.4845 20.1395 25.5185 20.0764 25.5613 20.0233C26.5372 18.8172 27.0743 17.2108 27.0743 15.5C27.0743 13.7892 26.5372 12.1828 25.5613 10.9767C25.3809 10.7532 25.3809 10.391 25.5613 10.1676C25.7421 9.94415 26.0352 9.94414 26.216 10.1676C27.3664 11.5898 28 13.4836 28 15.5C28 17.5163 27.3664 19.4103 26.216 20.8324C26.0352 21.0559 25.7421 21.0559 25.5617 20.8324Z" fill="#C68C22"/>
<path d="M24.2128 12.0717C24.2128 12.2181 24.2583 12.3645 24.3485 12.4762C25.6973 14.1436 25.697 16.8565 24.3485 18.5238C24.1677 18.7472 24.1677 19.1094 24.3485 19.3329C24.5293 19.5564 24.8224 19.5563 25.0029 19.3329C26.7127 17.2195 26.7127 13.7806 25.0029 11.6671C24.8224 11.4437 24.5293 11.4437 24.3485 11.6671C24.3054 11.7201 24.2713 11.7832 24.2482 11.8527C24.2249 11.9221 24.2128 11.9965 24.2128 12.0717Z" fill="#C68C22"/>
<path d="M23 13.5712C23 13.7176 23.0455 13.864 23.1357 13.9757C23.8155 14.8162 23.8155 16.1838 23.1357 17.0242C22.9549 17.2477 22.9549 17.61 23.1357 17.8334C23.3165 18.0568 23.6096 18.0568 23.7901 17.8334C24.8311 16.5467 24.8308 14.4532 23.7901 13.1666C23.6096 12.9432 23.3165 12.9432 23.1357 13.1666C23.0926 13.2197 23.0585 13.2827 23.0354 13.3522C23.0211 13.3944 23.011 13.4384 23.0053 13.4833C23.0017 13.5123 23 13.5417 23 13.5712Z" fill="#C68C22"/>
</g>
<g id="Union_2">
<path d="M3.43834 20.8324C3.52891 20.7207 3.57403 20.5743 3.57403 20.4279C3.57403 20.3527 3.56233 20.2783 3.53893 20.2089C3.51554 20.1395 3.48145 20.0764 3.43867 20.0233C2.4628 18.8172 1.92574 17.2108 1.92574 15.5C1.92574 13.7892 2.4628 12.1828 3.43867 10.9767C3.61914 10.7532 3.61914 10.391 3.43867 10.1676C3.25787 9.94415 2.96478 9.94414 2.78397 10.1676C1.63365 11.5898 1 13.4836 1 15.5C1 17.5163 1.63365 19.4103 2.78397 20.8324C2.96478 21.0559 3.25787 21.0559 3.43834 20.8324Z" fill="#C68C22"/>
<path d="M4.78718 12.0717C4.78718 12.2181 4.74173 12.3645 4.65149 12.4762C3.30265 14.1436 3.30299 16.8565 4.65149 18.5238C4.8323 18.7472 4.8323 19.1094 4.65149 19.3329C4.47069 19.5564 4.1776 19.5563 3.99713 19.3329C2.28735 17.2195 2.28735 13.7806 3.99713 11.6671C4.1776 11.4437 4.47069 11.4437 4.65149 11.6671C4.69461 11.7201 4.72869 11.7832 4.75175 11.8527C4.77515 11.9221 4.78718 11.9965 4.78718 12.0717Z" fill="#C68C22"/>
<path d="M6 13.5712C6 13.7176 5.95455 13.864 5.86431 13.9757C5.18455 14.8162 5.18455 16.1838 5.86431 17.0242C6.04512 17.2477 6.04512 17.61 5.86431 17.8334C5.68351 18.0568 5.39042 18.0568 5.20995 17.8334C4.16891 16.5467 4.16924 14.4532 5.20995 13.1666C5.39042 12.9432 5.68351 12.9432 5.86431 13.1666C5.90743 13.2197 5.94151 13.2827 5.96457 13.3522C5.97895 13.3944 5.98897 13.4384 5.99465 13.4833C5.99833 13.5123 6 13.5417 6 13.5712Z" fill="#C68C22"/>
</g>
<g id="Group">
<path id="Union_3" d="M12.9364 4.92281C13.2822 4.47622 13.7658 4.15645 14.3122 4.01326C14.6272 3.93119 14.8842 4.24619 14.6767 4.51412C14.4691 4.78325 14.3073 5.14411 14.317 5.52307C14.3159 5.82568 14.401 6.12234 14.5624 6.37834C14.7238 6.63434 14.9547 6.83908 15.2282 6.96861C15.5017 7.09813 15.8064 7.14709 16.1067 7.10974C16.407 7.07239 16.6904 6.95029 16.9239 6.75771C17.1894 6.52841 17.5768 6.83375 17.4163 7.14633C17.2703 7.68762 16.9502 8.16583 16.5055 8.50718C16.0608 8.84853 15.5161 9.03404 14.9554 9.0351C14.9548 9.0351 14.9541 9.0351 14.9535 9.0351V9.58705C15.5027 10.4366 16.5774 11.0682 17.7215 11.7405C18.0551 11.9366 18.3947 12.1362 18.7288 12.3456C19.4855 12.8187 20.2108 13.3533 20.7576 14.0497C21.3043 14.7461 21.6615 15.6174 21.6615 16.7012C21.6615 18.2919 21.1534 19.4034 20.6405 20.107C20.3991 20.4377 20.1565 20.6755 19.9622 20.842H9.30665C9.11113 20.6743 8.86976 20.4377 8.62838 20.107C8.11425 19.4034 7.60977 18.2919 7.60977 16.7012C7.59655 15.7402 7.91447 14.804 8.51011 14.0497C9.05682 13.3521 9.78578 12.8187 10.5425 12.3456C10.8751 12.1371 11.2128 11.9385 11.5447 11.7433C12.6893 11.07 13.7639 10.438 14.3139 9.58755V8.95243C13.8775 8.83872 13.4751 8.61065 13.1507 8.28657C12.6718 7.80815 12.4021 7.15945 12.4005 6.48254C12.4022 5.91776 12.5907 5.3694 12.9364 4.92281Z" fill="#D39E36"/>
<path id="Vector" d="M8.56644 20.5319C8.31268 20.5334 8.06981 20.6351 7.8906 20.8148C7.71139 20.9944 7.61033 21.2376 7.60938 21.4913V22.7658C7.60906 22.8504 7.64228 22.9317 7.70177 22.9919C7.76126 23.0521 7.84217 23.0862 7.92679 23.0868H21.3401C21.3822 23.0868 21.4239 23.0785 21.4628 23.0624C21.5016 23.0462 21.537 23.0226 21.5667 22.9927C21.5964 22.9629 21.6199 22.9275 21.6359 22.8886C21.6519 22.8496 21.6601 22.8079 21.6599 22.7658V21.4913C21.6583 21.2374 21.5567 20.9942 21.3771 20.8146C21.1976 20.635 20.9544 20.5334 20.7004 20.5319H8.56644Z" fill="black"/>
</g>
</g>
</g>
</svg>
