<svg width="30" height="30" viewBox="0 0 30 30" fill="none" xmlns="http://www.w3.org/2000/svg">
<g id="Frame 146">
<g id="1">
<g id="7125222">
<rect id="Rectangle 157" x="13.2461" y="5" width="3.50667" height="4.90934" rx="1.75333" fill="#FFBC42"/>
<rect id="Rectangle 158" x="22.2344" y="7.45349" width="3.50667" height="4.90934" rx="1.75333" transform="rotate(40.8397 22.2344 7.45349)" fill="#FFBC42"/>
<rect id="Rectangle 162" width="3.50667" height="4.90934" rx="1.75333" transform="matrix(-0.756542 0.653945 0.653945 0.756542 7.76758 7.45465)" fill="#FFBC42"/>
<rect id="Rectangle 159" x="27.2734" y="15.52" width="3.50667" height="4.90934" rx="1.75333" transform="rotate(90 27.2734 15.52)" fill="#FFBC42"/>
<rect id="Rectangle 164" width="3.50667" height="4.90934" rx="1.75333" transform="matrix(4.37114e-08 1 1 -4.37114e-08 2.72656 15.5212)" fill="#FFBC42"/>
</g>
<path id="Vector 6" d="M5.15637 25.7406C5.15637 25.7406 9.76559 21.9438 15.1981 22.1909C20.6307 22.438 24.792 26 24.792 26" stroke="#C68C22" stroke-width="1.3" stroke-linecap="round"/>
<path id="Subtract" fill-rule="evenodd" clip-rule="evenodd" d="M19.8077 21.7135C20.7455 20.6119 21.3115 19.1841 21.3115 17.624C21.3115 14.138 18.4855 11.312 14.9995 11.312C11.5135 11.312 8.6875 14.138 8.6875 17.624C8.6875 19.1626 9.23797 20.5725 10.1527 21.6678C11.6365 21.1195 13.3561 20.7272 15.1737 20.7858C16.8677 20.8405 18.4424 21.2187 19.8077 21.7135Z" fill="#FFBC42"/>
</g>
</g>
</svg>
