<svg width="25" height="24" viewBox="0 0 25 24" fill="none" xmlns="http://www.w3.org/2000/svg">
<g id="fi-rr-bookmark">
<path id="Vector" d="M18.4177 20.9974C18.1487 20.9966 17.8825 20.9409 17.6344 20.8334C17.3864 20.726 17.1615 20.5689 16.9727 20.3712L12.5 15.7864L8.02732 20.3742C7.74007 20.6747 7.37168 20.879 6.97018 20.9605C6.56868 21.042 6.15269 20.9968 5.77644 20.8309C5.39645 20.6733 5.07139 20.4012 4.84369 20.0502C4.61599 19.6992 4.49625 19.2855 4.50009 18.8632V6.74946C4.50009 5.75504 4.8832 4.80135 5.56514 4.09819C6.24709 3.39503 7.172 3 8.13641 3L16.8636 3C17.3411 3 17.814 3.09698 18.2551 3.28541C18.6963 3.47384 19.0972 3.75002 19.4348 4.09819C19.7725 4.44636 20.0404 4.8597 20.2231 5.3146C20.4058 5.76951 20.4999 6.25707 20.4999 6.74946V18.8632C20.504 19.2851 20.3847 19.6986 20.1575 20.0496C19.9303 20.4006 19.6059 20.6728 19.2265 20.8309C18.9703 20.9414 18.6954 20.998 18.4177 20.9974ZM8.13641 4.49978C7.55776 4.49978 7.00282 4.7368 6.59365 5.1587C6.18448 5.58059 5.95462 6.15281 5.95462 6.74946V18.8632C5.95436 18.9882 5.99001 19.1104 6.05709 19.2145C6.12417 19.3185 6.21965 19.3998 6.33148 19.4479C6.44331 19.4961 6.56647 19.509 6.6854 19.485C6.80434 19.461 6.9137 19.4012 6.9997 19.3131L11.9909 14.1981C12.1272 14.0585 12.3115 13.9801 12.5036 13.9801C12.6958 13.9801 12.8801 14.0585 13.0164 14.1981L18.0017 19.3116C18.0877 19.3997 18.1971 19.4595 18.316 19.4835C18.435 19.5075 18.5581 19.4946 18.67 19.4464C18.7818 19.3983 18.8773 19.317 18.9444 19.213C19.0114 19.1089 19.0471 18.9867 19.0468 18.8617V6.74946C19.0468 6.15281 18.817 5.58059 18.4078 5.1587C17.9986 4.7368 17.4437 4.49978 16.865 4.49978H8.13641Z" fill="#374957"/>
</g>
</svg>
