<svg width="17" height="21" viewBox="0 0 17 21" fill="none" xmlns="http://www.w3.org/2000/svg">
<path d="M1.42888 20.3002C1.85082 20.4964 2.31731 20.5497 2.7675 20.4531C3.21768 20.3565 3.63067 20.1145 3.95257 19.7587L8.49999 14.8377L13.0474 19.7587C13.2594 19.9928 13.512 20.1788 13.7906 20.3059C14.0691 20.4331 14.3681 20.4988 14.6701 20.4994C14.9806 20.4985 15.2878 20.4307 15.5742 20.3002C15.9996 20.1129 16.3632 19.7903 16.6175 19.3747C16.8718 18.9591 17.0051 18.4697 16.9999 17.9704V4.70386C16.9986 3.58934 16.5912 2.52084 15.8669 1.73276C15.1426 0.944669 14.1606 0.501335 13.1363 0.5L3.86371 0.5C2.8394 0.501335 1.8574 0.944669 1.1331 1.73276C0.408809 2.52084 0.00136153 3.58934 0.000134565 4.70386V17.9704C-0.00485189 18.4701 0.12885 18.9598 0.383759 19.3754C0.638668 19.7911 1.00292 20.1134 1.42888 20.3002Z" fill="#0A9D4E"/>
</svg>
