<svg width="13" height="13" viewBox="0 0 13 13" fill="none" xmlns="http://www.w3.org/2000/svg">
<g id="Union">
<path d="M7.39453 8.01721C7.39453 8.43143 7.05875 8.76721 6.64453 8.76721C6.23032 8.76721 5.89453 8.43143 5.89453 8.01721C5.89453 7.603 6.23032 7.26721 6.64453 7.26721C7.05875 7.26721 7.39453 7.603 7.39453 8.01721Z" fill="#6D7379"/>
<path d="M4.14434 8.76721C4.55855 8.76721 4.89434 8.43143 4.89434 8.01721C4.89434 7.603 4.55855 7.26721 4.14434 7.26721C3.73012 7.26721 3.39434 7.603 3.39434 8.01721C3.39434 8.43143 3.73012 8.76721 4.14434 8.76721Z" fill="#6D7379"/>
<path d="M9.89473 8.01721C9.89473 8.43143 9.55894 8.76721 9.14473 8.76721C8.73051 8.76721 8.39473 8.43143 8.39473 8.01721C8.39473 7.603 8.73051 7.26721 9.14473 7.26721C9.55894 7.26721 9.89473 7.603 9.89473 8.01721Z" fill="#6D7379"/>
<path fill-rule="evenodd" clip-rule="evenodd" d="M9.64453 1.51721H10.1445C10.8073 1.51801 11.4428 1.78165 11.9114 2.25032C12.3801 2.71899 12.6437 3.35441 12.6445 4.01721V10.0172C12.6437 10.68 12.3801 11.3154 11.9114 11.7841C11.4428 12.2528 10.8073 12.5164 10.1445 12.5172H3.14453C2.48173 12.5164 1.84631 12.2528 1.37764 11.7841C0.908972 11.3154 0.645325 10.68 0.644531 10.0172V4.01721C0.645325 3.35441 0.908972 2.71899 1.37764 2.25032C1.84631 1.78165 2.48173 1.51801 3.14453 1.51721H3.64453V1.01721C3.64453 0.884604 3.69721 0.757427 3.79098 0.663659C3.88475 0.56989 4.01192 0.517212 4.14453 0.517212C4.27714 0.517212 4.40432 0.56989 4.49808 0.663659C4.59185 0.757427 4.64453 0.884604 4.64453 1.01721V1.51721H8.64453V1.01721C8.64453 0.884604 8.69721 0.757427 8.79098 0.663659C8.88475 0.56989 9.01192 0.517212 9.14453 0.517212C9.27714 0.517212 9.40432 0.56989 9.49809 0.663659C9.59185 0.757427 9.64453 0.884604 9.64453 1.01721V1.51721ZM2.08387 2.95655C1.80257 3.23786 1.64453 3.61939 1.64453 4.01721V4.51721H11.6445V4.01721C11.6445 3.61939 11.4865 3.23786 11.2052 2.95655C10.9239 2.67525 10.5424 2.51721 10.1445 2.51721H3.14453C2.74671 2.51721 2.36518 2.67525 2.08387 2.95655ZM2.08387 11.0779C2.36518 11.3592 2.74671 11.5172 3.14453 11.5172H10.1445C10.5424 11.5172 10.9239 11.3592 11.2052 11.0779C11.4865 10.7966 11.6445 10.415 11.6445 10.0172V5.51721H1.64453V10.0172C1.64453 10.415 1.80257 10.7966 2.08387 11.0779Z" fill="#6D7379"/>
</g>
</svg>
