<svg width="24" height="24" viewBox="0 0 24 24" fill="none" xmlns="http://www.w3.org/2000/svg">
<g id="fi-rr-camera">
<path id="Union" fill-rule="evenodd" clip-rule="evenodd" d="M17.0985 6.83333H17.4583C18.3973 6.83446 19.2975 7.20796 19.9614 7.87191C20.6254 8.53585 20.9989 9.43604 21 10.375V17.4583C20.9989 18.3973 20.6254 19.2975 19.9614 19.9614C19.2975 20.6254 18.3973 20.9989 17.4583 21H7.54167C6.6027 20.9989 5.70252 20.6254 5.03857 19.9614C4.37462 19.2975 4.00112 18.3973 4 17.4583V10.375C4.00112 9.43604 4.37462 8.53585 5.03857 7.87191C5.70252 7.20796 6.6027 6.83446 7.54167 6.83333H7.9015L9.4485 4.82733C9.64788 4.57078 9.90302 4.36296 10.1946 4.21962C10.4862 4.07628 10.8066 4.00118 11.1315 4H13.8685C14.1934 4.00118 14.5138 4.07628 14.8054 4.21962C15.097 4.36296 15.3521 4.57078 15.5515 4.82733L17.0985 6.83333ZM10.8191 5.48997C10.7219 5.53784 10.6369 5.60725 10.5705 5.69292L9.69075 6.83333H15.3092L14.4295 5.69292C14.3631 5.60733 14.278 5.53797 14.1809 5.49011C14.0837 5.44225 13.9768 5.41713 13.8685 5.41667H11.1315C11.0231 5.41703 10.9163 5.4421 10.8191 5.48997ZM18.9609 18.9609C19.3595 18.5624 19.5833 18.0219 19.5833 17.4583V10.375C19.5833 9.81141 19.3595 9.27091 18.9609 8.8724C18.5624 8.47388 18.0219 8.25 17.4583 8.25H7.54167C6.97808 8.25 6.43758 8.47388 6.03906 8.8724C5.64055 9.27091 5.41667 9.81141 5.41667 10.375V17.4583C5.41667 18.0219 5.64055 18.5624 6.03906 18.9609C6.43758 19.3595 6.97808 19.5833 7.54167 19.5833H17.4583C18.0219 19.5833 18.5624 19.3595 18.9609 18.9609ZM10.1388 10.3829C10.8377 9.91586 11.6594 9.6666 12.5 9.6666C13.6268 9.66773 14.7072 10.1159 15.504 10.9126C16.3007 11.7094 16.7489 12.7898 16.75 13.9166C16.75 14.7572 16.5007 15.5789 16.0337 16.2778C15.5668 16.9767 14.903 17.5214 14.1264 17.8431C13.3498 18.1648 12.4953 18.2489 11.6709 18.0849C10.8464 17.921 10.0892 17.5162 9.4948 16.9218C8.90042 16.3274 8.49565 15.5702 8.33166 14.7457C8.16768 13.9213 8.25184 13.0668 8.57351 12.2902C8.89519 11.5136 9.43992 10.8499 10.1388 10.3829ZM10.9259 16.2724C11.3918 16.5838 11.9396 16.7499 12.5 16.7499C13.2514 16.7499 13.9721 16.4514 14.5035 15.9201C15.0348 15.3887 15.3333 14.668 15.3333 13.9166C15.3333 13.3562 15.1672 12.8084 14.8558 12.3425C14.5445 11.8765 14.102 11.5134 13.5843 11.2989C13.0665 11.0845 12.4969 11.0284 11.9472 11.1377C11.3976 11.247 10.8928 11.5169 10.4965 11.9131C10.1003 12.3094 9.83043 12.8142 9.72111 13.3638C9.61179 13.9135 9.66789 14.4831 9.88234 15.0009C10.0968 15.5186 10.4599 15.9611 10.9259 16.2724Z" fill="#374957"/>
</g>
</svg>
