<svg width="24" height="24" viewBox="0 0 24 24" fill="none" xmlns="http://www.w3.org/2000/svg">
<g id="fi-rr-checkbox">
<g id="1">
<path id="Vector" d="M9.778 15.266L6.51217 12.0002C6.35589 11.8439 6.14397 11.7562 5.923 11.7562C5.70203 11.7562 5.49011 11.8439 5.33383 12.0002C5.17761 12.1564 5.08984 12.3684 5.08984 12.5893C5.08984 12.8103 5.17761 13.0222 5.33383 13.1785L8.59967 16.4443C8.75444 16.5992 8.9382 16.722 9.14045 16.8058C9.34271 16.8896 9.55949 16.9327 9.77842 16.9327C9.99734 16.9327 10.2141 16.8896 10.4164 16.8058C10.6186 16.722 10.8024 16.5992 10.9572 16.4443L18.6672 8.73433C18.8234 8.57806 18.9112 8.36614 18.9112 8.14517C18.9112 7.9242 18.8234 7.71227 18.6672 7.556C18.5109 7.39977 18.299 7.31201 18.078 7.31201C17.857 7.31201 17.6451 7.39977 17.4888 7.556L9.778 15.266Z" fill="#374957"/>
</g>
</g>
</svg>
