<svg width="20" height="20" viewBox="0 0 20 20" fill="none" xmlns="http://www.w3.org/2000/svg">
<g id="border_color_FILL0_wght300_GRAD0_opsz24 1">
<path id="Union" fill-rule="evenodd" clip-rule="evenodd" d="M6.4053 12.6058H5.53973V11.7265L11.339 5.82495L12.2153 6.71511L6.4053 12.6058ZM4.48975 11.5406V13.0296C4.48975 13.2128 4.5501 13.3658 4.67082 13.4884C4.79152 13.611 4.94206 13.6723 5.12244 13.6723H6.58163C6.66599 13.6723 6.74631 13.6568 6.8226 13.6258C6.89888 13.5948 6.96977 13.546 7.03528 13.4795L14.6814 5.71282C14.79 5.60251 14.8686 5.48196 14.917 5.35115C14.9655 5.22034 14.9897 5.08885 14.9897 4.95667C14.9897 4.81265 14.9655 4.67455 14.917 4.54237C14.8686 4.4102 14.79 4.29261 14.6814 4.18961L13.8401 3.32407C13.7315 3.21377 13.6133 3.13218 13.4854 3.07932C13.3575 3.02644 13.2227 3 13.0809 3C12.9436 3 12.8105 3.02644 12.6818 3.07932C12.553 3.13218 12.4379 3.21012 12.3365 3.31312L4.67283 11.0798C4.60732 11.1463 4.56043 11.2183 4.53215 11.2958C4.50388 11.3733 4.48975 11.4549 4.48975 11.5406ZM4.01094 16.8345C3.73531 16.8345 3.49791 16.7617 3.29874 16.6162C3.09958 16.4706 3 16.2944 3 16.0876C3 15.884 3.09958 15.7086 3.29874 15.5614C3.49791 15.4143 3.73531 15.3407 4.01094 15.3407H15.4685C15.7442 15.3407 15.9816 15.4135 16.1808 15.559C16.3799 15.7046 16.4795 15.8808 16.4795 16.0876C16.4795 16.2912 16.3799 16.4666 16.1808 16.6138C15.9816 16.7609 15.7442 16.8345 15.4685 16.8345H4.01094Z" fill="white"/>
</g>
</svg>
