<svg width="20" height="20" viewBox="0 0 20 20" fill="none" xmlns="http://www.w3.org/2000/svg">
<g id="Component 1">
<path id="Vector" d="M1.29167 3.79994H3.45767C3.62759 4.43169 3.99851 4.98938 4.51322 5.38698C5.02792 5.78458 5.6578 6 6.30569 6C6.95357 6 7.58345 5.78458 8.09816 5.38698C8.61286 4.98938 8.98379 4.43169 9.15371 3.79994H18.7083C18.9183 3.79994 19.1197 3.71566 19.2681 3.56565C19.4166 3.41563 19.5 3.21216 19.5 3C19.5 2.78784 19.4166 2.58437 19.2681 2.43435C19.1197 2.28433 18.9183 2.20006 18.7083 2.20006H9.15371C8.98379 1.56831 8.61286 1.01062 8.09816 0.61302C7.58345 0.215418 6.95357 0 6.30569 0C5.6578 0 5.02792 0.215418 4.51322 0.61302C3.99851 1.01062 3.62759 1.56831 3.45767 2.20006H1.29167C1.0817 2.20006 0.88034 2.28433 0.731874 2.43435C0.583408 2.58437 0.5 2.78784 0.5 3C0.5 3.21216 0.583408 3.41563 0.731874 3.56565C0.88034 3.71566 1.0817 3.79994 1.29167 3.79994ZM6.30529 1.6001C6.5793 1.6001 6.84716 1.6822 7.07499 1.83602C7.30282 1.98985 7.48039 2.20848 7.58525 2.46428C7.69011 2.72008 7.71755 3.00155 7.66409 3.27311C7.61063 3.54466 7.47868 3.7941 7.28493 3.98988C7.09118 4.18566 6.84432 4.31899 6.57557 4.373C6.30683 4.42702 6.02827 4.3993 5.77512 4.29334C5.52196 4.18739 5.30559 4.00796 5.15336 3.77774C5.00113 3.54753 4.91988 3.27687 4.91988 3C4.92029 2.62885 5.06639 2.27303 5.32612 2.01059C5.58584 1.74815 5.93799 1.60052 6.30529 1.6001Z" fill="#374957"/>
<path id="Vector_2" d="M18.7083 9.20026H16.5423C16.3727 8.56854 16.0019 8.01079 15.4873 7.61313C14.9726 7.21546 14.3427 7 13.6947 7C13.0468 7 12.4168 7.21546 11.9022 7.61313C11.3875 8.01079 11.0167 8.56854 10.8471 9.20026H1.29167C1.0817 9.20026 0.88034 9.28452 0.731874 9.4345C0.583408 9.58448 0.5 9.7879 0.5 10C0.5 10.2121 0.583408 10.4155 0.731874 10.5655C0.88034 10.7155 1.0817 10.7997 1.29167 10.7997H10.8471C11.0167 11.4315 11.3875 11.9892 11.9022 12.3869C12.4168 12.7845 13.0468 13 13.6947 13C14.3427 13 14.9726 12.7845 15.4873 12.3869C16.0019 11.9892 16.3727 11.4315 16.5423 10.7997H18.7083C18.9183 10.7997 19.1197 10.7155 19.2681 10.5655C19.4166 10.4155 19.5 10.2121 19.5 10C19.5 9.7879 19.4166 9.58448 19.2681 9.4345C19.1197 9.28452 18.9183 9.20026 18.7083 9.20026ZM13.6947 11.3995C13.4207 11.3995 13.1528 11.3175 12.925 11.1637C12.6972 11.0099 12.5196 10.7913 12.4148 10.5356C12.3099 10.2798 12.2825 9.99845 12.3359 9.72696C12.3894 9.45548 12.5213 9.2061 12.7151 9.01038C12.9088 8.81465 13.1557 8.68135 13.4244 8.62735C13.6932 8.57335 13.9717 8.60107 14.2249 8.70699C14.478 8.81292 14.6944 8.9923 14.8466 9.22246C14.9989 9.45261 15.0801 9.7232 15.0801 10C15.0797 10.3711 14.9336 10.7268 14.6739 10.9892C14.4142 11.2515 14.062 11.3991 13.6947 11.3995Z" fill="#374957"/>
<path id="Vector_3" d="M18.7083 16.2001H9.15371C8.98379 15.5683 8.61286 15.0106 8.09816 14.613C7.58345 14.2154 6.95357 14 6.30569 14C5.6578 14 5.02792 14.2154 4.51322 14.613C3.99851 15.0106 3.62759 15.5683 3.45767 16.2001H1.29167C1.0817 16.2001 0.88034 16.2843 0.731874 16.4344C0.583408 16.5844 0.5 16.7878 0.5 17C0.5 17.2122 0.583408 17.4156 0.731874 17.5656C0.88034 17.7157 1.0817 17.7999 1.29167 17.7999H3.45767C3.62759 18.4317 3.99851 18.9894 4.51322 19.387C5.02792 19.7846 5.6578 20 6.30569 20C6.95357 20 7.58345 19.7846 8.09816 19.387C8.61286 18.9894 8.98379 18.4317 9.15371 17.7999H18.7083C18.9183 17.7999 19.1197 17.7157 19.2681 17.5656C19.4166 17.4156 19.5 17.2122 19.5 17C19.5 16.7878 19.4166 16.5844 19.2681 16.4344C19.1197 16.2843 18.9183 16.2001 18.7083 16.2001ZM6.30529 18.3999C6.03128 18.3999 5.76343 18.3178 5.5356 18.164C5.30777 18.0102 5.13019 17.7915 5.02533 17.5357C4.92048 17.2799 4.89304 16.9984 4.9465 16.7269C4.99995 16.4553 5.1319 16.2059 5.32565 16.0101C5.51941 15.8143 5.76627 15.681 6.03501 15.627C6.30375 15.573 6.58232 15.6007 6.83547 15.7067C7.08862 15.8126 7.30499 15.992 7.45722 16.2223C7.60946 16.4525 7.69071 16.7231 7.69071 17C7.69008 17.3711 7.54392 17.7268 7.28424 17.9892C7.02456 18.2516 6.67253 18.3993 6.30529 18.3999Z" fill="#374957"/>
</g>
</svg>
