<svg width="39" height="38" viewBox="0 0 39 38" fill="none" xmlns="http://www.w3.org/2000/svg">
<g id="google">
<rect x="1" y="0.5" width="37" height="37" rx="18.5" stroke="#E3E7EA"/>
<g id="Group 214">
<path id="vector" d="M33.4994 19.3109C33.4994 18.1598 33.4041 17.3198 33.1978 16.4487H19.7852V21.6442H27.6581C27.4994 22.9354 26.6423 24.8798 24.7375 26.1864L24.7108 26.3604L28.9516 29.58L29.2455 29.6087C31.9438 27.1665 33.4994 23.5731 33.4994 19.3109Z" fill="#4285F4"/>
<path id="vector_2" d="M19.7853 33C23.6424 33 26.8804 31.7555 29.2456 29.6089L24.7377 26.1865C23.5313 27.011 21.9123 27.5866 19.7853 27.5866C16.0076 27.5866 12.8013 25.1444 11.6583 21.7688L11.4908 21.7827L7.08111 25.1272L7.02344 25.2843C9.37261 29.8577 14.198 33 19.7853 33Z" fill="#34A853"/>
<path id="vector_3" d="M11.6587 21.769C11.3571 20.8979 11.1825 19.9645 11.1825 19.0001C11.1825 18.0356 11.3571 17.1023 11.6428 16.2312L11.6348 16.0456L7.16986 12.6475L7.02377 12.7156C6.05556 14.6134 5.5 16.7445 5.5 19.0001C5.5 21.2556 6.05556 23.3867 7.02377 25.2845L11.6587 21.769Z" fill="#FBBC05"/>
<path id="vector_4" d="M19.7854 10.4133C22.4679 10.4133 24.2774 11.5488 25.3092 12.4978L29.3409 8.64C26.8648 6.38445 23.6425 5 19.7854 5C14.198 5 9.37262 8.1422 7.02344 12.7155L11.6425 16.2311C12.8013 12.8555 16.0076 10.4133 19.7854 10.4133Z" fill="#EB4335"/>
</g>
</g>
</svg>
