<svg width="24" height="24" viewBox="0 0 24 24" fill="none" xmlns="http://www.w3.org/2000/svg">
<g id="fi-rr-home">
<path id="Vector" d="M21.2791 9.54421L14.9544 3.21875C14.1717 2.43828 13.1114 2 12.006 2C10.9006 2 9.84034 2.43828 9.05757 3.21875L2.73295 9.54421C2.49983 9.77583 2.31501 10.0514 2.18919 10.355C2.06338 10.6586 1.99907 10.9841 2.00001 11.3128V19.4985C2.00001 20.1619 2.26356 20.7982 2.73268 21.2673C3.2018 21.7365 3.83807 22 4.50151 22H19.5105C20.1739 22 20.8102 21.7365 21.2793 21.2673C21.7484 20.7982 22.012 20.1619 22.012 19.4985V11.3128C22.0129 10.9841 21.9486 10.6586 21.8228 10.355C21.697 10.0514 21.5122 9.77583 21.2791 9.54421ZM14.5075 20.3323H9.50451V17.052C9.50451 16.3886 9.76805 15.7523 10.2372 15.2832C10.7063 14.8141 11.3426 14.5505 12.006 14.5505C12.6694 14.5505 13.3057 14.8141 13.7748 15.2832C14.244 15.7523 14.5075 16.3886 14.5075 17.052V20.3323ZM20.3443 19.4985C20.3443 19.7196 20.2565 19.9317 20.1001 20.0881C19.9437 20.2445 19.7316 20.3323 19.5105 20.3323H16.1752V17.052C16.1752 15.9463 15.7359 14.8859 14.954 14.104C14.1722 13.3221 13.1117 12.8829 12.006 12.8829C10.9003 12.8829 9.83983 13.3221 9.05796 14.104C8.27609 14.8859 7.83684 15.9463 7.83684 17.052V20.3323H4.50151C4.28036 20.3323 4.06827 20.2445 3.9119 20.0881C3.75553 19.9317 3.66768 19.7196 3.66768 19.4985V11.3128C3.66845 11.0918 3.75622 10.88 3.91199 10.7232L10.2366 4.40029C10.7066 3.93245 11.3428 3.66981 12.006 3.66981C12.6692 3.66981 13.3054 3.93245 13.7754 4.40029L20.1 10.7257C20.2552 10.8819 20.3429 11.0927 20.3443 11.3128V19.4985Z" fill="#0A9D4E"/>
</g>
</svg>
