<svg width="24" height="24" viewBox="0 0 24 24" fill="none" xmlns="http://www.w3.org/2000/svg">
<rect width="24" height="24" rx="8" fill="white"/>
<g clip-path="url(#clip0_2317_9522)">
<path d="M12 5C10.6155 5 9.26216 5.41054 8.11101 6.17971C6.95987 6.94888 6.06266 8.04213 5.53285 9.32122C5.00303 10.6003 4.86441 12.0078 5.13451 13.3656C5.4046 14.7235 6.07129 15.9708 7.05026 16.9497C8.02922 17.9287 9.2765 18.5954 10.6344 18.8655C11.9922 19.1356 13.3997 18.997 14.6788 18.4672C15.9579 17.9373 17.0511 17.0401 17.8203 15.889C18.5895 14.7378 19 13.3845 19 12C18.998 10.1441 18.2599 8.36479 16.9475 7.05247C15.6352 5.74015 13.8559 5.00201 12 5V5ZM12 17.8333C10.8463 17.8333 9.71846 17.4912 8.75918 16.8502C7.79989 16.2093 7.05222 15.2982 6.61071 14.2323C6.16919 13.1664 6.05368 11.9935 6.27876 10.862C6.50384 9.73042 7.05941 8.69102 7.87521 7.87521C8.69102 7.0594 9.73042 6.50383 10.862 6.27875C11.9935 6.05367 13.1664 6.16919 14.2323 6.6107C15.2982 7.05221 16.2093 7.79989 16.8502 8.75917C17.4912 9.71846 17.8333 10.8463 17.8333 12C17.8316 13.5466 17.2165 15.0293 16.1229 16.1229C15.0293 17.2165 13.5466 17.8316 12 17.8333Z" fill="#1E2125"/>
<path d="M12.0003 7.91675C11.8456 7.91675 11.6972 7.97821 11.5878 8.0876C11.4785 8.197 11.417 8.34537 11.417 8.50008V13.1667C11.417 13.3215 11.4785 13.4698 11.5878 13.5792C11.6972 13.6886 11.8456 13.7501 12.0003 13.7501C12.155 13.7501 12.3034 13.6886 12.4128 13.5792C12.5222 13.4698 12.5837 13.3215 12.5837 13.1667V8.50008C12.5837 8.34537 12.5222 8.197 12.4128 8.0876C12.3034 7.97821 12.155 7.91675 12.0003 7.91675Z" fill="#1E2125"/>
<path d="M12.5837 15.5001C12.5837 15.1779 12.3225 14.9167 12.0003 14.9167C11.6782 14.9167 11.417 15.1779 11.417 15.5001C11.417 15.8223 11.6782 16.0834 12.0003 16.0834C12.3225 16.0834 12.5837 15.8223 12.5837 15.5001Z" fill="#1E2125"/>
</g>
<defs>
<clipPath id="clip0_2317_9522">
<rect width="14" height="14" fill="white" transform="translate(5 5)"/>
</clipPath>
</defs>
</svg>
