<svg width="25" height="24" viewBox="0 0 25 24" fill="none" xmlns="http://www.w3.org/2000/svg">
<g id="fi-rr-key">
<path id="Vector" d="M9.43613 22C8.00243 21.9991 6.61744 21.4799 5.53673 20.5381C4.45602 19.5964 3.75252 18.2958 3.55605 16.8762C3.35958 15.4566 3.6834 14.0139 4.46774 12.8142C5.25209 11.6146 6.44404 10.739 7.82364 10.3491C8.8264 10.062 9.88779 10.0489 10.8973 10.3111L17.1604 4.05214C17.4929 3.71749 17.8885 3.45216 18.3244 3.27155C18.7603 3.09094 19.2277 2.99865 19.6995 3.00001C20.4421 3.00064 21.154 3.29577 21.6791 3.82061C22.2041 4.34545 22.4994 5.05711 22.5 5.79935C22.5012 6.27101 22.4089 6.73824 22.2284 7.17403C22.0478 7.60981 21.7827 8.0055 21.4482 8.33822L20.916 8.87022C20.6182 9.16586 20.2158 9.33226 19.7961 9.33334H18.54V10.125C18.54 10.5449 18.3732 10.9477 18.0761 11.2446C17.7791 11.5415 17.3762 11.7083 16.9561 11.7083H16.1641V12.9639C16.1646 13.1719 16.1239 13.378 16.0442 13.5701C15.9646 13.7623 15.8476 13.9367 15.7 14.0833L15.1852 14.5979C15.4489 15.6066 15.436 16.6676 15.148 17.6696C14.8238 18.8112 14.1661 19.8301 13.2592 20.5958C12.3522 21.3614 11.2372 21.8391 10.057 21.9675C9.85077 21.989 9.64352 21.9998 9.43613 22ZM9.43613 11.7083C8.62525 11.7076 7.83025 11.933 7.14062 12.3594C6.45098 12.7858 5.8941 13.3961 5.53265 14.1216C5.1712 14.8472 5.01954 15.6592 5.09474 16.4663C5.16993 17.2733 5.469 18.0434 5.95828 18.6898C6.44756 19.3361 7.10761 19.8332 7.86415 20.1249C8.62069 20.4166 9.44368 20.4915 10.2405 20.341C11.0372 20.1905 11.7762 19.8208 12.3741 19.2733C12.9721 18.7258 13.4053 18.0223 13.625 17.2421C13.8721 16.3843 13.8444 15.4708 13.5458 14.6296C13.497 14.4891 13.4889 14.3377 13.5222 14.1928C13.5555 14.0479 13.629 13.9153 13.7343 13.8102L14.5801 12.9639V11.7083C14.5801 11.2884 14.747 10.8857 15.044 10.5888C15.3411 10.2918 15.744 10.125 16.1641 10.125H16.9561V9.33334C16.9561 8.91342 17.1229 8.51069 17.42 8.21376C17.7171 7.91683 18.1199 7.75001 18.54 7.75001H19.7961L20.3284 7.21801C20.5152 7.03209 20.6634 6.81099 20.7643 6.56748C20.8651 6.32398 20.9167 6.0629 20.916 5.79935C20.9158 5.47704 20.7877 5.16799 20.5598 4.94002C20.3318 4.71204 20.0227 4.58377 19.7003 4.58335C19.4365 4.5827 19.1751 4.63435 18.9314 4.73532C18.6876 4.83628 18.4663 4.98455 18.2803 5.17155L11.6822 11.7661C11.5769 11.8713 11.4441 11.9447 11.299 11.9779C11.1538 12.0111 11.0023 12.0027 10.8617 11.9538C10.4024 11.7921 9.9191 11.7091 9.43217 11.7083H9.43613ZM7.45219 17.25C7.45219 17.4066 7.49864 17.5596 7.58567 17.6898C7.67269 17.82 7.79639 17.9215 7.9411 17.9814C8.08582 18.0413 8.24506 18.057 8.39869 18.0265C8.55232 17.9959 8.69344 17.9205 8.8042 17.8098C8.91497 17.6991 8.9904 17.558 9.02095 17.4045C9.05151 17.2509 9.03583 17.0917 8.97589 16.947C8.91594 16.8024 8.81443 16.6787 8.68419 16.5918C8.55395 16.5048 8.40082 16.4583 8.24418 16.4583C8.03413 16.4583 7.83269 16.5417 7.68416 16.6902C7.53564 16.8387 7.45219 17.04 7.45219 17.25Z" fill="#374957"/>
</g>
</svg>
