<svg width="14" height="15" viewBox="0 0 14 15" fill="none" xmlns="http://www.w3.org/2000/svg">
<g id="Location">
<path id="Vector" fill-rule="evenodd" clip-rule="evenodd" d="M4.22949 6.33333C4.22949 4.80305 5.47004 3.5625 7.00033 3.5625C8.53059 3.5625 9.77116 4.80305 9.77116 6.33333C9.77116 7.86365 8.53059 9.10417 7.00033 9.10417C5.47004 9.10417 4.22949 7.86365 4.22949 6.33333ZM7.00033 4.4375C5.95331 4.4375 5.10449 5.28629 5.10449 6.33333C5.10449 7.38036 5.95331 8.22917 7.00033 8.22917C8.04736 8.22917 8.89616 7.38036 8.89616 6.33333C8.89616 5.28629 8.04736 4.4375 7.00033 4.4375Z" fill="#0A9D4E"/>
<path id="Vector_2" fill-rule="evenodd" clip-rule="evenodd" d="M2.05573 5.66645C2.26242 3.15893 4.35784 1.22913 6.87385 1.22913H7.12585C9.64189 1.22913 11.7373 3.15893 11.944 5.66645C12.055 7.01346 11.6389 8.35098 10.7834 9.39731L7.98744 12.8167C7.47702 13.4409 6.52269 13.4409 6.01227 12.8167L3.21633 9.39731C2.36078 8.35098 1.9447 7.01346 2.05573 5.66645ZM6.87385 2.10413C4.81322 2.10413 3.09705 3.68466 2.92777 5.73834C2.83536 6.8594 3.18166 7.97258 3.89371 8.84343L6.68964 12.2628C6.85 12.4589 7.14971 12.4589 7.31007 12.2628L10.106 8.84343C10.8181 7.97258 11.1643 6.8594 11.0719 5.73834C10.9026 3.68466 9.18648 2.10413 7.12585 2.10413H6.87385Z" fill="#0A9D4E"/>
</g>
</svg>
