<svg width="24" height="24" viewBox="0 0 24 24" fill="none" xmlns="http://www.w3.org/2000/svg">
<g id="fi-rr-sign-out-alt">
<path id="Union" fill-rule="evenodd" clip-rule="evenodd" d="M10.8813 15.0185C11.0532 14.8466 11.2863 14.75 11.5294 14.75C11.7725 14.75 12.0057 14.8466 12.1776 15.0185C12.3495 15.1904 12.4461 15.4236 12.4461 15.6667V18.4167C12.4446 19.6318 11.9613 20.7967 11.1021 21.656C10.2428 22.5152 9.07789 22.9985 7.86277 23H5.5931C4.37797 22.9985 3.21303 22.5152 2.3538 21.656C1.49457 20.7967 1.01122 19.6318 1.00977 18.4167V5.58333C1.01122 4.3682 1.49457 3.20326 2.3538 2.34403C3.21303 1.48481 4.37797 1.00146 5.5931 1H7.86277C9.07789 1.00146 10.2428 1.48481 11.1021 2.34403C11.9613 3.20326 12.4446 4.3682 12.4461 5.58333V8.33333C12.4461 8.57645 12.3495 8.80961 12.1776 8.98151C12.0057 9.15342 11.7725 9.25 11.5294 9.25C11.2863 9.25 11.0532 9.15342 10.8813 8.98151C10.7093 8.80961 10.6128 8.57645 10.6128 8.33333V5.58333C10.6128 4.85399 10.323 4.15451 9.80731 3.63879C9.29158 3.12306 8.59211 2.83333 7.86277 2.83333H5.5931C4.86375 2.83333 4.16428 3.12306 3.64856 3.63879C3.13283 4.15451 2.8431 4.85399 2.8431 5.58333V18.4167C2.8431 19.146 3.13283 19.8455 3.64856 20.3612C4.16428 20.8769 4.86375 21.1667 5.5931 21.1667H7.86277C8.59211 21.1667 9.29158 20.8769 9.80731 20.3612C10.323 19.8455 10.6128 19.146 10.6128 18.4167V15.6667C10.6128 15.4236 10.7093 15.1904 10.8813 15.0185ZM17.7688 5.85211L21.9726 10.0559C22.4879 10.5719 22.7772 11.2714 22.7769 12.0006C22.7765 12.7298 22.4866 13.429 21.9708 13.9444L17.7669 18.1483C17.6824 18.2358 17.5812 18.3057 17.4694 18.3537C17.3576 18.4017 17.2373 18.427 17.1156 18.4281C16.9939 18.4291 16.8731 18.406 16.7605 18.3599C16.6478 18.3138 16.5455 18.2457 16.4594 18.1596C16.3734 18.0736 16.3053 17.9712 16.2592 17.8586C16.2131 17.7459 16.1899 17.6252 16.191 17.5035C16.192 17.3818 16.2173 17.2615 16.2654 17.1497C16.3134 17.0378 16.3832 16.9367 16.4708 16.8521L20.4335 12.8884L6.5112 12.9169C6.26808 12.9169 6.03493 12.8203 5.86302 12.6484C5.69111 12.4765 5.59453 12.2433 5.59453 12.0002C5.59453 11.7571 5.69111 11.5239 5.86302 11.352C6.03493 11.1801 6.26808 11.0835 6.5112 11.0835L20.3794 11.056L16.4726 7.14827C16.3851 7.06372 16.3152 6.96257 16.2672 6.85073C16.2191 6.73889 16.1939 6.61861 16.1928 6.49689C16.1917 6.37518 16.2149 6.25447 16.261 6.14182C16.3071 6.02916 16.3752 5.92681 16.4613 5.84075C16.5473 5.75468 16.6497 5.68661 16.7623 5.64052C16.875 5.59443 16.9957 5.57124 17.1174 5.5723C17.2391 5.57335 17.3594 5.59864 17.4712 5.64668C17.5831 5.69472 17.6842 5.76456 17.7688 5.85211Z" fill="#374957"/>
</g>
</svg>
