<svg width="29" height="28" viewBox="0 0 29 28" fill="none" xmlns="http://www.w3.org/2000/svg">
<g id="Frame 135">
<g id="Group">
<path id="Vector" d="M18.0549 16.4099C17.8297 16.3122 17.5851 16.2693 17.3396 16.2693H11.3853C11.1399 16.2693 10.8953 16.3122 10.6701 16.4099C8.00251 17.5669 6.17285 19.9371 6.17285 22.6747V24.0001C6.17285 25.1047 7.06828 26.0001 8.17285 26.0001H20.5522C21.6567 26.0001 22.5522 25.1047 22.5522 24.0001V22.6749C22.5522 19.9371 20.7225 17.5671 18.0549 16.4099Z" fill="#2C2C2C"/>
<path id="Vector_2" d="M17.7114 16.2693C17.5256 17.0168 17.0949 17.6806 16.4881 18.155C15.8813 18.6295 15.1332 18.8872 14.3629 18.8872C13.5926 18.8872 12.8445 18.6295 12.2377 18.155C11.6309 17.6806 11.2003 17.0168 11.0144 16.2693C10.1124 16.612 9.27659 17.1084 8.54395 17.7363V25.9999H20.1819V17.7363C19.4492 17.1084 18.6134 16.612 17.7114 16.2693Z" fill="#3D3D3D"/>
<path id="Vector_3" d="M13.7158 17.3794H15.0089V23.8449H13.7158V17.3794Z" fill="#2C2C2C"/>
<path id="Vector_4" d="M17.7119 16.2673C17.5266 17.0154 17.0961 17.6799 16.4891 18.1549C15.8821 18.6298 15.1335 18.8878 14.3628 18.8878C13.5921 18.8878 12.8436 18.6298 12.2366 18.1549C11.6296 17.6799 11.199 17.0154 11.0137 16.2673C13.1719 15.4513 15.5538 15.4513 17.7119 16.2673Z" fill="#FDC8A8"/>
<path id="Vector_5" d="M14.3628 17.3792C13.9055 17.3792 13.467 17.1975 13.1437 16.8742C12.8203 16.5509 12.6387 16.1123 12.6387 15.655V13.9309H16.0869V15.655C16.0869 16.1123 15.9053 16.5509 15.582 16.8742C15.2586 17.1975 14.8201 17.3792 14.3628 17.3792Z" fill="#EDB494"/>
<path id="Vector_6" d="M14.363 20.3966C14.482 20.3966 14.5785 20.3001 14.5785 20.1811C14.5785 20.0621 14.482 19.9656 14.363 19.9656C14.244 19.9656 14.1475 20.0621 14.1475 20.1811C14.1475 20.3001 14.244 20.3966 14.363 20.3966Z" fill="#EDEDED"/>
<path id="Vector_7" d="M14.363 22.9828C14.482 22.9828 14.5785 22.8863 14.5785 22.7673C14.5785 22.6482 14.482 22.5518 14.363 22.5518C14.244 22.5518 14.1475 22.6482 14.1475 22.7673C14.1475 22.8863 14.244 22.9828 14.363 22.9828Z" fill="#EDEDED"/>
<path id="Vector_8" d="M14.3629 12.8535C12.8196 12.8535 11.3395 12.2404 10.2483 11.1492C9.15701 10.0579 8.54395 8.57783 8.54395 7.03454C8.54395 5.49125 9.15701 4.01118 10.2483 2.91991C11.3395 1.82864 12.8196 1.21558 14.3629 1.21558C15.9062 1.21558 17.3863 1.82864 18.4775 2.91991C19.5688 4.01118 20.1819 5.49125 20.1819 7.03454C20.1819 8.57783 19.5688 10.0579 18.4775 11.1492C17.3863 12.2404 15.9062 12.8535 14.3629 12.8535Z" fill="#2C2C2C"/>
<path id="Vector_9" d="M18.5655 11.3987H19.2121C19.5547 11.3977 19.883 11.2611 20.1253 11.0188C20.3676 10.7766 20.5042 10.4482 20.5052 10.1056C20.5042 9.76297 20.3676 9.43465 20.1253 9.19237C19.883 8.95009 19.5547 8.81352 19.2121 8.8125H18.5655C18.2229 8.81352 17.8946 8.95009 17.6523 9.19237C17.41 9.43465 17.2734 9.76297 17.2724 10.1056C17.2734 10.4482 17.41 10.7766 17.6523 11.0188C17.8946 11.2611 18.2229 11.3977 18.5655 11.3987ZM10.1604 11.3987H9.51381C9.17117 11.3977 8.84286 11.2611 8.60057 11.0188C8.35829 10.7766 8.22173 10.4482 8.2207 10.1056C8.22173 9.76297 8.35829 9.43465 8.60057 9.19237C8.84286 8.95009 9.17117 8.81352 9.51381 8.8125H10.1604C10.503 8.81352 10.8313 8.95009 11.0736 9.19237C11.3159 9.43465 11.4524 9.76297 11.4535 10.1056C11.4524 10.4482 11.3159 10.7766 11.0736 11.0188C10.8313 11.2611 10.503 11.3977 10.1604 11.3987Z" fill="#EDB494"/>
<path id="Vector_10" d="M14.3625 16.0863C13.1061 16.0826 11.9023 15.5819 11.0139 14.6935C10.1255 13.8051 9.62479 12.6013 9.62109 11.3449V8.75871C9.62109 7.50122 10.1206 6.29523 11.0098 5.40605C11.899 4.51687 13.105 4.01733 14.3625 4.01733C15.6188 4.02103 16.8227 4.52175 17.7111 5.41013C18.5994 6.29851 19.1002 7.50236 19.1038 8.75871V11.3449C19.1002 12.6013 18.5994 13.8051 17.7111 14.6935C16.8227 15.5819 15.6188 16.0826 14.3625 16.0863Z" fill="#FDC8A8"/>
<g id="Group_2">
<path id="Vector_11" d="M17.9599 7.83109L16.0498 8.16795C15.9654 8.18262 15.8786 8.16326 15.8084 8.11411C15.7382 8.06496 15.6903 7.99001 15.6752 7.90566C15.6606 7.82124 15.6799 7.73444 15.7291 7.66425C15.7782 7.59405 15.8532 7.54618 15.9375 7.53109L17.8477 7.19424C17.9321 7.17957 18.0189 7.19893 18.0891 7.24808C18.1593 7.29723 18.2071 7.37217 18.2222 7.45652C18.2369 7.54095 18.2175 7.62775 18.1684 7.69794C18.1192 7.76813 18.0443 7.81601 17.9599 7.83109ZM12.6752 8.16795L10.7651 7.83109C10.6808 7.81601 10.6058 7.76813 10.5567 7.69794C10.5075 7.62775 10.4882 7.54095 10.5028 7.45652C10.5179 7.37217 10.5658 7.29723 10.636 7.24808C10.7062 7.19893 10.793 7.17957 10.8774 7.19424L12.7875 7.53109C12.8719 7.54618 12.9468 7.59405 12.996 7.66425C13.0451 7.73444 13.0645 7.82124 13.0498 7.90566C13.0347 7.99001 12.9869 8.06496 12.9167 8.11411C12.8465 8.16326 12.7597 8.18262 12.6752 8.16795Z" fill="#2C2C2C"/>
<path id="Vector_12" d="M11.7764 10.2672C12.1335 10.2672 12.423 9.97775 12.423 9.62067C12.423 9.26359 12.1335 8.97412 11.7764 8.97412C11.4194 8.97412 11.1299 9.26359 11.1299 9.62067C11.1299 9.97775 11.4194 10.2672 11.7764 10.2672Z" fill="#2C2C2C"/>
<path id="Vector_13" d="M16.9493 10.2672C17.3064 10.2672 17.5958 9.97775 17.5958 9.62067C17.5958 9.26359 17.3064 8.97412 16.9493 8.97412C16.5922 8.97412 16.3027 9.26359 16.3027 9.62067C16.3027 9.97775 16.5922 10.2672 16.9493 10.2672Z" fill="#2C2C2C"/>
<path id="Vector_14" d="M14.9622 14.7933H13.7633C12.9722 14.7983 12.1946 14.5894 11.5126 14.1885C10.8306 13.7876 10.2697 13.2098 9.88938 12.5161C9.78905 12.3416 9.71292 12.1543 9.66309 11.9592C9.81186 13.1005 10.3708 14.1486 11.2356 14.908C12.1005 15.6674 13.2121 16.0862 14.363 16.0862C15.5139 16.0862 16.6255 15.6674 17.4903 14.908C18.3551 14.1486 18.9141 13.1005 19.0629 11.9592C19.013 12.1543 18.9369 12.3416 18.8366 12.5161C18.4562 13.2098 17.8952 13.7878 17.2131 14.1886C16.531 14.5895 15.7534 14.7984 14.9622 14.7933Z" fill="#2C2C2C"/>
</g>
<path id="Vector_15" d="M15.6555 12.8535H13.0693C13.0693 13.1965 13.2056 13.5254 13.4481 13.7679C13.6906 14.0104 14.0195 14.1466 14.3624 14.1466C14.7054 14.1466 15.0343 14.0104 15.2768 13.7679C15.5193 13.5254 15.6555 13.1965 15.6555 12.8535Z" fill="#E62626"/>
<path id="Vector_16" d="M14.3627 11.9915C14.2484 11.9915 14.1387 11.9461 14.0579 11.8652C13.9771 11.7844 13.9316 11.6748 13.9316 11.5604V10.6984C13.9316 10.5841 13.9771 10.4744 14.0579 10.3936C14.1387 10.3127 14.2484 10.2673 14.3627 10.2673C14.477 10.2673 14.5866 10.3127 14.6675 10.3936C14.7483 10.4744 14.7937 10.5841 14.7937 10.6984V11.5604C14.7937 11.6748 14.7483 11.7844 14.6675 11.8652C14.5866 11.9461 14.477 11.9915 14.3627 11.9915Z" fill="#EDB494"/>
<path id="Vector_17" d="M12.2077 1H16.5181C17.4898 1 18.4217 1.38601 19.1088 2.0731C19.7959 2.76019 20.1819 3.69209 20.1819 4.66379V6.81896C18.7716 5.97282 17.1579 5.52586 15.5133 5.52586H13.2125C11.5679 5.52586 9.95418 5.97282 8.54395 6.81896V4.66379C8.54395 3.69209 8.92995 2.76019 9.61704 2.0731C10.3041 1.38601 11.236 1 12.2077 1Z" fill="#EDEDED"/>
<path id="Vector_18" d="M16.5176 20.8276H19.1038V21.4742H16.5176V20.8276Z" fill="#2C2C2C"/>
</g>
</g>
</svg>
