<svg width="24" height="25" viewBox="0 0 24 25" fill="none" xmlns="http://www.w3.org/2000/svg">
<g id="fi-rr-moon">
<path id="Vector" d="M14.6759 23.5C13.1816 23.4988 11.7041 23.1747 10.3388 22.5485C8.97351 21.9224 7.75076 21.0081 6.74945 19.8647C5.74058 18.7199 4.9794 17.3671 4.51642 15.896C4.05343 14.4248 3.89923 12.869 4.06403 11.3318C4.32973 8.93941 5.34218 6.70075 6.94895 4.95285C8.55573 3.20496 10.6699 2.04243 12.973 1.6403C14.4619 1.40324 15.9814 1.46706 17.4467 1.82821C17.8303 1.92983 18.1807 2.13528 18.4615 2.42332C18.7423 2.71136 18.9433 3.07151 19.0438 3.46652C19.1443 3.86152 19.1405 4.27702 19.0329 4.67003C18.9254 5.06304 18.7179 5.41927 18.4319 5.70187C14.3771 9.52053 14.7292 15.4584 19.1495 18.9104C19.462 19.1633 19.7031 19.4979 19.8477 19.8794C19.9922 20.2609 20.0349 20.6753 19.9714 21.0796C19.9078 21.4839 19.7403 21.8633 19.4863 22.1782C19.2323 22.4931 18.9011 22.7321 18.527 22.8703C17.2837 23.289 15.9838 23.5016 14.6759 23.5ZM14.7435 3.33423C14.2442 3.33299 13.7456 3.37191 13.2522 3.45064C11.3347 3.78494 9.57435 4.75229 8.23622 6.20705C6.89809 7.66182 6.05459 9.52528 5.83267 11.5169C5.69396 12.8003 5.8218 14.0993 6.20769 15.3278C6.59358 16.5562 7.2287 17.686 8.07082 18.6419C9.30356 19.9982 10.8916 20.9566 12.6424 21.4008C14.3932 21.8449 16.2313 21.7558 17.9339 21.1443C18.0073 21.1159 18.0722 21.0681 18.1218 21.0056C18.1715 20.9431 18.2043 20.8682 18.2168 20.7885C18.2294 20.7087 18.2213 20.627 18.1933 20.5515C18.1653 20.476 18.1185 20.4095 18.0575 20.3587C12.7854 16.2541 12.3666 8.91373 17.2146 4.36451C17.2702 4.31127 17.3103 4.24309 17.3304 4.16763C17.3505 4.09217 17.3498 4.01243 17.3284 3.93737C17.3099 3.8577 17.2706 3.78475 17.2149 3.72643C17.1591 3.6681 17.0889 3.62662 17.0118 3.60646C16.2691 3.42179 15.5075 3.33038 14.7435 3.33423Z" fill="#B5B9BC"/>
</g>
</svg>
