<svg width="122" height="107" viewBox="0 0 122 107" fill="none" xmlns="http://www.w3.org/2000/svg">
<g id="Group">
<g id="1">
<path id="Vector" d="M76.6546 107.654V103.366C76.6546 102.607 76.3532 101.88 75.8169 101.344C75.2805 100.808 74.5531 100.507 73.7946 100.507C73.0361 100.507 72.3086 100.808 71.7722 101.344C71.2359 101.88 70.9346 102.607 70.9346 103.366V107.654H76.6546Z" fill="#0A9D4E"/>
<path id="Vector_2" d="M69.0043 31.8054C70.0625 29.2752 72.0502 24.2577 72.1932 22.0563C72.3076 20.298 70.9062 16.8815 71.0492 15.1232C71.153 13.8019 71.9668 11.3256 72.7791 9.12169C73.3899 7.46432 75.6297 7.46432 76.2405 9.12169C77.0528 11.3256 77.8666 13.8019 77.9704 15.1232C78.1134 16.8815 76.712 20.298 76.8264 22.0563C76.9694 24.2577 78.9571 29.2752 80.0153 31.8054H69.0043ZM111.761 84.7822H37.2583C37.0867 78.9356 37.7016 54.7773 58.4223 42.3836C62.0768 40.058 65.5736 37.4936 68.8899 34.7072H80.0868C83.3272 37.6079 86.848 40.1793 90.5973 42.3836C111.318 54.7773 111.933 78.9356 111.761 84.7822ZM31.6098 96.2182V89.0707C31.6098 88.6916 31.7605 88.328 32.0287 88.0599C32.2968 87.7918 32.6606 87.6412 33.0398 87.6412H115.98C116.359 87.6412 116.723 87.7918 116.991 88.0599C117.259 88.328 117.41 88.6916 117.41 89.0707V96.2182H31.6098ZM121.7 97.6476V107.654H79.5148V103.366C79.5148 101.849 78.9122 100.395 77.8395 99.3224C76.7668 98.2501 75.3119 97.6476 73.7948 97.6476C72.2778 97.6476 70.8229 98.2501 69.7502 99.3224C68.6775 100.395 68.0748 101.849 68.0748 103.366V107.654H27.3198V97.6476C27.3198 97.2685 27.4705 96.9049 27.7387 96.6368C28.0068 96.3688 28.3706 96.2182 28.7498 96.2182H120.27C120.649 96.2182 121.013 96.3688 121.281 96.6368C121.549 96.9049 121.7 97.2685 121.7 97.6476Z" fill="#0A9D4E"/>
<path id="Union" fill-rule="evenodd" clip-rule="evenodd" d="M37.18 39.2844C37.1798 40.0426 36.8784 40.7697 36.342 41.3057L32.89 44.7565V66.1989H36.8225C35.4187 70.8464 34.5785 75.6458 34.32 80.4938C34.2199 82.2949 34.2199 83.7673 34.2485 84.7822H32.89C31.7533 84.7856 30.6641 85.2385 29.8603 86.042C29.0565 86.8455 28.6034 87.9344 28.6 89.0707V93.3592C27.4633 93.3626 26.3741 93.8155 25.5703 94.619C24.7665 95.4225 24.3134 96.5113 24.31 97.6476V107.654H7.15V80.4938L1.0725 75.6335C0.396111 75.0903 0.00143051 74.2712 0 73.4035V69.0578C0.00226402 68.3003 0.30431 67.5744 0.840176 67.0387C1.37604 66.5031 2.10218 66.2011 2.86 66.1989H10.01V44.7565L6.55798 41.3057C6.02159 40.7697 5.72016 40.0426 5.72 39.2844V36.1796C5.72 35.4213 6.02132 34.6942 6.55768 34.158C7.09403 33.6218 7.82148 33.3206 8.58 33.3206H11.44V26.1732C11.44 24.8591 11.6989 23.5579 12.202 22.3439C12.705 21.1298 13.4423 20.0267 14.3719 19.0976C15.3014 18.1684 16.4049 17.4313 17.6193 16.9284C18.4025 16.6042 19.2219 16.3814 20.0576 16.264C20.0197 16.1346 20 15.9994 20 15.8622V10.0554C19.6511 9.91547 19.3158 9.73925 19 9.52853C18.0994 8.92762 17.3974 8.07311 16.983 7.07317C16.5685 6.07323 16.4601 4.97284 16.6716 3.9113C16.8831 2.84977 17.4049 1.87484 18.171 1.10994C18.4344 0.837155 18.7954 0.680143 19.1746 0.673441C19.5538 0.666739 19.9202 0.810897 20.193 1.0742C20.4659 1.3375 20.623 1.69838 20.6297 2.07744C20.6364 2.45651 20.4922 2.82272 20.2288 3.0955L20.193 3.13123C19.7026 3.62144 19.4272 4.2863 19.4272 4.97956C19.4272 5.67282 19.7026 6.33768 20.193 6.82789C20.6834 7.3181 21.3485 7.5935 22.042 7.5935C22.7355 7.5935 23.4006 7.3181 23.891 6.82789C24.1544 6.55511 24.5154 6.3981 24.8946 6.3914C25.2738 6.3847 25.6402 6.52885 25.913 6.79215C26.1859 7.05546 26.343 7.41633 26.3497 7.7954C26.3564 8.17447 26.2122 8.54067 25.9488 8.81345L25.913 8.84919C25.4049 9.35742 24.8014 9.76035 24.1371 10.0348C23.7264 10.2046 23.2975 10.3231 22.86 10.3886V15.8622C22.86 15.9976 22.8408 16.1309 22.8039 16.2587C23.653 16.3746 24.4855 16.5992 25.2807 16.9284C26.4951 17.4313 27.5986 18.1684 28.5281 19.0976C29.4577 20.0267 30.195 21.1298 30.698 22.3439C31.2011 23.5579 31.46 24.8591 31.46 26.1732V33.3206H34.32C35.0785 33.3206 35.806 33.6218 36.3423 34.158C36.8787 34.6942 37.18 35.4213 37.18 36.1796V39.2844ZM22.88 66.1989H25.74V61.9104C25.74 60.773 25.288 59.6822 24.4835 58.878C23.679 58.0737 22.5878 57.6219 21.45 57.6219C20.3122 57.6219 19.221 58.0737 18.4165 58.878C17.612 59.6822 17.16 60.773 17.16 61.9104V66.1989H20.02V61.9104C20.02 61.5313 20.1707 61.1677 20.4388 60.8996C20.707 60.6315 21.0707 60.4809 21.45 60.4809C21.8293 60.4809 22.193 60.6315 22.4612 60.8996C22.7293 61.1677 22.88 61.5313 22.88 61.9104V66.1989Z" fill="#0A9D4E" fill-opacity="0.5"/>
</g>
</g>
</svg>
