<svg width="24" height="24" viewBox="0 0 24 24" fill="none" xmlns="http://www.w3.org/2000/svg">
<g id="fi-rr-book-alt">
<path id="Vector" d="M20.5 3.96889C20.0315 3.57716 19.4826 3.29338 18.8921 3.13769C18.3016 2.98201 17.684 2.95823 17.0833 3.06806L13.8983 3.64639C13.163 3.78143 12.4944 4.15974 12 4.72056C11.5043 4.15878 10.8338 3.78037 10.0967 3.64639L6.91667 3.06806C6.31596 2.95813 5.69844 2.9816 5.10781 3.13679C4.51718 3.29197 3.96789 3.57509 3.4988 3.9661C3.02972 4.35711 2.65232 4.84645 2.39332 5.39948C2.13432 5.95251 2.00004 6.55571 2 7.16639L2 16.1606C2.00005 17.1362 2.34248 18.0809 2.96761 18.83C3.59274 19.5791 4.46092 20.0851 5.42083 20.2597L10.6592 21.2122C11.5458 21.3733 12.4542 21.3733 13.3408 21.2122L18.5833 20.2597C19.5425 20.0842 20.4097 19.5779 21.034 18.8289C21.6583 18.0799 22.0001 17.1356 22 16.1606V7.16639C22.0004 6.55593 21.8662 5.95289 21.6069 5.40022C21.3476 4.84755 20.9697 4.35884 20.5 3.96889ZM11.1667 19.6064C11.0967 19.5964 11.0267 19.5847 10.9567 19.5722L5.71917 18.6206C5.14314 18.5158 4.62216 18.2121 4.24707 17.7625C3.87198 17.313 3.66658 16.746 3.66667 16.1606V7.16639C3.66667 6.50335 3.93006 5.86746 4.3989 5.39862C4.86774 4.92978 5.50363 4.66639 6.16667 4.66639C6.31757 4.66675 6.46816 4.68041 6.61667 4.70722L9.8 5.29056C10.183 5.36064 10.5294 5.56262 10.779 5.86143C11.0287 6.16024 11.1658 6.53702 11.1667 6.92639V19.6064ZM20.3333 16.1606C20.3334 16.746 20.128 17.313 19.7529 17.7625C19.3778 18.2121 18.8569 18.5158 18.2808 18.6206L13.0433 19.5722C12.9733 19.5847 12.9033 19.5964 12.8333 19.6064V6.92639C12.8333 6.53607 12.9702 6.1581 13.2203 5.8584C13.4703 5.55869 13.8176 5.35626 14.2017 5.28639L17.3858 4.70306C17.7464 4.63745 18.117 4.65193 18.4714 4.74548C18.8258 4.83903 19.1553 5.00936 19.4365 5.24439C19.7177 5.47943 19.9439 5.77343 20.0988 6.10557C20.2538 6.43772 20.3339 6.79987 20.3333 7.16639V16.1606Z" fill="#6D7379"/>
</g>
</svg>
