<svg width="20" height="21" viewBox="0 0 20 21" fill="none" xmlns="http://www.w3.org/2000/svg">
<path d="M19.8314 11.9509L18.0845 5.97009C17.5725 4.21795 16.4596 2.67896 14.9229 1.59775C13.3861 0.516532 11.5137 -0.0448616 9.60314 0.00280303C7.6926 0.0504677 5.85363 0.704455 4.37854 1.86081C2.90345 3.01717 1.87689 4.60953 1.46203 6.38479L0.109543 12.1722C-0.0398507 12.8117 -0.0363967 13.475 0.11965 14.1131C0.275698 14.7511 0.580353 15.3477 1.01112 15.8587C1.4419 16.3697 1.98778 16.7821 2.60849 17.0655C3.22919 17.3489 3.90885 17.496 4.59731 17.496H5.62156C5.83258 18.4849 6.39639 19.374 7.21746 20.0126C8.03852 20.6511 9.06635 21 10.1268 21C11.1872 21 12.215 20.6511 13.0361 20.0126C13.8572 19.374 14.421 18.4849 14.632 17.496H15.4025C16.1112 17.4961 16.8103 17.3402 17.4453 17.0406C18.0802 16.741 18.6337 16.3057 19.0626 15.7688C19.4915 15.232 19.7841 14.608 19.9177 13.9457C20.0512 13.2834 20.022 12.6007 19.8323 11.9509H19.8314ZM10.1268 19.2458C9.55834 19.2436 9.0045 19.0743 8.54104 18.761C8.07758 18.4478 7.72714 18.006 7.53766 17.496H12.7159C12.5264 18.006 12.176 18.4478 11.7125 18.761C11.2491 19.0743 10.6952 19.2436 10.1268 19.2458ZM17.5981 14.7095C17.3419 15.0329 17.01 15.295 16.6287 15.475C16.2474 15.6549 15.8272 15.7478 15.4016 15.7462H4.59731C4.18428 15.7461 3.77654 15.6578 3.40419 15.4878C3.03184 15.3177 2.70438 15.0702 2.44598 14.7636C2.18757 14.457 2.00483 14.0991 1.91123 13.7163C1.81764 13.3335 1.81557 12.9356 1.9052 12.552L3.25677 6.76362C3.58257 5.36921 4.38888 4.11845 5.5475 3.21017C6.70613 2.30189 8.15058 1.78822 9.65123 1.75081C11.1519 1.7134 12.6226 2.1544 13.8296 3.00371C15.0366 3.85302 15.9107 5.06189 16.3127 6.43816L18.0597 12.419C18.1751 12.8086 18.1935 13.2185 18.1134 13.6161C18.0332 14.0137 17.8568 14.3881 17.5981 14.7095Z" fill="#B5B9BC"/>
</svg>
