<svg width="16" height="17" viewBox="0 0 16 17" fill="none" xmlns="http://www.w3.org/2000/svg">
<path d="M3.5 0.5C2.57174 0.5 1.6815 0.868749 1.02513 1.52513C0.368749 2.1815 0 3.07174 0 4V13C1.95616e-08 13.9283 0.368749 14.8185 1.02513 15.4749C1.6815 16.1313 2.57174 16.5 3.5 16.5C4.42826 16.5 5.3185 16.1313 5.97487 15.4749C6.63125 14.8185 7 13.9283 7 13V4C7 3.07174 6.63125 2.1815 5.97487 1.52513C5.3185 0.868749 4.42826 0.5 3.5 0.5Z" fill="#0A9D4E"/>
<path d="M12.5002 0.5C11.5719 0.5 10.6817 0.868749 10.0253 1.52513C9.3689 2.1815 9.00015 3.07174 9.00015 4V13C9.00015 13.9283 9.3689 14.8185 10.0253 15.4749C10.6817 16.1313 11.5719 16.5 12.5002 16.5C13.4284 16.5 14.3186 16.1313 14.975 15.4749C15.6314 14.8185 16.0002 13.9283 16.0002 13V4C16.0002 3.07174 15.6314 2.1815 14.975 1.52513C14.3186 0.868749 13.4284 0.5 12.5002 0.5Z" fill="#0A9D4E"/>
</svg>
