<svg width="30" height="30" viewBox="0 0 30 30" fill="none" xmlns="http://www.w3.org/2000/svg">
<g id="Frame 146">
<g id="1">
<circle id="Ellipse 116" cx="14.9981" cy="15.1914" r="6.09573" fill="#FFBC42"/>
<rect id="Rectangle 157" x="13.3066" y="3" width="3.38652" height="4.74112" rx="1.69326" fill="#FFBC42"/>
<rect id="Rectangle 161" x="13.3066" y="22.3032" width="3.38652" height="4.74112" rx="1.69326" fill="#FFBC42"/>
<rect id="Rectangle 158" x="21.9844" y="5.36945" width="3.38652" height="4.74112" rx="1.69326" transform="rotate(40.8397 21.9844 5.36945)" fill="#FFBC42"/>
<rect id="Rectangle 162" width="3.38652" height="4.74112" rx="1.69326" transform="matrix(-0.756542 0.653945 0.653945 0.756542 8.01562 5.37061)" fill="#FFBC42"/>
<rect id="Rectangle 160" width="3.38652" height="4.74112" rx="1.69326" transform="matrix(0.756542 -0.653945 -0.653945 -0.756542 22.1641 24.7181)" fill="#FFBC42"/>
<rect id="Rectangle 163" x="7.83594" y="24.7192" width="3.38652" height="4.74112" rx="1.69326" transform="rotate(-139.16 7.83594 24.7192)" fill="#FFBC42"/>
<rect id="Rectangle 159" x="26.8535" y="13.1595" width="3.38652" height="4.74112" rx="1.69326" transform="rotate(90 26.8535 13.1595)" fill="#FFBC42"/>
<rect id="Rectangle 164" width="3.38652" height="4.74112" rx="1.69326" transform="matrix(4.37114e-08 1 1 -4.37114e-08 3.14648 13.1607)" fill="#FFBC42"/>
</g>
</g>
</svg>
