<svg width="24" height="24" viewBox="0 0 24 24" fill="none" xmlns="http://www.w3.org/2000/svg">
<g id="fi-rr-user">
<g id="Union">
<path fill-rule="evenodd" clip-rule="evenodd" d="M15.2779 11.1571C14.4556 11.7065 13.4889 11.9997 12.5 11.9997C11.1743 11.9984 9.90332 11.4712 8.96593 10.5338C8.02853 9.59647 7.50132 8.3255 7.5 6.99986C7.5 6.01098 7.79324 5.04431 8.34265 4.22209C8.89206 3.39987 9.67295 2.75902 10.5866 2.38059C11.5002 2.00217 12.5055 1.90315 13.4755 2.09607C14.4454 2.28899 15.3363 2.76518 16.0355 3.46443C16.7348 4.16367 17.211 5.05456 17.4039 6.02444C17.5969 6.99432 17.4978 7.99962 17.1194 8.91323C16.741 9.82683 16.1001 10.6077 15.2779 11.1571ZM14.3519 4.22837C13.8037 3.86211 13.1593 3.66662 12.5 3.66662C11.6159 3.66662 10.7681 4.0178 10.143 4.64291C9.51786 5.26801 9.16667 6.11583 9.16667 6.99986C9.16667 7.65911 9.36216 8.30356 9.72844 8.85171C10.0947 9.39986 10.6153 9.82709 11.2244 10.0794C11.8335 10.3317 12.5037 10.3977 13.1503 10.2691C13.7969 10.1404 14.3908 9.82298 14.857 9.35682C15.3232 8.89066 15.6407 8.29673 15.7693 7.65015C15.8979 7.00356 15.8319 6.33336 15.5796 5.72429C15.3273 5.11522 14.9001 4.59464 14.3519 4.22837Z" fill="#6D7379"/>
<path d="M7.19914 15.866C8.60518 14.46 10.5116 13.6691 12.5 13.6669C14.4884 13.6691 16.3948 14.46 17.8009 15.866C19.2069 17.272 19.9978 19.1783 20 21.1667C20 21.3877 19.9122 21.5997 19.7559 21.7559C19.5996 21.9122 19.3877 22 19.1667 22C18.9457 22 18.7337 21.9122 18.5774 21.7559C18.4211 21.5997 18.3333 21.3877 18.3333 21.1667C18.3333 19.6196 17.7188 18.1359 16.6248 17.042C15.5308 15.9481 14.0471 15.3335 12.5 15.3335C10.9529 15.3335 9.46917 15.9481 8.37521 17.042C7.28125 18.1359 6.66667 19.6196 6.66667 21.1667C6.66667 21.3877 6.57887 21.5997 6.42259 21.7559C6.26631 21.9122 6.05435 22 5.83333 22C5.61232 22 5.40036 21.9122 5.24408 21.7559C5.0878 21.5997 5 21.3877 5 21.1667C5.00221 19.1783 5.79309 17.272 7.19914 15.866Z" fill="#6D7379"/>
</g>
</g>
</svg>
