<svg width="41" height="40" viewBox="0 0 41 40" fill="none" xmlns="http://www.w3.org/2000/svg">
<g clip-path="url(#clip0_2115_13788)">
<path d="M33.578 6.87424C33.8452 6.99827 34.0009 7.15399 34.1249 7.42112C34.1707 7.76097 34.1792 8.02374 33.979 8.31216C33.8331 8.4991 33.6635 8.66303 33.4955 8.8299C33.4538 8.87179 33.412 8.91369 33.369 8.95685C33.2286 9.09766 33.0878 9.23807 32.9471 9.37848C32.8455 9.48017 32.7439 9.58189 32.6424 9.68362C32.4214 9.90503 32.2002 10.1262 31.9789 10.3473C31.6497 10.676 31.3209 11.0051 30.9921 11.3342C30.405 11.9219 29.8175 12.5093 29.23 13.0965C28.7158 13.6104 28.2018 14.1244 27.6879 14.6384C27.6538 14.6725 27.6197 14.7066 27.5846 14.7417C27.4463 14.88 27.308 15.0183 27.1697 15.1567C25.8722 16.4546 24.5743 17.7522 23.2762 19.0496C22.1224 20.203 20.9688 21.3566 19.8155 22.5104C18.5203 23.8062 17.2249 25.1018 15.9292 26.3972C15.7911 26.5352 15.6531 26.6732 15.5151 26.8112C15.4811 26.8452 15.4471 26.8792 15.412 26.9142C14.8982 27.4279 14.3844 27.9418 13.8708 28.4558C13.2869 29.0399 12.7029 29.6239 12.1186 30.2076C11.7914 30.5345 11.4643 30.8615 11.1375 31.1888C10.8939 31.4326 10.65 31.6762 10.406 31.9197C10.307 32.0186 10.2081 32.1176 10.1092 32.2167C9.97555 32.3507 9.84153 32.4844 9.70742 32.618C9.66857 32.6571 9.62972 32.6962 9.5897 32.7365C9.55399 32.7719 9.51828 32.8074 9.48149 32.8439C9.45086 32.8745 9.42024 32.9051 9.38868 32.9366C9.13767 33.1503 8.90017 33.1475 8.58114 33.1413C8.29121 33.1102 8.1571 32.9723 7.96377 32.7688C7.83535 32.4922 7.8218 32.221 7.8749 31.9211C8.04392 31.6291 8.26595 31.4054 8.50429 31.1686C8.54603 31.1267 8.58776 31.0848 8.63076 31.0416C8.77117 30.9008 8.91196 30.7604 9.05275 30.62C9.15432 30.5183 9.25586 30.4166 9.35738 30.3149C9.57838 30.0935 9.7996 29.8723 10.0209 29.6512C10.3501 29.3225 10.6789 28.9934 11.0077 28.6643C11.5948 28.0766 12.1823 27.4892 12.7698 26.9019C13.284 26.3881 13.798 25.8741 14.3119 25.3601C14.363 25.309 14.363 25.309 14.4152 25.2568C14.5535 25.1185 14.6918 24.9801 14.8301 24.8418C16.1276 23.5439 17.4256 22.2463 18.7236 20.9488C19.8774 19.7955 21.031 18.6419 22.1843 17.4881C23.4795 16.1923 24.7749 14.8966 26.0706 13.6013C26.2087 13.4633 26.3467 13.3253 26.4847 13.1873C26.5187 13.1533 26.5527 13.1193 26.5878 13.0843C27.1016 12.5705 27.6154 12.0567 28.129 11.5427C28.7129 10.9586 29.2969 10.3746 29.8812 9.79092C30.2084 9.46403 30.5355 9.13698 30.8623 8.80972C31.1059 8.56584 31.3498 8.32225 31.5938 8.07877C31.6928 7.97987 31.7917 7.88089 31.8906 7.7818C32.0243 7.64778 32.1583 7.51409 32.2924 7.38049C32.3507 7.32184 32.3507 7.32184 32.4101 7.26201C32.4458 7.22657 32.4815 7.19113 32.5183 7.15462C32.5489 7.124 32.5796 7.09338 32.6111 7.06184C32.8975 6.81812 33.2188 6.83572 33.578 6.87424Z" fill="#0A9D4E" stroke="#0A9D4E"/>
<path d="M14.6562 6.87431C14.9389 7.0005 15.087 7.19298 15.2031 7.47587C15.2318 7.64172 15.2309 7.80317 15.228 7.97114C15.228 8.0192 15.228 8.06727 15.2281 8.11678C15.2279 8.27452 15.2262 8.43219 15.2245 8.58991C15.2241 8.69972 15.2238 8.80952 15.2235 8.91932C15.2227 9.20748 15.2206 9.49561 15.2181 9.78375C15.2159 10.0781 15.2149 10.3725 15.2138 10.6669C15.2115 11.2438 15.2077 11.8208 15.2031 12.3977C15.2624 12.3974 15.3218 12.397 15.3829 12.3966C15.9429 12.3933 16.5029 12.3909 17.0629 12.3892C17.3508 12.3884 17.6386 12.3872 17.9265 12.3854C18.2045 12.3836 18.4825 12.3826 18.7605 12.3822C18.8664 12.3819 18.9722 12.3813 19.0781 12.3804C19.2268 12.3792 19.3755 12.379 19.5242 12.3791C19.5676 12.3785 19.611 12.3779 19.6558 12.3773C19.9707 12.3791 20.2951 12.4188 20.5388 12.6393C20.7683 12.9043 20.8006 13.1262 20.7966 13.4639C20.7662 13.7349 20.6159 13.8819 20.4189 14.0555C20.183 14.2231 19.9919 14.2098 19.7104 14.2086C19.6619 14.2087 19.6133 14.2087 19.5633 14.2087C19.4023 14.2086 19.2414 14.2082 19.0804 14.2078C18.969 14.2077 18.8575 14.2076 18.7461 14.2075C18.4525 14.2073 18.1589 14.2068 17.8652 14.2062C17.5658 14.2056 17.2663 14.2054 16.9668 14.2051C16.3789 14.2045 15.791 14.2036 15.2031 14.2024C15.2036 14.2639 15.2041 14.3254 15.2046 14.3888C15.209 14.9689 15.2123 15.549 15.2145 16.1292C15.2156 16.4274 15.2171 16.7257 15.2196 17.0239C15.222 17.3118 15.2233 17.5997 15.2239 17.8877C15.2243 17.9974 15.2251 18.1072 15.2263 18.2169C15.2278 18.3708 15.2281 18.5247 15.228 18.6787C15.2287 18.7239 15.2295 18.769 15.2303 18.8155C15.2281 19.1265 15.164 19.3064 14.9844 19.5618C14.7234 19.7654 14.5176 19.8165 14.1876 19.8015C13.8978 19.7558 13.7253 19.6293 13.542 19.3977C13.3892 19.1157 13.3908 18.8645 13.3922 18.5483C13.3922 18.5014 13.3922 18.4544 13.3922 18.406C13.3922 18.2509 13.3927 18.0959 13.3931 17.9408C13.3932 17.8333 13.3933 17.7257 13.3933 17.6181C13.3935 17.3351 13.3941 17.052 13.3947 16.769C13.3952 16.4802 13.3955 16.1913 13.3958 15.9024C13.3964 15.3358 13.3973 14.7691 13.3984 14.2024C13.3376 14.2029 13.2768 14.2034 13.2142 14.2039C12.6405 14.2083 12.0668 14.2116 11.4931 14.2138C11.1981 14.2149 10.9032 14.2165 10.6083 14.2189C10.3236 14.2213 10.0388 14.2226 9.75409 14.2232C9.64557 14.2236 9.53706 14.2244 9.42855 14.2256C9.27629 14.2272 9.1241 14.2274 8.97183 14.2273C8.92719 14.2281 8.88254 14.2288 8.83654 14.2297C8.52683 14.2274 8.34949 14.16 8.09375 13.9837C7.89215 13.7769 7.8584 13.6074 7.84766 13.3274C7.85805 13.0476 7.89533 12.8801 8.09375 12.6712C8.4164 12.4276 8.65193 12.3898 9.04634 12.3915C9.11678 12.3915 9.11678 12.3915 9.18865 12.3915C9.344 12.3916 9.49934 12.392 9.65469 12.3924C9.76236 12.3925 9.87002 12.3926 9.97768 12.3926C10.2612 12.3928 10.5446 12.3934 10.8281 12.394C11.1173 12.3946 11.4065 12.3948 11.6958 12.3951C12.2633 12.3957 12.8309 12.3966 13.3984 12.3977C13.398 12.3384 13.3975 12.2791 13.397 12.218C13.3925 11.658 13.3892 11.098 13.3871 10.538C13.386 10.2501 13.3844 9.96225 13.3819 9.67437C13.3796 9.39637 13.3782 9.11839 13.3777 8.84038C13.3773 8.7345 13.3765 8.62863 13.3753 8.52276C13.3737 8.37405 13.3735 8.2254 13.3736 8.07669C13.3728 8.03326 13.372 7.98983 13.3712 7.94509C13.3735 7.63818 13.446 7.40432 13.6172 7.14775C13.9446 6.84368 14.2203 6.83436 14.6562 6.87431Z" fill="black" stroke="black"/>
<path d="M22.24 26.6095C22.2873 26.6093 22.3345 26.6091 22.3832 26.609C22.5422 26.6085 22.7011 26.6084 22.8601 26.6083C22.9738 26.6081 23.0875 26.6078 23.2012 26.6075C23.5106 26.6068 23.8199 26.6064 24.1293 26.6062C24.3225 26.606 24.5157 26.6058 24.7089 26.6056C25.3131 26.6048 25.9173 26.6043 26.5215 26.6041C27.2194 26.6038 27.9174 26.6029 28.6153 26.6013C29.1545 26.6001 29.6937 26.5995 30.2328 26.5995C30.555 26.5994 30.8772 26.5991 31.1993 26.5981C31.5024 26.5972 31.8054 26.5971 32.1084 26.5976C32.2197 26.5976 32.3309 26.5974 32.4421 26.5968C32.594 26.5961 32.7458 26.5965 32.8976 26.597C32.9417 26.5966 32.9857 26.5962 33.0311 26.5957C33.3321 26.5984 33.5658 26.652 33.7942 26.8652C34.0448 27.1929 34.072 27.4104 34.0324 27.8203C33.9504 28.0909 33.788 28.2431 33.5412 28.3772C33.345 28.4565 33.154 28.4517 32.9448 28.4492C32.8971 28.4495 32.8494 28.4498 32.8003 28.4501C32.6413 28.4509 32.4823 28.4501 32.3233 28.4493C32.209 28.4495 32.0947 28.4498 31.9804 28.4502C31.6705 28.4509 31.3606 28.4503 31.0506 28.4494C30.7262 28.4486 30.4018 28.449 30.0774 28.4492C29.5327 28.4493 28.9879 28.4486 28.4432 28.4473C27.8134 28.4459 27.1837 28.4458 26.5539 28.4464C25.948 28.447 25.342 28.4467 24.7361 28.4459C24.4783 28.4456 24.2204 28.4456 23.9626 28.4459C23.659 28.4461 23.3555 28.4456 23.0519 28.4444C22.9405 28.4441 22.8291 28.4441 22.7176 28.4443C22.5656 28.4446 22.4135 28.444 22.2615 28.443C22.2174 28.4434 22.1733 28.4437 22.1278 28.444C21.8268 28.4406 21.5947 28.3859 21.3643 28.1757C21.1303 27.8752 21.0918 27.6444 21.1261 27.2734C21.2259 26.985 21.3781 26.847 21.6183 26.6718C21.8269 26.6023 22.0227 26.6092 22.24 26.6095Z" fill="black" stroke="black"/>
</g>
<defs>
<clipPath id="clip0_2115_13788">
<rect width="28" height="28" fill="white" transform="translate(7 6)"/>
</clipPath>
</defs>
</svg>
