<svg width="30" height="30" viewBox="0 0 30 30" fill="none" xmlns="http://www.w3.org/2000/svg">
<g id="Frame 146">
<g id="Group">
<path id="Vector" d="M14.2972 7.14733C15.0492 7.14733 15.6588 6.52683 15.6588 5.76141C15.6588 4.99599 15.0492 4.37549 14.2972 4.37549C13.5452 4.37549 12.9355 4.99599 12.9355 5.76141C12.9355 6.52683 13.5452 7.14733 14.2972 7.14733Z" fill="#768EE5"/>
<path id="Vector_2" d="M17.0463 12.9093L8.99141 4.71061C8.43573 4.145 7.53481 4.145 6.97913 4.71061C6.42346 5.27621 6.42346 6.19322 6.97913 6.75882L4.83395 4.57532C4.27827 4.00972 3.37735 4.00972 2.82167 4.57532C2.26599 5.14093 2.26599 6.05793 2.82167 6.62354L4.96686 8.80703C4.41118 8.24143 3.51026 8.24143 2.95458 8.80703C2.3989 9.37263 2.3989 10.2896 2.95458 10.8552L4.42904 12.356C3.87336 11.7904 2.97244 11.7904 2.41676 12.356C1.86108 12.9216 1.86108 13.8386 2.41676 14.4042L12.4081 24.574C13.0045 25.1811 13.7525 25.6108 14.5714 25.8167L15.0204 25.9297C15.9368 26.1602 16.7739 26.6411 17.4414 27.3205L17.9474 27.8355C18.1629 28.0548 18.5122 28.0548 18.7276 27.8355L24.83 21.6242L23.5906 20.3627C22.8236 19.582 22.3503 18.5521 22.2531 17.4525C22.1559 16.3529 21.6825 15.323 20.9156 14.5423L20.0078 13.6183L17.0463 12.9093Z" fill="#FFB29F"/>
<path id="Vector_3" d="M5.52567 16.358C6.27767 16.358 6.88728 15.7375 6.88728 14.9721C6.88728 14.2067 6.27767 13.5862 5.52567 13.5862C4.77368 13.5862 4.16406 14.2067 4.16406 14.9721C4.16406 15.7375 4.77368 16.358 5.52567 16.358Z" fill="#314CAA"/>
<path id="Vector_4" d="M5.32059 18.2755C6.07259 18.2755 6.6822 17.655 6.6822 16.8896C6.6822 16.1242 6.07259 15.5037 5.32059 15.5037C4.5686 15.5037 3.95898 16.1242 3.95898 16.8896C3.95898 17.655 4.5686 18.2755 5.32059 18.2755Z" fill="#768EE5"/>
<path id="Vector_5" d="M19.4055 5.53577C18.6383 5.65872 18.12 6.40312 18.221 7.18698L18.5577 9.80079C18.5665 9.86875 18.5541 9.9378 18.5223 9.99823C18.4906 10.0587 18.441 10.1075 18.3806 10.1378C18.3202 10.1681 18.252 10.1783 18.1856 10.1672C18.1191 10.156 18.0578 10.1239 18.0102 10.0754L10.6262 2.55948C10.0705 1.99388 9.16958 1.99388 8.6139 2.55948C8.05822 3.12508 8.05822 4.04209 8.6139 4.60769L6.46871 2.4242C5.91303 1.8586 5.01211 1.8586 4.45644 2.4242C3.90076 2.9898 3.90076 3.90681 4.45644 4.47241L6.60162 6.65591C6.04594 6.0903 5.14502 6.0903 4.58934 6.65591C4.03366 7.22151 4.03366 8.13852 4.58934 8.70412L6.0638 10.2049C5.50812 9.63931 4.6072 9.63931 4.05152 10.2049C3.49585 10.7705 3.49585 11.6875 4.05152 12.2531L14.0429 22.4229C14.6393 23.0299 15.3873 23.4596 16.2061 23.6656L16.8043 23.8161C17.6231 24.022 18.3711 24.4517 18.9675 25.0588L20.8006 26.9246C21.0161 27.1439 21.3654 27.1439 21.5809 26.9246L27.2931 21.1104C27.5085 20.8911 27.5085 20.5355 27.2931 20.3162L25.2253 18.2116C24.4584 17.4309 23.985 16.401 23.8878 15.3014C23.7906 14.2018 23.3173 13.1719 22.5503 12.3912L22.2921 12.1284C21.8709 11.6997 21.6006 11.1413 21.5231 10.5402L21.0385 6.77804C20.9347 5.97234 20.199 5.40862 19.4055 5.53577Z" fill="#FFE0CF"/>
<path id="Vector_6" d="M14.9323 11.4346C14.8812 11.4347 14.8306 11.4245 14.7834 11.4046C14.7362 11.3847 14.6933 11.3555 14.6573 11.3187L8.33904 4.88762C8.26815 4.81295 8.22892 4.71293 8.2298 4.6091C8.23067 4.50527 8.27158 4.40594 8.34372 4.33252C8.41585 4.2591 8.51343 4.21746 8.61544 4.21657C8.71745 4.21568 8.81572 4.25561 8.88908 4.32776L15.2073 10.7588C15.2617 10.8142 15.2987 10.8847 15.3137 10.9615C15.3286 11.0383 15.3209 11.1178 15.2915 11.1902C15.2621 11.2625 15.2122 11.3243 15.1483 11.3678C15.0844 11.4113 15.0092 11.4346 14.9323 11.4346ZM13.3496 13.92C13.2985 13.9201 13.2479 13.9099 13.2007 13.89C13.1535 13.8701 13.1106 13.8409 13.0745 13.8041L6.32681 6.93583C6.25593 6.86116 6.2167 6.76114 6.21757 6.65731C6.21845 6.55348 6.25936 6.45415 6.33149 6.38073C6.40362 6.30731 6.50121 6.26567 6.60321 6.26478C6.70522 6.26389 6.80349 6.30382 6.87685 6.37597L13.6246 13.2442C13.679 13.2996 13.716 13.3702 13.731 13.4469C13.746 13.5237 13.7383 13.6033 13.7088 13.6756C13.6794 13.748 13.6296 13.8098 13.5656 13.8533C13.5017 13.8968 13.4265 13.92 13.3496 13.92ZM11.6683 16.3052C11.6172 16.3052 11.5666 16.295 11.5194 16.2751C11.4722 16.2552 11.4294 16.2261 11.3933 16.1892L5.78894 10.4849C5.71806 10.4102 5.67883 10.3102 5.6797 10.2064C5.68058 10.1025 5.72149 10.0032 5.79362 9.92979C5.86575 9.85636 5.96334 9.81472 6.06535 9.81383C6.16735 9.81294 6.26562 9.85287 6.33898 9.92502L11.9433 15.6293C11.9977 15.6847 12.0347 15.7552 12.0497 15.832C12.0647 15.9088 12.057 15.9884 12.0276 16.0607C11.9982 16.1331 11.9483 16.1949 11.8844 16.2384C11.8204 16.2819 11.7452 16.3052 11.6683 16.3052Z" fill="#FFCFC0"/>
<path id="Vector_7" d="M6.21317 22.3981C6.96517 22.3981 7.57478 21.7776 7.57478 21.0121C7.57478 20.2467 6.96517 19.6262 6.21317 19.6262C5.46118 19.6262 4.85156 20.2467 4.85156 21.0121C4.85156 21.7776 5.46118 22.3981 6.21317 22.3981Z" fill="#768EE5"/>
<path id="Vector_8" d="M5.67411 20.3497C6.4261 20.3497 7.03572 19.7292 7.03572 18.9638C7.03572 18.1984 6.4261 17.5779 5.67411 17.5779C4.92211 17.5779 4.3125 18.1984 4.3125 18.9638C4.3125 19.7292 4.92211 20.3497 5.67411 20.3497Z" fill="#314CAA"/>
<path id="Vector_9" d="M7.72489 24.119C8.47688 24.119 9.0865 23.4985 9.0865 22.7331C9.0865 21.9677 8.47688 21.3472 7.72489 21.3472C6.97289 21.3472 6.36328 21.9677 6.36328 22.7331C6.36328 23.4985 6.97289 24.119 7.72489 24.119Z" fill="#314CAA"/>
<path id="Vector_10" d="M9.84989 24.9153C10.6019 24.9153 11.2115 24.2948 11.2115 23.5294C11.2115 22.7639 10.6019 22.1434 9.84989 22.1434C9.09789 22.1434 8.48828 22.7639 8.48828 23.5294C8.48828 24.2948 9.09789 24.9153 9.84989 24.9153Z" fill="#768EE5"/>
<path id="Vector_11" d="M11.8948 24.3832C12.6468 24.3832 13.2564 23.7627 13.2564 22.9973C13.2564 22.2318 12.6468 21.6113 11.8948 21.6113C11.1428 21.6113 10.5332 22.2318 10.5332 22.9973C10.5332 23.7627 11.1428 24.3832 11.8948 24.3832Z" fill="#314CAA"/>
<path id="Vector_12" d="M13.8167 22.9972C14.5687 22.9972 15.1783 22.3767 15.1783 21.6113C15.1783 20.8458 14.5687 20.2253 13.8167 20.2253C13.0647 20.2253 12.4551 20.8458 12.4551 21.6113C12.4551 22.3767 13.0647 22.9972 13.8167 22.9972Z" fill="#768EE5"/>
<path id="Vector_13" d="M15.3206 21.1193C16.0726 21.1193 16.6822 20.4988 16.6822 19.7333C16.6822 18.9679 16.0726 18.3474 15.3206 18.3474C14.5686 18.3474 13.959 18.9679 13.959 19.7333C13.959 20.4988 14.5686 21.1193 15.3206 21.1193Z" fill="#314CAA"/>
<path id="Vector_14" d="M16.0999 19.077C16.8519 19.077 17.4615 18.4565 17.4615 17.6911C17.4615 16.9257 16.8519 16.3052 16.0999 16.3052C15.3479 16.3052 14.7383 16.9257 14.7383 17.6911C14.7383 18.4565 15.3479 19.077 16.0999 19.077Z" fill="#768EE5"/>
<path id="Vector_15" d="M16.6819 16.8895C17.4339 16.8895 18.0435 16.269 18.0435 15.5036C18.0435 14.7382 17.4339 14.1177 16.6819 14.1177C15.9299 14.1177 15.3203 14.7382 15.3203 15.5036C15.3203 16.269 15.9299 16.8895 16.6819 16.8895Z" fill="#314CAA"/>
<path id="Vector_16" d="M17.1839 14.5883C17.9359 14.5883 18.5455 13.9678 18.5455 13.2023C18.5455 12.4369 17.9359 11.8164 17.1839 11.8164C16.4319 11.8164 15.8223 12.4369 15.8223 13.2023C15.8223 13.9678 16.4319 14.5883 17.1839 14.5883Z" fill="#768EE5"/>
<path id="Vector_17" d="M17.303 12.5809C18.055 12.5809 18.6646 11.9604 18.6646 11.195C18.6646 10.4296 18.055 9.80908 17.303 9.80908C16.551 9.80908 15.9414 10.4296 15.9414 11.195C15.9414 11.9604 16.551 12.5809 17.303 12.5809Z" fill="#314CAA"/>
<path id="Vector_18" d="M17.1839 10.4199C17.9359 10.4199 18.5455 9.79942 18.5455 9.03399C18.5455 8.26857 17.9359 7.64807 17.1839 7.64807C16.4319 7.64807 15.8223 8.26857 15.8223 9.03399C15.8223 9.79942 16.4319 10.4199 17.1839 10.4199Z" fill="#768EE5"/>
<path id="Vector_19" d="M16.305 8.30468C17.057 8.30468 17.6666 7.68418 17.6666 6.91876C17.6666 6.15334 17.057 5.53284 16.305 5.53284C15.553 5.53284 14.9434 6.15334 14.9434 6.91876C14.9434 7.68418 15.553 8.30468 16.305 8.30468Z" fill="#314CAA"/>
</g>
</g>
</svg>
