<svg width="60" height="60" viewBox="0 0 60 60" fill="none" xmlns="http://www.w3.org/2000/svg">
<path d="M30.1437 18.5599C30.2638 18.6211 30.3831 18.6836 30.502 18.7472C30.5668 18.7807 30.6316 18.8142 30.6984 18.8487C30.9091 18.958 31.1189 19.069 31.3287 19.1801C31.4753 19.2566 31.6219 19.333 31.7686 19.4094C32.6461 19.8674 33.5181 20.3353 34.3854 20.8122C35.1168 21.2132 35.8576 21.5949 36.6001 21.9748C37.5299 22.4506 38.4538 22.935 39.3681 23.4396C39.849 23.7039 40.3335 23.9578 40.8245 24.203C40.9915 24.287 40.9915 24.287 41.1619 24.3727C41.3776 24.4808 41.594 24.5876 41.8111 24.6929C41.9088 24.742 42.0066 24.7911 42.1073 24.8417C42.1938 24.8842 42.2803 24.9267 42.3695 24.9704C42.6738 25.1831 42.8113 25.3951 42.9942 25.7174C43.0436 26.038 43.0436 26.038 43.0445 26.3925C43.0452 26.4581 43.0458 26.5237 43.0465 26.5912C43.0483 26.8098 43.0473 27.0282 43.0463 27.2467C43.047 27.4039 43.0479 27.561 43.0489 27.7182C43.0511 28.1442 43.0508 28.5701 43.0499 28.9961C43.0494 29.352 43.0501 29.7078 43.0508 30.0637C43.0525 30.9032 43.0521 31.7426 43.0505 32.5821C43.0489 33.4479 43.0504 34.3135 43.0536 35.1793C43.0562 35.923 43.0569 36.6668 43.056 37.4105C43.0556 37.8546 43.0558 38.2985 43.0578 38.7426C43.0596 39.16 43.059 39.5774 43.0566 39.9949C43.0561 40.148 43.0564 40.301 43.0577 40.4541C43.0592 40.6634 43.0578 40.8724 43.0556 41.0817C43.0555 41.1987 43.0554 41.3157 43.0554 41.4362C42.9727 41.8699 42.8163 42.0271 42.5061 42.3401C42.2839 42.4837 42.077 42.6046 41.8422 42.7217C41.7778 42.7552 41.7134 42.7887 41.647 42.8232C41.4357 42.9327 41.2235 43.0404 41.0113 43.1481C40.8617 43.2253 40.7122 43.3027 40.5627 43.3802C40.2548 43.5396 39.9467 43.6985 39.6383 43.8569C39.028 44.1712 38.4218 44.4929 37.8156 44.815C37.4945 44.9855 37.1732 45.1555 36.8518 45.3255C36.7555 45.3764 36.7555 45.3764 36.6573 45.4284C36.1804 45.6806 35.7032 45.9323 35.2258 46.1836C35.1559 46.2205 35.086 46.2573 35.0139 46.2953C34.6637 46.4798 34.3133 46.6641 33.9627 46.8477C33.2913 47.1999 32.6236 47.5571 31.9617 47.9266C31.7768 48.0288 31.5917 48.1309 31.4067 48.2329C31.2368 48.3274 31.0682 48.4241 30.8996 48.5209C30.2731 48.8659 29.7549 49.1101 29.0346 48.9503C28.6642 48.8134 28.3285 48.6337 27.9852 48.44C27.8878 48.3872 27.7903 48.3344 27.6899 48.28C27.3887 48.1164 27.089 47.9503 26.7893 47.7838C26.5263 47.64 26.2628 47.4968 25.9993 47.3537C25.825 47.2589 25.6508 47.1639 25.4767 47.0687C24.6534 46.6194 23.8195 46.1911 22.9849 45.763C22.2089 45.3638 21.4407 44.9525 20.676 44.5324C20.1775 44.2597 19.6759 43.9941 19.17 43.7352C19.1112 43.705 19.0523 43.6749 18.9916 43.6438C18.704 43.4966 18.4161 43.3502 18.1277 43.2047C16.3952 42.322 16.3952 42.322 16.0512 41.7568C16.014 41.4601 16.014 41.4601 16.0133 41.1051C16.0128 41.0397 16.0123 40.9742 16.0117 40.9068C16.0103 40.6877 16.011 40.4687 16.0117 40.2496C16.0112 40.0924 16.0105 39.9353 16.0097 39.7782C16.0079 39.3514 16.0081 38.9246 16.0086 38.4978C16.0089 38.1415 16.0083 37.7851 16.0077 37.4288C16.0064 36.5881 16.0065 35.7474 16.0076 34.9067C16.0087 34.0396 16.0074 33.1725 16.0048 32.3053C16.0026 31.5607 16.0019 30.8162 16.0025 30.0716C16.0028 29.6269 16.0026 29.1823 16.0009 28.7376C15.9994 28.3193 15.9998 27.9011 16.0016 27.4828C16.002 27.3295 16.0017 27.1761 16.0007 27.0227C15.9994 26.813 16.0005 26.6035 16.0022 26.3938C16.0023 26.2766 16.0023 26.1593 16.0023 26.0385C16.0616 25.6489 16.1958 25.4397 16.4416 25.1341C16.7297 24.9436 16.7297 24.9436 17.0663 24.7779C17.127 24.7474 17.1878 24.7169 17.2504 24.6855C17.4479 24.5866 17.6464 24.4898 17.8449 24.3929C18.0527 24.2893 18.2601 24.1852 18.4676 24.081C18.6061 24.0115 18.7447 23.9422 18.8834 23.873C19.4516 23.5892 20.0103 23.2904 20.5661 22.9834C21.3486 22.5531 22.1387 22.1394 22.9334 21.7318C23.7321 21.3221 24.5259 20.9059 25.3128 20.4742C26.1123 20.0376 26.9142 19.6058 27.7211 19.1831C27.8472 19.1169 27.9731 19.0502 28.0988 18.9831C28.2749 18.8891 28.4517 18.7967 28.6289 18.7047C28.7307 18.651 28.8326 18.5973 28.9376 18.542C29.4003 18.3594 29.683 18.3729 30.1437 18.5599ZM29.0289 20.967C28.9462 21.0127 28.8635 21.0583 28.7784 21.1053C28.6877 21.1556 28.5971 21.206 28.5038 21.2579C27.6623 21.7208 26.8144 22.1688 25.9596 22.6067C25.0751 23.0603 24.1977 23.524 23.3272 24.0037C22.801 24.2919 22.2703 24.5694 21.7349 24.8402C21.6698 24.8732 21.6048 24.9062 21.5378 24.9402C21.2155 25.1037 20.8927 25.2662 20.569 25.427C20.4514 25.4864 20.3339 25.5459 20.2164 25.6053C20.0598 25.6836 20.0598 25.6836 19.9 25.7633C19.6343 25.895 19.6343 25.895 19.5655 26.2034C19.6518 26.2474 19.7382 26.2913 19.8271 26.3366C22.7301 27.8154 22.7301 27.8154 24.148 28.5953C24.9621 29.0416 25.7875 29.4654 26.6145 29.8874C27.1181 30.1453 27.6176 30.4063 28.1076 30.6891C28.1878 30.7352 28.2681 30.7814 28.3508 30.829C28.4965 30.9137 28.6414 30.9999 28.7853 31.0876C29.0662 31.2512 29.2801 31.3542 29.6081 31.3631C30.0546 31.2097 30.4493 30.9864 30.8589 30.754C31.0513 30.647 31.2439 30.5404 31.4366 30.4339C31.5381 30.3778 31.6395 30.3218 31.7441 30.264C32.284 29.9704 32.8315 29.6913 33.3787 29.4113C34.2676 28.9554 35.1489 28.4885 36.0246 28.0081C37.1649 27.3851 38.3232 26.7956 39.4799 26.2034C39.3641 25.8575 39.2492 25.8166 38.9349 25.6566C38.8718 25.6256 38.8086 25.5947 38.7436 25.5628C38.6781 25.5297 38.6125 25.4966 38.545 25.4625C38.4039 25.3914 38.2626 25.3207 38.1211 25.2503C37.7488 25.0651 37.378 24.8769 37.007 24.6891C36.9333 24.6519 36.8596 24.6147 36.7837 24.5763C36.1998 24.281 35.6233 23.9738 35.0504 23.6578C34.1535 23.1642 33.2454 22.6943 32.3341 22.2276C31.5901 21.8453 30.8545 21.4508 30.1282 21.0361C29.6451 20.7625 29.5088 20.6997 29.0289 20.967ZM18.1988 27.9532C18.1988 28.5627 18.1988 29.1722 18.1988 29.8001C19.3463 30.431 20.499 31.0494 21.6643 31.6471C22.5535 32.1033 23.4353 32.5702 24.3113 33.0509C25.1646 33.5173 26.029 33.962 26.8948 34.4048C27.0011 34.4593 27.1073 34.5137 27.2168 34.5698C27.311 34.6179 27.4052 34.666 27.5023 34.7155C27.682 34.8107 27.8585 34.9121 28.0317 35.0186C28.2391 35.1629 28.2391 35.1629 28.4489 35.1466C28.4489 34.5371 28.4489 33.9276 28.4489 33.2997C26.784 32.3866 25.1057 31.4998 23.4249 30.6162C22.7527 30.2628 22.0808 29.9088 21.409 29.5547C21.2014 29.4453 20.9938 29.336 20.7862 29.2267C20.6563 29.1583 20.5263 29.0898 20.3964 29.0213C20.3345 28.9888 20.2726 28.9562 20.2088 28.9226C19.9023 28.7611 19.5968 28.5981 19.2927 28.4321C19.234 28.4003 19.1754 28.3684 19.115 28.3355C18.9554 28.2485 18.7961 28.1611 18.6369 28.0736C18.4101 27.9387 18.4101 27.9387 18.1988 27.9532ZM40.1739 28.1886C40.0755 28.2396 39.9772 28.2906 39.8758 28.3431C39.7693 28.3989 39.6628 28.4547 39.5531 28.5121C39.443 28.5695 39.3329 28.6268 39.2194 28.6859C38.4376 29.0943 37.662 29.5131 36.8885 29.9369C36.1798 30.3238 35.4638 30.6953 34.7454 31.0639C33.3469 31.7816 31.9625 32.5224 30.5965 33.2997C30.5965 33.9092 30.5965 34.5187 30.5965 35.1466C30.9874 35.0169 31.2715 34.9187 31.6166 34.7259C31.698 34.6809 31.7794 34.6359 31.8633 34.5896C31.9506 34.5408 32.038 34.4921 32.1279 34.4419C32.9611 33.9827 33.801 33.539 34.6477 33.1052C35.5367 32.6493 36.4182 32.1826 37.2938 31.7019C38.1586 31.2291 39.0348 30.7788 39.9125 30.3304C40.0738 30.2478 40.0738 30.2478 40.2384 30.1635C40.3346 30.1145 40.4309 30.0654 40.53 30.0148C40.7399 29.9157 40.7399 29.9157 40.8466 29.8001C40.855 29.6625 40.857 29.5245 40.8561 29.3866C40.8558 29.3036 40.8555 29.2206 40.8552 29.1351C40.8544 29.0478 40.8535 28.9605 40.8527 28.8706C40.8523 28.7829 40.8518 28.6953 40.8514 28.605C40.8502 28.3877 40.8486 28.1704 40.8466 27.9532C40.5751 27.9532 40.4147 28.0634 40.1739 28.1886ZM18.1988 32.3276C18.1988 35.0864 18.1988 37.8452 18.1988 40.6875C19.1104 41.1982 20.0148 41.7022 20.9444 42.1761C21.7226 42.5757 22.4958 42.9827 23.2628 43.4033C24.1824 43.9073 25.1118 44.3911 26.0451 44.8692C26.9279 45.3218 26.9279 45.3218 27.3388 45.5455C27.3969 45.577 27.4549 45.6086 27.5147 45.6411C27.6772 45.7297 27.8393 45.8189 28.0014 45.908C28.2357 46.0486 28.2357 46.0486 28.4489 46.034C28.4489 43.2752 28.4489 40.5165 28.4489 37.6741C27.0289 36.8865 27.0289 36.8865 25.5935 36.1309C24.8562 35.751 24.1243 35.363 23.3971 34.9644C22.4733 34.4585 21.5399 33.9726 20.6026 33.4924C19.7198 33.0398 19.7198 33.0398 19.3089 32.8161C19.2508 32.7846 19.1928 32.753 19.133 32.7205C18.9705 32.6319 18.8084 32.5428 18.6463 32.4536C18.412 32.313 18.412 32.313 18.1988 32.3276ZM40.1312 32.5843C40.024 32.6397 39.9168 32.695 39.8063 32.7521C39.6894 32.8131 39.5724 32.8741 39.4555 32.9351C39.335 32.9977 39.2145 33.0602 39.094 33.1227C38.2851 33.5434 37.4827 33.9751 36.6834 34.4135C35.9781 34.7989 35.2653 35.1686 34.5501 35.5355C33.7032 35.9701 32.8605 36.4112 32.0242 36.866C31.9361 36.9139 31.8479 36.9619 31.7571 37.0113C31.5324 37.1341 31.3078 37.2568 31.0846 37.3824C31.0009 37.4165 30.9171 37.4505 30.8309 37.4856C30.5582 37.6622 30.5582 37.6622 30.5378 38.0265C30.5364 38.1759 30.5377 38.3253 30.5411 38.4746C30.541 38.5562 30.541 38.6378 30.5409 38.7218C30.5412 38.9917 30.545 39.2614 30.5489 39.5313C30.5498 39.7183 30.5505 39.9053 30.5509 40.0923C30.5528 40.5847 30.5576 41.0771 30.563 41.5695C30.568 42.0718 30.5702 42.5742 30.5727 43.0766C30.5779 44.0624 30.5863 45.0482 30.5965 46.034C31.0085 45.9019 31.3841 45.7482 31.768 45.548C31.7682 45.4418 31.7682 45.4418 31.7684 45.3335C31.7701 44.6656 31.7742 43.9977 31.7809 43.3298C31.7842 42.9864 31.7866 42.6431 31.787 42.2997C31.7875 41.9047 31.792 41.5098 31.7966 41.1147C31.7962 40.9918 31.7958 40.8688 31.7954 40.7422C31.8095 39.9007 31.8095 39.9007 32.0511 39.5218C32.4745 39.2487 32.9082 39.0139 33.3596 38.7901C33.457 38.7411 33.5543 38.6922 33.6546 38.6418C33.86 38.5389 34.0657 38.4366 34.2715 38.3347C34.5858 38.1788 34.8988 38.0204 35.2117 37.8618C35.4118 37.762 35.612 37.6623 35.8123 37.5628C35.9055 37.5154 35.9986 37.468 36.0946 37.4192C36.5991 37.1724 36.9638 37.0205 37.5275 37.0908C37.8201 37.2138 37.9689 37.299 38.1241 37.5764C38.2482 37.9942 38.2458 38.3965 38.2513 38.8303C38.2532 38.9224 38.2551 39.0145 38.257 39.1094C38.2628 39.4025 38.2674 39.6957 38.2719 39.9889C38.2756 40.188 38.2794 40.3872 38.2833 40.5863C38.2927 41.0737 38.3009 41.5611 38.3085 42.0485C38.5487 41.9315 38.7886 41.814 39.0284 41.6961C39.0947 41.6639 39.1611 41.6317 39.2294 41.5985C39.3688 41.5297 39.5069 41.4582 39.6438 41.3845C39.8704 41.2708 39.8704 41.2708 40.1375 41.1804C40.453 41.0508 40.6263 40.9496 40.8466 40.6875C40.9872 40.0596 40.9602 39.4419 40.9419 38.8018C40.9401 38.6152 40.9387 38.4286 40.9377 38.242C40.934 37.7519 40.9244 37.2621 40.9136 36.7721C40.9036 36.2717 40.8992 35.7713 40.8943 35.2708C40.8838 34.2896 40.8672 33.3086 40.8466 32.3276C40.5627 32.3276 40.3827 32.454 40.1312 32.5843ZM35.4218 40.1225C35.3036 40.1817 35.3036 40.1817 35.1831 40.2421C35.0329 40.3183 35.0329 40.3183 34.8796 40.3959C34.5615 40.5563 34.2434 40.7167 33.9156 40.882C33.9156 42.0047 33.9156 43.1275 33.9156 44.2843C34.4323 44.1135 34.4323 44.1135 34.9002 43.8795C34.9621 43.8444 35.0241 43.8094 35.0879 43.7733C35.1641 43.7294 35.2404 43.6855 35.3189 43.6403C35.5645 43.4999 35.8102 43.3596 36.0632 43.215C36.0632 42.1243 36.0632 41.0336 36.0632 39.9099C35.8034 39.9099 35.6537 40.0056 35.4218 40.1225Z" fill="black"/>
<path d="M29.4055 9.0063L29.5739 9C29.8799 9.0723 30.0293 9.3031 30.1929 9.55574C30.2009 9.56808 30.2089 9.58048 30.217 9.59291C30.2664 9.67867 30.3152 9.76478 30.3636 9.85115L30.4479 9.9987C30.5441 10.1673 30.6394 10.3364 30.7348 10.5054L30.7427 10.5195L30.9856 10.9471C31.1904 11.308 31.3948 11.6691 31.5989 12.0304C31.8243 12.4295 32.0501 12.8283 32.276 13.227L32.6089 13.8147L32.7422 14.0501L32.7614 14.084C34.7865 17.6599 34.7869 17.6605 34.9037 17.8676C34.9669 17.9788 35.0309 18.0895 35.0963 18.1994C35.2894 18.5249 35.3218 18.6876 35.2749 19.0603C35.146 19.3531 35.0574 19.4416 34.7667 19.5731C34.2866 19.6599 33.7614 19.3565 33.3029 19.0917C33.1836 19.0228 33.0687 18.9564 32.9604 18.9003C32.8215 18.8284 32.6825 18.7571 32.5433 18.6859C32.1481 18.4836 31.7531 18.2811 31.359 18.0769C31.1167 17.9514 30.8738 17.8269 30.6307 17.7031C30.5385 17.656 30.4466 17.6085 30.3548 17.5605C30.2268 17.4937 30.0982 17.4282 29.9693 17.3629L29.7485 17.2491C29.4276 17.137 29.2311 17.2063 28.9256 17.339C28.8461 17.3791 28.7669 17.4198 28.6879 17.461L28.5557 17.5283C28.4616 17.5763 28.3675 17.6246 28.2736 17.6731C28.1248 17.7499 27.9756 17.826 27.8263 17.902C27.5096 18.0633 27.1932 18.2255 26.8769 18.3878C26.5102 18.576 26.1434 18.7638 25.7761 18.9507C25.6294 19.0255 25.4831 19.101 25.3368 19.1766L25.0659 19.3146L24.9437 19.3784C24.5978 19.553 24.3403 19.6382 23.9651 19.5227C23.7231 19.3845 23.6418 19.3205 23.5443 19.0603C23.4696 18.5545 23.6851 18.2006 23.9332 17.7931C23.9589 17.751 23.9848 17.7083 24.0109 17.6649C24.0596 17.5816 24.1082 17.4982 24.1567 17.4148C24.2574 17.2417 24.3586 17.0689 24.4603 16.8963C24.6707 16.538 24.8747 16.176 25.0786 15.8138C25.1004 15.7751 25.1222 15.7365 25.144 15.6978L25.4106 15.227L25.5439 14.9916L25.8771 14.4032L26.0104 14.1678L26.3435 13.5797C26.5891 13.1461 26.8346 12.7125 27.0799 12.2787C27.2346 12.0052 27.3896 11.7319 27.5447 11.4586C27.704 11.178 27.8624 10.8969 28.0199 10.6153C28.1111 10.4525 28.2026 10.29 28.2943 10.1275C28.3583 10.0137 28.4217 9.89949 28.4851 9.78531L28.6025 9.57768L28.7047 9.39521C28.8957 9.11621 29.0706 9.01047 29.4055 9.0063ZM29.343 11.3265L29.266 11.4675C28.8098 12.3026 28.3513 13.1355 27.8725 13.9577C27.5432 14.5233 27.2198 15.0919 26.9019 15.6642L26.7847 15.8746C26.5838 16.2374 26.3911 16.6021 26.2104 16.9755C26.5585 16.8717 26.8645 16.7173 27.1846 16.5484L27.5197 16.375C27.6943 16.2844 27.8687 16.1936 28.0427 16.1018C28.2116 16.0129 28.3812 15.9254 28.551 15.8381L28.7067 15.7546C29.027 15.5915 29.3142 15.4882 29.6762 15.5633C29.9067 15.6481 30.1196 15.7586 30.336 15.8746L30.521 15.97C30.7149 16.0702 30.9079 16.1718 31.1009 16.2736C31.2954 16.3755 31.4901 16.477 31.6851 16.5779C31.8061 16.6406 31.9269 16.7039 32.0474 16.7678L32.2119 16.8535L32.3569 16.93L32.4756 16.9755L32.6089 16.9083C32.0912 15.9595 31.5683 15.0149 31.0242 14.0811C30.6182 13.3825 30.2277 12.6753 29.8373 11.9677C29.7184 11.7531 29.5978 11.5396 29.4763 11.3265H29.343Z" fill="#0A9D4E"/>
<path d="M29.4055 9.0063L29.5739 9C29.8799 9.0723 30.0293 9.3031 30.1929 9.55574C30.2009 9.56808 30.2089 9.58048 30.217 9.59291C30.2664 9.67867 30.3152 9.76478 30.3636 9.85115L30.4479 9.9987C30.5441 10.1673 30.6394 10.3364 30.7348 10.5054L30.7427 10.5195L30.9856 10.9471C31.1904 11.308 31.3948 11.6691 31.5989 12.0304C31.8243 12.4295 32.0501 12.8283 32.276 13.227L32.6089 13.8147L32.7422 14.0501L32.7614 14.084C34.7865 17.6599 34.7869 17.6605 34.9037 17.8676C34.9669 17.9788 35.0309 18.0895 35.0963 18.1994C35.2894 18.5249 35.3218 18.6876 35.2749 19.0603C35.146 19.3531 35.0574 19.4416 34.7667 19.5731C34.2866 19.6599 33.7614 19.3565 33.3029 19.0917C33.1836 19.0228 33.0687 18.9564 32.9604 18.9003C32.8215 18.8284 32.6825 18.7571 32.5433 18.6859C32.1481 18.4836 31.7531 18.2811 31.359 18.0769C31.1167 17.9514 30.8738 17.8269 30.6307 17.7031C30.5385 17.656 30.4466 17.6085 30.3548 17.5605C30.2268 17.4937 30.0982 17.4282 29.9693 17.3629L29.7485 17.2491C29.4276 17.137 29.2311 17.2063 28.9256 17.339C28.8461 17.3791 28.7669 17.4198 28.6879 17.461L28.5557 17.5283C28.4616 17.5763 28.3675 17.6246 28.2736 17.6731C28.1248 17.7499 27.9756 17.826 27.8263 17.902C27.5096 18.0633 27.1932 18.2255 26.8769 18.3878C26.5102 18.576 26.1434 18.7638 25.7761 18.9507C25.6294 19.0255 25.4831 19.101 25.3368 19.1766L25.0659 19.3146L24.9437 19.3784C24.5978 19.553 24.3403 19.6382 23.9651 19.5227C23.7231 19.3845 23.6418 19.3205 23.5443 19.0603C23.4696 18.5545 23.6851 18.2006 23.9332 17.7931C23.9589 17.751 23.9848 17.7083 24.0109 17.6649C24.0596 17.5816 24.1082 17.4982 24.1567 17.4148C24.2574 17.2417 24.3586 17.0689 24.4603 16.8963C24.6707 16.538 24.8747 16.176 25.0786 15.8138C25.1004 15.7751 25.1222 15.7365 25.144 15.6978L25.4106 15.227L25.5439 14.9916L25.8771 14.4032L26.0104 14.1678L26.3435 13.5797C26.5891 13.1461 26.8346 12.7125 27.0799 12.2787C27.2346 12.0052 27.3896 11.7319 27.5447 11.4586C27.704 11.178 27.8624 10.8969 28.0199 10.6153C28.1111 10.4525 28.2026 10.29 28.2943 10.1275C28.3583 10.0137 28.4217 9.89949 28.4851 9.78531L28.6025 9.57768L28.7047 9.39521C28.8957 9.11621 29.0706 9.01047 29.4055 9.0063ZM29.343 11.3265L29.266 11.4675C28.8098 12.3026 28.3513 13.1355 27.8725 13.9577C27.5432 14.5233 27.2198 15.0919 26.9019 15.6642L26.7847 15.8746C26.5838 16.2374 26.3911 16.6021 26.2104 16.9755C26.5585 16.8717 26.8645 16.7173 27.1846 16.5484L27.5197 16.375C27.6943 16.2844 27.8687 16.1936 28.0427 16.1018C28.2116 16.0129 28.3812 15.9254 28.551 15.8381L28.7067 15.7546C29.027 15.5915 29.3142 15.4882 29.6762 15.5633C29.9067 15.6481 30.1196 15.7586 30.336 15.8746L30.521 15.97C30.7149 16.0702 30.9079 16.1718 31.1009 16.2736C31.2954 16.3755 31.4901 16.477 31.6851 16.5779C31.8061 16.6406 31.9269 16.7039 32.0474 16.7678L32.2119 16.8535L32.3569 16.93L32.4756 16.9755L32.6089 16.9083C32.0912 15.9595 31.5683 15.0149 31.0242 14.0811C30.6182 13.3825 30.2277 12.6753 29.8373 11.9677C29.7184 11.7531 29.5978 11.5396 29.4763 11.3265H29.343Z" stroke="#232C37"/>
<path d="M26 17L29 11.5L31 13.5L32.5 16V17L30.5 16H29L26 17Z" fill="#0A9D4E" stroke="#0A9D4E"/>
</svg>
