<svg width="40" height="40" viewBox="0 0 40 40" fill="none" xmlns="http://www.w3.org/2000/svg">
<g id="Frame">
<g id="Group">
<path id="Vector" d="M19.8047 2L2 9.0935V30.5159L19.8047 37.6094L37.6094 30.5159V9.0935L19.8047 2Z" fill="#399349"/>
<path id="Vector_2" d="M19.8047 37.6094L37.6094 30.5159V26.2598L19.8047 33.3533V37.6094Z" fill="#E36415"/>
<path id="Vector_3" d="M19.8047 2L2 9.0935L19.8047 16.187L37.6094 9.0935L19.8047 2Z" fill="#FFE3A9"/>
<path id="Vector_4" d="M4.67383 10.1575L19.8043 16.187L34.9347 10.1575L19.8043 4.12805L4.67383 10.1575Z" fill="#FFCB5D"/>
<path id="Vector_5" d="M2 9.09351L19.8047 16.187V37.6094L2 30.5159V9.09351Z" fill="#47B85C"/>
<g id="Group_2">
<path id="Vector_6" d="M19.8047 22.5712L2 15.4777V12.6403L19.8047 19.7338V22.5712ZM9.0935 20.4289V23.2663L4.8374 21.571V18.7336L9.0935 20.4289ZM16.9673 23.5713V26.4087L12.7112 24.7134V21.876L16.9673 23.5713ZM3.06403 18.0313L2 19.0244L3.06403 20.8687L4.12805 19.8756L3.06403 18.0313ZM10.9023 21.1525L9.80285 22.1314L10.9023 23.9899L11.9309 22.9826L10.9023 21.1525ZM18.7407 24.2736L17.6766 25.2667L18.7407 27.111L19.8047 26.1179L18.7407 24.2736Z" fill="#FFE3A9"/>
</g>
<g id="Group_3">
<path id="Vector_7" d="M19.8047 22.5712L37.6094 15.4777V12.6403L19.8047 19.7338V22.5712ZM30.5159 20.4289V23.2663L34.772 21.571V18.7336L30.5159 20.4289ZM22.6421 23.5713V32.2254L26.8982 30.5301V21.876L22.6421 23.5713ZM36.5453 18.0313L37.6094 19.0244L36.5453 20.8687L35.4813 19.8756L36.5453 18.0313ZM28.707 21.1525L29.8065 22.1314L28.707 23.9899L27.6785 22.9826L28.707 21.1525ZM20.8687 24.2736L21.9327 25.2667L20.8687 27.111L19.8047 26.1179L20.8687 24.2736Z" fill="#FFCB5D"/>
</g>
<path id="Vector_8" d="M19.8047 37.6094L2 30.5159V26.2598L19.8047 33.3533V37.6094Z" fill="#EF8039"/>
<path id="Vector_9" d="M19.8047 35.0982L17.322 34.1122V32.3672L16.6126 32.0835V33.8285L11.2216 31.6792V29.9342L10.5122 29.6504V31.3954L5.19208 29.2745V27.5295L4.48273 27.2457V28.9978L2 28.0047V28.7708L7.60387 31.0053V32.7503L8.31322 33.034V31.2819L13.4915 33.3461V35.0911L14.2008 35.3749V33.6299L19.8047 35.8643V35.0982Z" fill="#E36415"/>
<path id="Vector_10" d="M19.8047 35.0982L22.2874 34.1122V32.3672L22.9968 32.0835V33.8285L28.3878 31.6792V29.9342L29.0972 29.6504V31.3954L34.4173 29.2745V27.5295L35.1266 27.2457V28.9978L37.6094 28.0047V28.7708L32.0055 31.0053V32.7503L31.2962 33.034V31.2819L26.1179 33.3461V35.0911L25.4086 35.3749V33.6299L19.8047 35.8643V35.0982Z" fill="#B24E10"/>
<path id="Vector_11" d="M24.7697 26.4087L22.6416 32.2254L26.8977 30.53L24.7697 26.4087Z" fill="#FFB30F"/>
</g>
</g>
</svg>
