<svg width="41" height="40" viewBox="0 0 41 40" fill="none" xmlns="http://www.w3.org/2000/svg">
<g id="Frame 43">
<g id="Group">
<path id="Vector" d="M20.224 22.2289L37.2737 15.1868C37.2928 15.1789 37.3135 15.1761 37.3318 15.1693V15.077C37.3318 14.9473 37.3001 14.8195 37.2394 14.7048C37.1787 14.5901 37.0909 14.492 36.9836 14.4191C36.8763 14.3461 36.7528 14.3005 36.6238 14.2862C36.4949 14.2719 36.3644 14.2893 36.2437 14.337L35.7404 14.5359V10.7961C35.7404 10.6625 35.7068 10.531 35.6426 10.4139C35.5784 10.2967 35.4858 10.1976 35.3732 10.1256C35.2606 10.0537 35.1317 10.0112 34.9984 10.0022C34.8652 9.99319 34.7317 10.0179 34.6105 10.074C33.0493 10.8044 30.2377 12.0398 28.579 12.3163C26.1919 12.7142 21.8154 13.5099 20.224 17.4884C18.6326 13.5099 14.2562 12.7142 11.869 12.3163C10.2104 12.0378 7.39873 10.8044 5.83755 10.0736C5.7163 10.0175 5.58288 9.99279 5.44959 10.0018C5.3163 10.0108 5.18742 10.0533 5.07485 10.1252C4.96228 10.1972 4.86963 10.2963 4.80546 10.4135C4.74128 10.5306 4.70764 10.6621 4.70764 10.7957V14.5355L4.20435 14.3366C4.08358 14.2889 3.95297 14.2715 3.82392 14.2858C3.69486 14.3002 3.57128 14.3459 3.46396 14.419C3.35664 14.4921 3.26884 14.5904 3.20823 14.7052C3.14761 14.82 3.11602 14.948 3.11621 15.0778V15.1701C3.13531 15.1769 3.156 15.1797 3.1743 15.1876L20.224 22.2289Z" fill="#0A9D4E"/>
<path id="Vector_2" d="M37.4263 15.957L20.2242 23.0611L3.02213 15.957C2.90124 15.9072 2.76994 15.888 2.63985 15.901C2.50975 15.914 2.38486 15.9588 2.2762 16.0315C2.16754 16.1042 2.07846 16.2026 2.01684 16.3179C1.95521 16.4332 1.92293 16.5619 1.92285 16.6927V16.956C1.9228 17.1136 1.9695 17.2676 2.05704 17.3985C2.14458 17.5295 2.26902 17.6315 2.4146 17.6917L16.5269 23.5207L6.45841 29.0755C6.38106 29.1181 6.32008 29.1852 6.28506 29.2663C6.25005 29.3473 6.24299 29.4377 6.26501 29.5233C6.28702 29.6088 6.33686 29.6845 6.40666 29.7386C6.47647 29.7927 6.56228 29.822 6.65057 29.8219H10.6832C10.9397 29.8219 11.1923 29.76 11.4197 29.6413L20.2242 25.0476L29.0288 29.6413C29.2561 29.76 29.5088 29.8219 29.7652 29.8219H33.7979C33.8862 29.8221 33.9721 29.7928 34.0419 29.7388C34.1118 29.6847 34.1617 29.609 34.1838 29.5234C34.2059 29.4379 34.1988 29.3475 34.1638 29.2664C34.1288 29.1853 34.0678 29.1181 33.9904 29.0755L23.9215 23.5207L38.0338 17.6917C38.1794 17.6315 38.3039 17.5295 38.3914 17.3985C38.479 17.2676 38.5257 17.1136 38.5256 16.956V16.6927C38.5256 16.5619 38.4934 16.4331 38.4318 16.3178C38.3702 16.2024 38.2811 16.104 38.1724 16.0313C38.0637 15.9585 37.9388 15.9137 37.8087 15.9008C37.6785 15.8878 37.5472 15.9071 37.4263 15.957Z" fill="#1E2125"/>
</g>
</g>
</svg>
