<svg width="24" height="25" viewBox="0 0 24 25" fill="none" xmlns="http://www.w3.org/2000/svg">
<path d="M12.5438 21.5C10.1587 21.5 8.13841 20.6767 6.48304 19.0302C4.82768 17.3836 4 15.3742 4 13.0017C4 10.6293 4.82768 8.61924 6.48304 6.97155C8.13841 5.32385 10.1587 4.5 12.5438 4.5C13.8758 4.5 15.1362 4.7946 16.325 5.3838C17.5139 5.97299 18.5026 6.80447 19.2913 7.87825V5.35C19.2913 5.10917 19.3732 4.90729 19.537 4.74438C19.7008 4.58146 19.9038 4.5 20.146 4.5C20.3882 4.5 20.5911 4.58146 20.7546 4.74438C20.9182 4.90729 21 5.10917 21 5.35V10.4064C21 10.6966 20.9013 10.9399 20.704 11.1362C20.5066 11.3326 20.2621 11.4307 19.9704 11.4307H14.8879C14.6458 11.4307 14.4429 11.3492 14.2792 11.1863C14.1154 11.0233 14.0335 10.8213 14.0335 10.5804C14.0335 10.3394 14.1154 10.1376 14.2792 9.97487C14.4429 9.81214 14.6458 9.73078 14.8879 9.73078H18.5333C17.933 8.63667 17.1005 7.77467 16.0358 7.14478C14.9711 6.51491 13.8071 6.19998 12.5438 6.19998C10.6452 6.19998 9.03135 6.86109 7.70231 8.18332C6.37327 9.50554 5.70874 11.1111 5.70874 13C5.70874 14.8889 6.37327 16.4945 7.70231 17.8167C9.03135 19.1389 10.6452 19.8 12.5438 19.8C13.8678 19.8 15.0799 19.4542 16.18 18.7626C17.28 18.0709 18.1134 17.1483 18.6801 15.9946C18.7881 15.7883 18.947 15.6441 19.1565 15.562C19.3661 15.4799 19.5797 15.4752 19.7974 15.5478C20.0296 15.6205 20.192 15.7716 20.2847 16.0011C20.3775 16.2307 20.3698 16.4487 20.2617 16.655C19.5563 18.1225 18.515 19.2969 17.1377 20.1781C15.7604 21.0594 14.2292 21.5 12.5438 21.5Z" fill="#374957"/>
</svg>
