<svg width="25" height="24" viewBox="0 0 25 24" fill="none" xmlns="http://www.w3.org/2000/svg">
<g id="fi-rr-share">
<path id="Vector" d="M18.003 13.9999C17.4366 14.0003 16.8788 14.1388 16.3778 14.4032C15.8767 14.6677 15.4475 15.0502 15.1271 15.5178L10.2509 13.3136C10.5972 12.4764 10.5986 11.536 10.2547 10.6978L15.1241 8.4824C15.5989 9.16993 16.3042 9.66431 17.112 9.87586C17.9198 10.0874 18.7765 10.0021 19.5269 9.63547C20.2772 9.26881 20.8714 8.64506 21.2017 7.87738C21.532 7.1097 21.5766 6.24892 21.3272 5.45119C21.0779 4.65346 20.5512 3.97161 19.8427 3.52932C19.1342 3.08704 18.2908 2.91362 17.4655 3.04052C16.6403 3.16741 15.8877 3.58622 15.3445 4.22097C14.8012 4.85573 14.5032 5.66438 14.5045 6.50025C14.5077 6.69809 14.5278 6.8953 14.5645 7.08972L9.3879 9.4446C8.89073 8.97829 8.26832 8.66752 7.59714 8.55047C6.92596 8.43342 6.23524 8.51519 5.60984 8.78573C4.98445 9.05627 4.45161 9.5038 4.07679 10.0733C3.70198 10.6429 3.50151 11.3096 3.50001 11.9917C3.49851 12.6737 3.69605 13.3413 4.06837 13.9125C4.44068 14.4837 4.97155 14.9335 5.59575 15.2068C6.21995 15.4801 6.9103 15.5649 7.58199 15.4508C8.25368 15.3367 8.87745 15.0287 9.37666 14.5646L14.5667 16.9105C14.5307 17.1047 14.5109 17.3016 14.5075 17.4992C14.5074 18.1915 14.7123 18.8683 15.0964 19.444C15.4805 20.0197 16.0266 20.4684 16.6655 20.7334C17.3043 20.9984 18.0074 21.0678 18.6857 20.9328C19.3639 20.7978 19.987 20.4644 20.476 19.9749C20.965 19.4853 21.298 18.8616 21.4329 18.1826C21.5677 17.5036 21.4984 16.7998 21.2337 16.1602C20.969 15.5206 20.5208 14.974 19.9457 14.5894C19.3706 14.2049 18.6946 13.9997 18.003 13.9999ZM18.003 4.50011C18.3982 4.49996 18.7846 4.61714 19.1132 4.83683C19.4419 5.05652 19.6981 5.36885 19.8494 5.73431C20.0008 6.09978 20.0404 6.50196 19.9634 6.89C19.8864 7.27804 19.6962 7.6345 19.4168 7.9143C19.1374 8.19411 18.7814 8.38468 18.3938 8.46191C18.0062 8.53915 17.6045 8.49958 17.2394 8.34822C16.8742 8.19685 16.5621 7.94049 16.3426 7.61155C16.123 7.28261 16.0058 6.89588 16.0058 6.50025C16.0062 5.97003 16.2167 5.46163 16.5912 5.08664C16.9656 4.71165 17.4734 4.5007 18.003 4.50011ZM7.01612 13.9999C6.62093 14 6.23457 13.8828 5.90591 13.6631C5.57725 13.4435 5.32105 13.1311 5.16972 12.7657C5.01838 12.4002 4.97871 11.998 5.05572 11.61C5.13272 11.2219 5.32295 10.8655 5.60234 10.5857C5.88173 10.3059 6.23773 10.1153 6.62532 10.0381C7.0129 9.96082 7.41466 10.0004 7.77979 10.1518C8.14491 10.3031 8.45699 10.5595 8.67656 10.8884C8.89613 11.2174 9.01333 11.6041 9.01333 11.9997C9.01274 12.5299 8.80215 13.0382 8.42775 13.4131C8.05335 13.7881 7.5457 13.9991 7.01612 13.9999ZM18.003 19.4993C17.6079 19.4993 17.2216 19.382 16.893 19.1622C16.5644 18.9425 16.3084 18.6301 16.1571 18.2646C16.0059 17.8991 15.9664 17.497 16.0434 17.109C16.1205 16.721 16.3108 16.3646 16.5902 16.0849C16.8697 15.8051 17.2257 15.6146 17.6132 15.5375C18.0008 15.4603 18.4025 15.4999 18.7676 15.6513C19.1327 15.8027 19.4447 16.059 19.6643 16.388C19.8838 16.7169 20.001 17.1036 20.001 17.4992C20.0006 18.0295 19.7899 18.538 19.4153 18.9131C19.0407 19.2881 18.5328 19.4989 18.003 19.4993Z" fill="#374957"/>
</g>
</svg>
