<svg width="30" height="30" viewBox="0 0 30 30" fill="none" xmlns="http://www.w3.org/2000/svg">
<g id="Frame 146">
<g id="1">
<path id="Vector 8" d="M21.7626 20.3489H8.48047L14.5205 24.1351L12.5792 24.4466C12.4031 24.4749 12.3527 24.7044 12.5009 24.8038L15.7212 26.9651C15.9006 27.0855 16.1147 26.8701 15.9932 26.6914L15.5421 26.0281L18.1624 24.125C18.2747 24.0434 18.2693 23.8742 18.1519 23.7999L15.7825 22.3021L21.7626 20.3489Z" fill="#C68C22"/>
<path id="Ellipse 116" d="M22.1968 19.1388C22.1968 18.1714 22.0138 15.325 21.6583 14.4667C21.3028 13.6085 20.7818 12.8287 20.1249 12.1718C19.468 11.5149 18.6882 10.9938 17.8299 10.6383C16.9717 10.2828 16.0518 10.0999 15.1228 10.0999C14.1939 10.0999 13.274 10.2828 12.4157 10.6383C11.5575 10.9938 10.7776 11.5149 10.1208 12.1718C9.46387 12.8287 8.94281 13.6085 8.5873 14.4667C8.2318 15.325 8.04883 18.2099 8.04883 19.1389L22.1968 19.1388Z" fill="#FFBC42"/>
<rect id="Rectangle 157" x="13.0371" y="3" width="3.93" height="5.502" rx="1.965" fill="#FFBC42"/>
<rect id="Rectangle 158" x="23.1055" y="5.74963" width="3.93" height="5.502" rx="1.965" transform="rotate(40.8397 23.1055 5.74963)" fill="#FFBC42"/>
<rect id="Rectangle 162" width="3.93" height="5.502" rx="1.965" transform="matrix(-0.756542 0.653945 0.653945 0.756542 6.89258 5.75098)" fill="#FFBC42"/>
<rect id="Rectangle 159" x="28.7559" y="14.79" width="3.93" height="5.502" rx="1.965" transform="rotate(90 28.7559 14.79)" fill="#FFBC42"/>
<rect id="Rectangle 164" width="3.93" height="5.502" rx="1.965" transform="matrix(4.37114e-08 1 1 -4.37114e-08 1.24609 14.7913)" fill="#FFBC42"/>
</g>
</g>
</svg>
