<svg width="26" height="23" viewBox="0 0 26 23" fill="none" xmlns="http://www.w3.org/2000/svg">
<path d="M20.0796 0.0127911C19.9042 0.0200776 19.7336 0.0715938 19.5835 0.162547C19.4334 0.2535 19.3088 0.380936 19.2212 0.532996C18.2276 2.05199 16.7242 4.55418 16.7242 5.79747C16.7242 6.68735 17.0777 7.54079 17.707 8.17004C18.3362 8.79928 19.1897 9.15279 20.0796 9.15279C20.9694 9.15279 21.8229 8.79928 22.4521 8.17004C23.0814 7.54079 23.4349 6.68735 23.4349 5.79747C23.4349 4.55418 21.9263 2.05199 20.9327 0.532996C20.8456 0.381657 20.7218 0.254681 20.5727 0.16377C20.4236 0.0728591 20.254 0.0209379 20.0796 0.0127911ZM21.5465 5.1264C21.6845 5.1264 21.8168 5.18121 21.9144 5.27877C22.0119 5.37632 22.0667 5.50864 22.0667 5.64661C22.0627 6.17238 21.852 6.67546 21.4802 7.04725C21.1084 7.41903 20.6053 7.62971 20.0796 7.63379C19.9416 7.63379 19.8093 7.57898 19.7117 7.48143C19.6142 7.38387 19.5593 7.25155 19.5593 7.11359C19.5593 6.97562 19.6142 6.8433 19.7117 6.74575C19.8093 6.64819 19.9416 6.59338 20.0796 6.59338C20.2041 6.59407 20.3275 6.57005 20.4427 6.52272C20.5579 6.47538 20.6625 6.40567 20.7506 6.31762C20.8386 6.22956 20.9083 6.12492 20.9557 6.00974C21.003 5.89456 21.027 5.77113 21.0263 5.64661C21.0263 5.50864 21.0811 5.37632 21.1787 5.27877C21.2762 5.18121 21.4086 5.1264 21.5465 5.1264ZM14.7371 3.21205C14.7504 3.46385 14.7123 3.71574 14.6251 3.95234C14.538 4.18895 14.4035 4.40533 14.23 4.58828C14.0565 4.77124 13.8475 4.91695 13.6159 5.01652C13.3842 5.11609 13.1347 5.16744 12.8825 5.16744C12.6304 5.16744 12.3809 5.11609 12.1492 5.01652C11.9175 4.91695 11.7086 4.77124 11.535 4.58828C11.3615 4.40533 11.2271 4.18895 11.1399 3.95234C11.0527 3.71574 11.0147 3.46385 11.028 3.21205C11.028 2.52538 11.8603 1.13123 12.4117 0.298904C12.4537 0.209534 12.5203 0.133968 12.6037 0.0810379C12.6871 0.0281077 12.7838 0 12.8825 0C12.9813 0 13.078 0.0281077 13.1614 0.0810379C13.2447 0.133968 13.3113 0.209534 13.3533 0.298904C13.9047 1.14164 14.7371 2.52538 14.7371 3.21205Z" fill="#94D8E5"/>
<path d="M22.1248 16.5449C22.1248 16.3994 22.0962 16.2553 22.0405 16.1209C21.9848 15.9864 21.9032 15.8643 21.8003 15.7614C21.6974 15.6585 21.5753 15.5769 21.4408 15.5212C21.3064 15.4655 21.1623 15.4368 21.0168 15.4368H19.7371C20.0185 15.4176 20.2821 15.2922 20.4747 15.086C20.6672 14.8799 20.7743 14.6083 20.7743 14.3262C20.7743 14.0441 20.6672 13.7726 20.4747 13.5664C20.2821 13.3602 20.0185 13.2348 19.7371 13.2156H15.9864C16.1387 13.226 16.2914 13.205 16.4352 13.1539C16.579 13.1028 16.7108 13.0227 16.8223 12.9186C16.9338 12.8144 17.0227 12.6884 17.0835 12.5485C17.1443 12.4085 17.1757 12.2575 17.1757 12.1049C17.1757 11.9523 17.1443 11.8014 17.0835 11.6614C17.0227 11.5214 16.9338 11.3955 16.8223 11.2913C16.7108 11.1872 16.579 11.107 16.4352 11.056C16.2914 11.0049 16.1387 10.9839 15.9864 10.9943H12.912C11.7358 10.9942 10.5829 11.3221 9.5827 11.9411L8.71396 12.4613C8.12042 12.8294 7.43564 13.0241 6.73718 13.0231H4.75V20.0823H6.73718C7.43163 20.0688 8.11612 20.2489 8.71396 20.6025L9.5827 21.1227C10.5829 21.7417 11.7358 22.0695 12.912 22.0695H18.525C18.8064 22.0502 19.0701 21.9248 19.2626 21.7186C19.4551 21.5125 19.5622 21.2409 19.5622 20.9588C19.5622 20.6767 19.4551 20.4052 19.2626 20.199C19.0701 19.9928 18.8064 19.8675 18.525 19.8482H19.7371C20.031 19.8482 20.3128 19.7314 20.5206 19.5236C20.7284 19.3159 20.8451 19.034 20.8451 18.7401C20.8451 18.4463 20.7284 18.1644 20.5206 17.9566C20.3128 17.7489 20.031 17.6321 19.7371 17.6321H21.0064C21.2985 17.6349 21.5799 17.5222 21.7893 17.3186C21.9988 17.115 22.1194 16.8369 22.1248 16.5449Z" fill="#EFC89D"/>
<path d="M1.0144 11.785C0.742998 11.7918 0.485 11.9044 0.295476 12.0988C0.105952 12.2932 -8.48014e-05 12.554 5.08859e-08 12.8255V20.3008C5.08859e-08 20.5767 0.109614 20.8414 0.304729 21.0365C0.499844 21.2316 0.764476 21.3412 1.04041 21.3412H3.76108C4.03701 21.3412 4.30165 21.2316 4.49676 21.0365C4.69188 20.8414 4.80149 20.5767 4.80149 20.3008V12.7994C4.80149 12.5235 4.69188 12.2589 4.49676 12.0638C4.30165 11.8686 4.03701 11.759 3.76108 11.759L1.0144 11.785ZM2.35653 17.8766C2.49449 17.8766 2.62681 17.9314 2.72437 18.029C2.82192 18.1266 2.87673 18.2589 2.87673 18.3968V19.1251C2.87673 19.2631 2.82192 19.3954 2.72437 19.493C2.62681 19.5905 2.49449 19.6453 2.35653 19.6453C2.21856 19.6453 2.08624 19.5905 1.98869 19.493C1.89113 19.3954 1.83632 19.2631 1.83632 19.1251V18.3968C1.83632 18.2589 1.89113 18.1266 1.98869 18.029C2.08624 17.9314 2.21856 17.8766 2.35653 17.8766Z" fill="#F0F4F7"/>
<path d="M18.8787 10.9943H16.1008C16.3778 11.0315 16.6307 11.1715 16.8092 11.3866C16.9877 11.6016 17.0788 11.876 17.0644 12.1551C17.05 12.4342 16.9311 12.6977 16.7314 12.8932C16.5317 13.0887 16.2657 13.202 15.9863 13.2104H18.8787C19.1601 13.1911 19.4237 13.0658 19.6162 12.8596C19.8088 12.6534 19.9158 12.3819 19.9158 12.0998C19.9158 11.8177 19.8088 11.5461 19.6162 11.34C19.4237 11.1338 19.1601 11.0084 18.8787 10.9891V10.9943ZM19.737 13.2156C20.0184 13.2349 20.282 13.3603 20.4746 13.5664C20.6671 13.7726 20.7742 14.0442 20.7742 14.3262C20.7742 14.6083 20.6671 14.8799 20.4746 15.0861C20.282 15.2922 20.0184 15.4176 19.737 15.4369H21.0011C21.1533 15.4265 21.3061 15.4474 21.4499 15.4985C21.5937 15.5496 21.7254 15.6297 21.837 15.7339C21.9485 15.8381 22.0374 15.964 22.0982 16.104C22.159 16.244 22.1904 16.3949 22.1904 16.5475C22.1904 16.7001 22.159 16.8511 22.0982 16.9911C22.0374 17.131 21.9485 17.257 21.837 17.3611C21.7254 17.4653 21.5937 17.5454 21.4499 17.5965C21.3061 17.6476 21.1533 17.6686 21.0011 17.6582H19.737C19.8825 17.6582 20.0266 17.6868 20.161 17.7425C20.2955 17.7982 20.4176 17.8798 20.5205 17.9827C20.6234 18.0856 20.705 18.2077 20.7607 18.3422C20.8164 18.4766 20.845 18.6207 20.845 18.7662C20.845 18.9117 20.8164 19.0558 20.7607 19.1902C20.705 19.3247 20.6234 19.4468 20.5205 19.5497C20.4176 19.6526 20.2955 19.7342 20.161 19.7899C20.0266 19.8456 19.8825 19.8742 19.737 19.8742H18.5249C18.8064 19.8935 19.07 20.0189 19.2625 20.2251C19.455 20.4312 19.5621 20.7028 19.5621 20.9849C19.5621 21.267 19.455 21.5385 19.2625 21.7447C19.07 21.9508 18.8064 22.0762 18.5249 22.0955H21.4121C21.5643 22.1059 21.7171 22.0849 21.8609 22.0339C22.0047 21.9828 22.1364 21.9026 22.2479 21.7985C22.3595 21.6943 22.4484 21.5684 22.5092 21.4284C22.57 21.2884 22.6014 21.1375 22.6014 20.9849C22.6014 20.8323 22.57 20.6813 22.5092 20.5413C22.4484 20.4014 22.3595 20.2754 22.2479 20.1712C22.1364 20.0671 22.0047 19.987 21.8609 19.9359C21.7171 19.8848 21.5643 19.8638 21.4121 19.8742H22.6449C22.7905 19.8742 22.9345 19.8456 23.069 19.7899C23.2034 19.7342 23.3256 19.6526 23.4284 19.5497C23.5313 19.4468 23.613 19.3247 23.6686 19.1902C23.7243 19.0558 23.753 18.9117 23.753 18.7662C23.753 18.6207 23.7243 18.4766 23.6686 18.3422C23.613 18.2077 23.5313 18.0856 23.4284 17.9827C23.3256 17.8798 23.2034 17.7982 23.069 17.7425C22.9345 17.6868 22.7905 17.6582 22.6449 17.6582H23.8934C24.1749 17.6389 24.4385 17.5135 24.631 17.3073C24.8235 17.1012 24.9306 16.8296 24.9306 16.5475C24.9306 16.2654 24.8235 15.9939 24.631 15.7877C24.4385 15.5815 24.1749 15.4562 23.8934 15.4369H22.6449C22.7972 15.4473 22.95 15.4263 23.0937 15.3752C23.2375 15.3241 23.3693 15.244 23.4808 15.1399C23.5923 15.0357 23.6813 14.9097 23.7421 14.7698C23.8029 14.6298 23.8342 14.4788 23.8342 14.3262C23.8342 14.1736 23.8029 14.0227 23.7421 13.8827C23.6813 13.7427 23.5923 13.6168 23.4808 13.5126C23.3693 13.4085 23.2375 13.3284 23.0937 13.2773C22.95 13.2262 22.7972 13.2052 22.6449 13.2156H19.737Z" fill="#F6A96C"/>
<path d="M12.7618 10.4897C11.5067 10.4899 10.2765 10.8394 9.20875 11.4989L8.35562 12.0191C7.85197 12.3292 7.27201 12.4931 6.68056 12.4925H4.70898C4.73627 12.589 4.75027 12.6888 4.7506 12.7891V13.5329H6.67536C7.45972 13.5324 8.22858 13.3145 8.89663 12.9035L9.74977 12.3833C10.6549 11.8245 11.698 11.529 12.7618 11.5302H16.0078C16.0879 11.5225 16.1687 11.5317 16.245 11.5571C16.3214 11.5826 16.3915 11.6236 16.451 11.6778C16.5106 11.7319 16.5581 11.7978 16.5907 11.8714C16.6232 11.945 16.64 12.0245 16.64 12.105C16.64 12.1854 16.6232 12.265 16.5907 12.3386C16.5581 12.4121 16.5106 12.4781 16.451 12.5322C16.3915 12.5863 16.3214 12.6274 16.245 12.6528C16.1687 12.6782 16.0879 12.6874 16.0078 12.6798H13.3548C13.2168 12.6798 13.0845 12.7346 12.9869 12.8322C12.8894 12.9297 12.8346 13.062 12.8346 13.2C12.8346 13.338 12.8894 13.4703 12.9869 13.5679C13.0845 13.6654 13.2168 13.7202 13.3548 13.7202H19.6961C19.8478 13.7202 19.9934 13.7805 20.1007 13.8878C20.208 13.9951 20.2683 14.1407 20.2683 14.2924C20.2683 14.4442 20.208 14.5898 20.1007 14.6971C19.9934 14.8044 19.8478 14.8647 19.6961 14.8647H15.5344C15.3965 14.8647 15.2642 14.9195 15.1666 15.017C15.069 15.1146 15.0142 15.2469 15.0142 15.3849C15.0142 15.5228 15.069 15.6552 15.1666 15.7527C15.2642 15.8503 15.3965 15.9051 15.5344 15.9051H20.9446C21.0247 15.8975 21.1054 15.9066 21.1818 15.9321C21.2581 15.9575 21.3283 15.9986 21.3878 16.0527C21.4473 16.1068 21.4949 16.1728 21.5274 16.2463C21.5599 16.3199 21.5767 16.3995 21.5767 16.4799C21.5767 16.5603 21.5599 16.6399 21.5274 16.7135C21.4949 16.787 21.4473 16.853 21.3878 16.9071C21.3283 16.9612 21.2581 17.0023 21.1818 17.0277C21.1054 17.0532 21.0247 17.0624 20.9446 17.0547H15.5396C15.4017 17.0547 15.2694 17.1095 15.1718 17.2071C15.0742 17.3047 15.0194 17.437 15.0194 17.5749C15.0194 17.7129 15.0742 17.8452 15.1718 17.9428C15.2694 18.0403 15.4017 18.0951 15.5396 18.0951H19.7013C19.853 18.0951 19.9986 18.1554 20.1059 18.2627C20.2132 18.3701 20.2735 18.5156 20.2735 18.6674C20.2735 18.8191 20.2132 18.9647 20.1059 19.072C19.9986 19.1793 19.853 19.2396 19.7013 19.2396H15.5396C15.4017 19.2396 15.2694 19.2944 15.1718 19.392C15.0742 19.4895 15.0194 19.6218 15.0194 19.7598C15.0194 19.8978 15.0742 20.0301 15.1718 20.1276C15.2694 20.2252 15.4017 20.28 15.5396 20.28H18.484C18.627 20.2936 18.7598 20.3601 18.8565 20.4664C18.9531 20.5727 19.0067 20.7112 19.0067 20.8548C19.0067 20.9985 18.9531 21.137 18.8565 21.2433C18.7598 21.3496 18.627 21.416 18.484 21.4297H12.7618C11.6992 21.4282 10.6581 21.131 9.75497 20.5713L8.90183 20.0511C8.23522 19.6362 7.46573 19.4164 6.68056 19.4165H4.7506V20.306C4.75336 20.3563 4.75336 20.4066 4.7506 20.4569H6.67536C7.26727 20.4581 7.8472 20.6238 8.35042 20.9355L9.20355 21.4557C10.2681 22.1262 11.4985 22.4865 12.7565 22.4961H18.484C18.9118 22.4933 19.3211 22.3218 19.6231 22.0189C19.9251 21.7159 20.0953 21.306 20.0966 20.8782C20.0579 20.6492 19.9671 20.4321 19.8313 20.2436C20.2252 20.2113 20.5931 20.0337 20.8633 19.7453C21.1335 19.4568 21.2867 19.0782 21.2931 18.683C21.2551 18.4594 21.1661 18.2476 21.033 18.0639C21.4469 18.0639 21.8439 17.8995 22.1365 17.6068C22.4292 17.3142 22.5936 16.9172 22.5936 16.5033C22.5936 16.0894 22.4292 15.6925 22.1365 15.3998C21.8439 15.1071 21.4469 14.9427 21.033 14.9427C21.1266 14.7346 21.2931 14.5629 21.2931 14.3237C21.2904 13.8959 21.1189 13.4865 20.8159 13.1845C20.513 12.8826 20.103 12.7124 19.6753 12.711H17.3812C17.4644 12.5133 17.6205 12.3573 17.6205 12.1336C17.6177 11.7058 17.4462 11.2965 17.1433 10.9945C16.8403 10.6925 16.4304 10.5223 16.0026 10.521L12.7618 10.4897Z" fill="#EBB87F"/>
<path d="M2.35614 17.8766C2.21818 17.8766 2.08586 17.9315 1.9883 18.029C1.89074 18.1266 1.83594 18.2589 1.83594 18.3969V19.1251C1.83594 19.2631 1.89074 19.3954 1.9883 19.493C2.08586 19.5905 2.21818 19.6453 2.35614 19.6453C2.49411 19.6453 2.62643 19.5905 2.72398 19.493C2.82154 19.3954 2.87635 19.2631 2.87635 19.1251V18.3969C2.87635 18.2589 2.82154 18.1266 2.72398 18.029C2.62643 17.9315 2.49411 17.8766 2.35614 17.8766Z" fill="#748A95"/>
<path d="M16.0059 10.4897C16.332 10.4921 16.6498 10.5925 16.918 10.7781C17.1862 10.9637 17.3922 11.2258 17.5093 11.5302H18.9658C19.0459 11.5225 19.1267 11.5317 19.203 11.5571C19.2793 11.5826 19.3495 11.6236 19.409 11.6778C19.4686 11.7319 19.5161 11.7978 19.5486 11.8714C19.5812 11.945 19.598 12.0245 19.598 12.105C19.598 12.1854 19.5812 12.265 19.5486 12.3386C19.5161 12.4121 19.4686 12.4781 19.409 12.5322C19.3495 12.5863 19.2793 12.6274 19.203 12.6528C19.1267 12.6782 19.0459 12.6874 18.9658 12.6798H19.6941C20.0213 12.6804 20.3406 12.7801 20.6099 12.9658C20.8792 13.1516 21.0859 13.4146 21.2027 13.7202H22.6437C22.7975 13.7202 22.945 13.7813 23.0538 13.8901C23.1626 13.9989 23.2237 14.1464 23.2237 14.3002C23.2237 14.4541 23.1626 14.6016 23.0538 14.7104C22.945 14.8192 22.7975 14.8803 22.6437 14.8803H21.0831C21.0725 14.8947 21.0637 14.9105 21.057 14.9271C21.3577 14.9484 21.6466 15.0526 21.8917 15.2279C22.1368 15.4033 22.3287 15.643 22.446 15.9207H23.9078C24.0508 15.9343 24.1836 16.0008 24.2802 16.107C24.3769 16.2133 24.4304 16.3518 24.4304 16.4955C24.4304 16.6392 24.3769 16.7777 24.2802 16.884C24.1836 16.9903 24.0508 17.0567 23.9078 17.0703H22.446C22.3283 17.3487 22.1356 17.589 21.8895 17.7644C21.6434 17.9398 21.3534 18.0435 21.0518 18.0639L21.0779 18.1107H22.6385C22.7902 18.1107 22.9358 18.171 23.0431 18.2783C23.1504 18.3857 23.2107 18.5312 23.2107 18.683C23.2107 18.8347 23.1504 18.9803 23.0431 19.0876C22.9358 19.1949 22.7902 19.2552 22.6385 19.2552H21.1975C21.0799 19.5231 20.8931 19.7548 20.6563 19.9267C20.4195 20.0986 20.1413 20.2043 19.8502 20.2332C19.8604 20.2551 19.8725 20.276 19.8866 20.2956H21.4472C21.5902 20.3092 21.723 20.3757 21.8197 20.482C21.9163 20.5883 21.9699 20.7268 21.9699 20.8704C21.9699 21.0141 21.9163 21.1526 21.8197 21.2589C21.723 21.3652 21.5902 21.4316 21.4472 21.4453H20.0062C19.8892 21.7496 19.6831 22.0117 19.415 22.1973C19.1468 22.3829 18.829 22.4834 18.5028 22.4857H21.468C21.7322 22.4865 21.9925 22.4223 22.226 22.2985C22.4594 22.1748 22.6588 21.9955 22.8064 21.7764C22.954 21.5573 23.0453 21.3052 23.0723 21.0423C23.0993 20.7795 23.061 20.5141 22.961 20.2696C23.3245 20.1975 23.6525 20.0035 23.8908 19.7198C24.1292 19.436 24.2636 19.0795 24.2719 18.709C24.2717 18.5058 24.2329 18.3046 24.1575 18.1159C24.5389 18.0581 24.887 17.8655 25.1386 17.5729C25.3901 17.2804 25.5285 16.9073 25.5285 16.5215C25.5285 16.1357 25.3901 15.7627 25.1386 15.4701C24.887 15.1776 24.5389 14.9849 24.1575 14.9271C24.265 14.6794 24.3085 14.4087 24.2838 14.1398C24.2591 13.871 24.1671 13.6126 24.0163 13.3887C23.8654 13.1648 23.6606 12.9825 23.4207 12.8586C23.1808 12.7347 22.9136 12.6732 22.6437 12.6798H20.4588C20.5277 12.4951 20.563 12.2995 20.5629 12.1024C20.5601 11.6746 20.3886 11.2653 20.0857 10.9633C19.7827 10.6613 19.3728 10.4911 18.945 10.4897H16.0059Z" fill="#EA9B58"/>
<path d="M21.5458 5.1264C21.4078 5.1264 21.2755 5.18121 21.1779 5.27877C21.0804 5.37633 21.0256 5.50864 21.0256 5.64661C21.0263 5.77113 21.0022 5.89456 20.9549 6.00974C20.9076 6.12492 20.8379 6.22956 20.7498 6.31762C20.6618 6.40567 20.5571 6.47538 20.4419 6.52272C20.3267 6.57005 20.2033 6.59407 20.0788 6.59338C19.9408 6.59338 19.8085 6.64819 19.711 6.74575C19.6134 6.8433 19.5586 6.97562 19.5586 7.11359C19.5586 7.25155 19.6134 7.38387 19.711 7.48143C19.8085 7.57898 19.9408 7.63379 20.0788 7.63379C20.6046 7.62971 21.1077 7.41904 21.4794 7.04725C21.8512 6.67546 22.0619 6.17238 22.066 5.64661C22.066 5.50864 22.0112 5.37633 21.9136 5.27877C21.8161 5.18121 21.6837 5.1264 21.5458 5.1264Z" fill="#F0F4F7"/>
</svg>
