<svg width="24" height="21" viewBox="0 0 24 21" fill="none" xmlns="http://www.w3.org/2000/svg">
<path d="M22.8055 10.0632C22.6886 9.90707 22.5202 9.79414 22.3312 9.7277C22.3346 9.48854 22.3175 9.24938 22.2865 9.01354C22.4377 8.94046 22.5683 8.83416 22.6646 8.69133C22.8364 8.43556 22.8776 8.11003 22.7745 7.75793C22.5958 7.34272 22.2075 7.07366 21.7848 7.07366C21.7229 7.07366 21.6645 7.08362 21.6061 7.09359C21.4961 6.89761 21.3655 6.70163 21.2177 6.50233C21.3174 6.36946 21.3861 6.21334 21.4033 6.04061C21.4377 5.74498 21.3346 5.44934 21.1043 5.19357C20.8878 4.99759 20.6129 4.88798 20.3311 4.88798C20.1352 4.88798 19.9531 4.94444 19.7984 5.03745C19.6094 4.88465 19.4238 4.74514 19.2382 4.6156C19.3001 4.44287 19.3173 4.25685 19.2761 4.07084C19.2453 3.93619 19.1852 3.8094 19.0999 3.69888C19.0146 3.58836 18.9059 3.49662 18.7812 3.42975C18.6059 3.33009 18.41 3.27695 18.2141 3.27695C17.9358 3.27695 17.6746 3.38324 17.489 3.56926C17.3 3.47293 17.0938 3.36996 16.867 3.26698C16.8945 3.09093 16.8773 2.90824 16.8086 2.73883C16.7571 2.61169 16.6794 2.49603 16.5801 2.39893C16.4809 2.30183 16.3621 2.22534 16.2312 2.17414C16.0972 2.12099 15.9563 2.09442 15.8154 2.09442C15.4751 2.09442 15.1727 2.24722 14.9803 2.49635C14.7741 2.41663 14.561 2.34355 14.3411 2.26715C14.3514 2.09442 14.3204 1.92501 14.238 1.76557C14.1484 1.59399 14.0114 1.44976 13.8421 1.3489C13.6729 1.24805 13.478 1.19451 13.2791 1.19424C12.8977 1.19424 12.5609 1.39022 12.3788 1.69249C12.1554 1.63602 11.932 1.5862 11.7086 1.53969C11.6954 1.36644 11.6363 1.1994 11.5368 1.05473C11.451 0.938008 11.3422 0.838872 11.2165 0.763045C11.0909 0.687217 10.9509 0.636199 10.8048 0.612938C10.7532 0.606295 10.7017 0.602973 10.6536 0.602973C10.1999 0.602973 9.81847 0.86871 9.6707 1.24738C9.4645 1.23078 9.23768 1.22081 8.96963 1.21749C8.92151 1.05473 8.8356 0.905248 8.70501 0.785667C8.50912 0.602973 8.24794 0.5 7.96613 0.5C7.93177 0.5 7.8974 0.5 7.86991 0.503322C7.56749 0.523252 7.28568 0.669407 7.10354 0.895283C6.9867 1.04144 6.9214 1.21749 6.90078 1.39354C6.66022 1.44004 6.42996 1.49319 6.21002 1.5563C6.11638 1.42425 5.99065 1.31643 5.84385 1.2423C5.69705 1.16817 5.53367 1.12999 5.36805 1.13112C5.20309 1.13112 5.04501 1.16766 4.90067 1.2341C4.61543 1.36032 4.40236 1.58952 4.31988 1.85858C4.25802 2.04792 4.26146 2.24057 4.31988 2.42327C4.11712 2.56942 3.92811 2.71558 3.75627 2.86506C3.60506 2.77869 3.4298 2.72887 3.24765 2.72887L3.17548 2.73219C2.87994 2.76208 2.60501 2.90824 2.41943 3.13411C2.2201 3.3766 2.14106 3.6822 2.19605 3.97451C2.23385 4.1572 2.3232 4.31996 2.45036 4.44951C2.33008 4.6621 2.22698 4.87469 2.14106 5.08063C2.11701 5.07731 2.08951 5.07399 2.06546 5.07399C1.58777 5.07399 1.17881 5.40284 1.0654 5.87452C0.993231 6.17348 1.05165 6.47907 1.23036 6.71824C1.34377 6.86771 1.49841 6.98065 1.67368 7.04708C1.65306 7.28293 1.64619 7.51545 1.6565 7.74132C1.46405 7.80776 1.29565 7.92402 1.18225 8.0901C1.02072 8.32262 0.962301 8.61825 1.02416 8.93382C1.10664 9.22612 1.29565 9.47193 1.54309 9.61477C1.68743 9.69116 1.85239 9.73102 2.01391 9.73102C2.05515 9.73102 2.09639 9.72438 2.13763 9.71774C2.2476 9.94029 2.37819 10.1496 2.53627 10.3422C2.42287 10.5149 2.36444 10.7176 2.3885 10.9235C2.42287 11.2025 2.58439 11.4683 2.86619 11.6908C3.06208 11.8137 3.29577 11.8835 3.51915 11.8835C3.58788 11.8835 3.65661 11.8768 3.7116 11.8669C3.91436 11.8337 4.09994 11.7207 4.24084 11.558C4.46765 11.6476 4.69791 11.7174 4.93847 11.7739C4.94878 11.94 5.00377 12.1027 5.10687 12.2456C5.28213 12.488 5.56394 12.6475 5.91791 12.6907H5.97633C6.27875 12.6907 6.55712 12.581 6.75988 12.3817C6.88016 12.2655 6.96264 12.1227 7.00732 11.9699C7.25132 11.9632 7.48501 11.9532 7.71182 11.9333C7.86304 12.3053 8.24106 12.5644 8.69126 12.5644C8.74281 12.5644 8.79436 12.5611 8.8356 12.5545C8.9764 12.5397 9.11245 12.4967 9.23498 12.428C9.3575 12.3594 9.46379 12.2667 9.54698 12.1559C9.66383 12.0031 9.72568 11.8237 9.74287 11.6377C9.98343 11.5879 10.2068 11.5414 10.4199 11.4915C10.602 11.7971 10.9457 11.9964 11.334 11.9964C11.4302 11.9964 11.5265 11.9831 11.6227 11.9599C11.9011 11.8868 12.1279 11.7108 12.2653 11.465C12.3547 11.3055 12.3925 11.1295 12.3891 10.9501C12.5884 10.887 12.7911 10.8239 13.0042 10.7541C13.0077 10.7541 13.0111 10.7508 13.0145 10.7508C13.207 11.1029 13.5678 11.3421 13.9527 11.3421H14.0043C14.4132 11.3155 14.7741 11.0365 14.9287 10.6578C15.1384 10.691 15.3377 10.7342 15.5336 10.7906C15.5061 11.2158 15.7329 11.6211 16.1315 11.8004C16.2621 11.8602 16.403 11.8901 16.5542 11.8901C16.8429 11.8901 17.1213 11.7739 17.3275 11.5779C17.5131 11.6908 17.6815 11.8071 17.843 11.9267C17.6608 12.3053 17.7124 12.7604 18.0045 13.0727C18.197 13.2686 18.465 13.3749 18.7606 13.3749C18.9186 13.3749 19.0767 13.3417 19.2279 13.2819C19.3551 13.3816 19.5166 13.5045 19.606 13.5776C19.661 13.8134 19.6094 14.0791 19.5441 14.1921C19.472 14.176 19.3982 14.1682 19.3242 14.1688C18.9255 14.1688 18.5715 14.3847 18.3963 14.7302C18.2829 14.9527 18.2588 15.2085 18.3275 15.4444C18.0629 15.6702 17.6333 16.1685 17.6024 17.0487C17.5715 17.8725 16.8532 18.3409 16.8464 18.3442L16.5989 18.5003L16.7123 18.5535L15.85 19.3042C15.8088 19.3839 15.8431 19.4836 15.9256 19.5234C15.9497 19.5334 15.9737 19.54 16.0012 19.54C16.0631 19.54 16.1249 19.5068 16.1524 19.4503L17.0148 18.6996L17.2691 18.8225L16.7158 19.9054C16.6745 19.9851 16.7089 20.0848 16.7914 20.1246C16.8154 20.1346 16.8395 20.1413 16.867 20.1413C16.9288 20.1413 16.9907 20.108 17.0182 20.0516L17.5715 18.9687L17.8258 19.0916L17.5234 20.2642C17.4821 20.3439 17.5165 20.4435 17.599 20.4834C17.623 20.4934 17.6471 20.5 17.6746 20.5C17.7364 20.5 17.7983 20.4668 17.8258 20.4103L18.1282 19.2378L18.2416 19.2909L18.221 19.0052C18.221 18.9953 18.166 18.1648 18.8293 17.64C19.5441 17.072 19.685 16.4409 19.7056 16.1021C19.9428 16.0124 20.1352 15.8396 20.2486 15.6171C20.4548 15.2152 20.3448 14.7402 20.0184 14.4445C20.1352 14.2353 20.1936 13.9363 20.1627 13.644C20.2899 13.6141 20.4136 13.5742 20.5339 13.5277C20.6748 13.5942 20.8294 13.634 20.9944 13.634C21.2349 13.634 21.4755 13.5543 21.6714 13.4148C21.8879 13.2587 22.0253 13.0228 22.0528 12.7571C22.0838 12.4847 21.9944 12.2123 21.7985 11.9732C21.8363 11.8935 21.8776 11.8071 21.9119 11.7174C21.936 11.7174 21.9566 11.724 21.9807 11.724C22.4618 11.724 22.8742 11.3819 22.9876 10.887C23.0288 10.588 22.967 10.2891 22.8055 10.0632ZM21.338 9.87718C21.1043 10.0333 20.9566 10.2459 20.9222 10.4718C20.8294 10.8737 21.0287 11.2922 21.393 11.5314C21.3724 11.5779 21.3552 11.6244 21.3346 11.6676C21.2177 11.6277 21.094 11.6011 20.9669 11.6011C20.6713 11.6011 20.4033 11.7174 20.2142 11.9267C19.8981 12.2788 19.8568 12.7704 20.0733 13.1158C20.0115 13.1325 19.9531 13.1457 19.9118 13.1524C19.8431 13.0992 19.7469 13.0262 19.6541 12.9531C19.74 12.8368 19.7984 12.7006 19.819 12.5512C19.8637 12.2422 19.7572 11.9267 19.5269 11.6942C19.3139 11.4716 19.0355 11.3487 18.7365 11.3487C18.5303 11.3487 18.3344 11.4118 18.1695 11.5247C17.9873 11.3886 17.7949 11.2557 17.5852 11.1295C17.6333 10.9601 17.6333 10.7774 17.5784 10.6013C17.4924 10.3223 17.2759 10.0898 16.9907 9.96354C16.8429 9.89711 16.6883 9.86389 16.5302 9.86389C16.1762 9.86389 15.8635 10.03 15.6813 10.2957C15.4545 10.2293 15.2208 10.1795 14.9768 10.1396C14.9496 9.9636 14.8709 9.79879 14.75 9.66459C14.5507 9.44536 14.2586 9.31913 13.939 9.31913H13.8806C13.5369 9.33574 13.231 9.49186 13.042 9.74431C12.932 9.89379 12.8736 10.0665 12.8668 10.2426C12.8461 10.2492 12.8221 10.2559 12.8049 10.2625C12.6021 10.3289 12.4062 10.3887 12.2138 10.4518C12.1199 10.3054 11.9888 10.1846 11.833 10.1009C11.6773 10.0172 11.5019 9.97334 11.3237 9.97351C11.2275 9.97351 11.1313 9.9868 11.0419 10.01C10.5814 10.1263 10.2755 10.5382 10.2721 10.9866C10.0728 11.0331 9.86315 11.0796 9.6329 11.1261C9.45763 10.774 9.09335 10.5448 8.66033 10.5448C8.61909 10.5448 8.58129 10.5482 8.52974 10.5515C8.06923 10.6113 7.7187 10.9733 7.64309 11.4151C7.43689 11.4317 7.22726 11.445 7.00044 11.4483C6.89047 11.0198 6.52275 10.6877 6.09318 10.6711C6.0485 10.6644 6.00382 10.6611 5.95915 10.6611C5.57425 10.6611 5.2134 10.9069 5.03126 11.2557C4.83194 11.2092 4.63949 11.1494 4.45047 11.0763C4.4814 10.9069 4.46765 10.7475 4.4436 10.6179C4.38861 10.3588 4.25115 10.1529 4.06901 10.0433C3.9178 9.92036 3.72878 9.85725 3.5054 9.85725C3.30252 9.85619 3.10228 9.90173 2.92118 9.99012C2.80433 9.84064 2.70467 9.68452 2.61875 9.51511C2.76996 9.4055 2.86963 9.27595 2.92805 9.17298C3.07239 8.93714 3.11363 8.68801 3.04833 8.48871C3.00365 8.2429 2.85932 8.03363 2.62906 7.88083C2.48472 7.7845 2.33351 7.72471 2.17543 7.69482C2.16512 7.50216 2.17199 7.30286 2.18917 7.09691C2.62219 7.0338 2.98991 6.73152 3.08957 6.32627C3.18579 5.9177 2.99334 5.49585 2.6325 5.25336C2.7081 5.07399 2.79746 4.8913 2.89712 4.71193C3.00022 4.74182 3.10675 4.75843 3.21672 4.75843C3.53977 4.75843 3.84906 4.61892 4.04495 4.38308C4.20303 4.1871 4.27864 3.94129 4.25458 3.6988C4.24427 3.53272 4.19272 3.3766 4.11025 3.23377C4.25802 3.10754 4.41954 2.98464 4.59825 2.86838C4.72196 2.97799 4.86974 3.06768 5.03813 3.11751C5.14123 3.1474 5.24777 3.16069 5.35087 3.16069C5.49864 3.16069 5.64298 3.13079 5.78388 3.071C6.17565 2.88499 6.3956 2.47642 6.36467 2.05456C6.56056 1.99809 6.76332 1.95159 6.97982 1.91173C7.15509 2.27711 7.52625 2.52624 7.94895 2.52624C7.97301 2.52624 7.99706 2.52624 8.02799 2.52292C8.47819 2.48306 8.84247 2.15753 8.95588 1.74232C9.19644 1.74564 9.40608 1.75561 9.60197 1.77221C9.67414 2.20736 10.0212 2.56278 10.4749 2.62257C10.5333 2.63254 10.5883 2.63586 10.6433 2.63586C11.0453 2.63586 11.4062 2.40334 11.5815 2.05456C11.7945 2.09774 12.0076 2.14757 12.2207 2.20071C12.2199 2.47112 12.3303 2.73075 12.5275 2.92258C12.7246 3.1144 12.9925 3.22274 13.2723 3.2238C13.6297 3.2238 13.9562 3.04443 14.1486 2.7654C14.3651 2.83848 14.5679 2.91156 14.7672 2.98796C14.7157 3.42975 14.9665 3.87153 15.4099 4.04758C15.5404 4.09741 15.6779 4.12066 15.8154 4.12066C16.1384 4.12066 16.4305 3.98115 16.6264 3.74531C16.8361 3.84164 17.0285 3.93797 17.2072 4.02765C17.0938 4.4628 17.2725 4.93448 17.678 5.167C17.843 5.25336 18.0251 5.29987 18.2107 5.29987C18.4753 5.29987 18.7193 5.21018 18.9118 5.05074C19.0767 5.167 19.2417 5.29322 19.4101 5.42941C19.1936 5.82802 19.2486 6.31299 19.5647 6.59201C19.7469 6.80128 20.0252 6.92086 20.3242 6.92086C20.4754 6.92086 20.6266 6.88764 20.7675 6.82785C20.8947 7.00058 21.0047 7.16667 21.1009 7.33275C20.7572 7.62174 20.6095 8.06685 20.7641 8.40899C20.8638 8.79762 21.2624 9.07997 21.7264 9.10987C21.7504 9.30252 21.7642 9.4985 21.7642 9.69116C21.6301 9.71774 21.4789 9.78085 21.338 9.87718Z" fill="#374957" stroke="#374957" stroke-width="0.3"/>
</svg>
