<svg width="25" height="25" viewBox="0 0 25 25" fill="none" xmlns="http://www.w3.org/2000/svg">
<g clip-path="url(#clip0_578_7468)">
<circle cx="12.75" cy="12.4644" r="12.875" fill="white"/>
<path fill-rule="evenodd" clip-rule="evenodd" d="M28.75 12.4644C28.75 21.439 21.4746 28.7144 12.5 28.7144C3.52538 28.7144 -3.75 21.439 -3.75 12.4644C-3.75 3.48974 3.52538 -3.78564 12.5 -3.78564C21.4746 -3.78564 28.75 3.48974 28.75 12.4644ZM14.0572 7.4781C11.2655 8.68395 3.2161 12.1084 3.2161 12.1084C1.30845 12.8802 2.42507 13.6037 2.42507 13.6037C2.42507 13.6037 4.05357 14.1825 5.44947 14.6165C6.8453 15.0506 7.58978 14.5683 7.58978 14.5683C7.58978 14.5683 10.8468 12.3496 14.1502 9.98619C16.4767 8.3463 15.9184 9.69681 15.36 10.2756C14.1503 11.5297 12.1495 13.5072 10.4745 15.0989C9.73008 15.7742 10.1023 16.3529 10.428 16.6423C11.3753 17.4732 13.6063 18.9843 14.6192 19.6704C14.8999 19.8605 15.087 19.9872 15.1274 20.0186C15.36 20.2116 16.6628 21.0797 17.4538 20.8868C18.2448 20.6939 18.3378 19.5845 18.3378 19.5845C18.3378 19.5845 18.9427 15.6295 19.5011 12.012C19.6045 11.3017 19.7079 10.6064 19.8043 9.95798C20.055 8.27267 20.2584 6.90464 20.292 6.41697C20.4316 4.77709 18.7566 5.45231 18.7566 5.45231C18.7566 5.45231 15.1274 6.9958 14.0572 7.4781Z" fill="#0A9D4E"/>
</g>
<defs>
<clipPath id="clip0_578_7468">
<rect width="24" height="24" fill="white" transform="translate(0.5 0.464355)"/>
</clipPath>
</defs>
</svg>
