<svg width="375" height="812" viewBox="0 0 375 812" fill="none" xmlns="http://www.w3.org/2000/svg">
<g clip-path="url(#clip0_56_11533)">
<path d="M0 -14V552.202C51.0574 550.999 117.975 550.323 170.445 552.654C244.098 555.962 314.709 559.872 375 561V-14H0Z" fill="url(#paint0_linear_56_11533)"/>
<path opacity="0.09" d="M-2.80455 35.7192C-2.80455 35.7192 87.4194 46.114 99.2647 45.0082C110.999 43.9023 118.527 47.3304 128.048 49.7632C137.679 52.196 145.982 52.8595 160.152 52.196C174.322 51.5325 189.71 56.5087 194.803 55.8452C199.895 55.1817 148.86 56.3981 138.233 57.8357C127.605 59.2733 131.258 60.3791 115.095 59.8262C98.9326 59.2733 17.1222 58.278 10.3693 58.831C3.61629 59.3839 -4.68652 58.831 -4.68652 58.831V36.2722L-2.80455 35.7192Z" fill="white"/>
<path opacity="0.08" d="M379.79 21.8964C379.79 21.8964 359.531 18.8001 349.235 21.0118C338.94 23.2234 299.308 29.0843 293.44 29.5266C287.573 29.9689 280.377 30.4113 265.1 28.1996C249.823 25.988 251.151 28.1996 236.538 29.7478C221.925 31.2959 243.955 30.4113 252.037 31.2959C260.118 32.1806 259.233 36.2721 274.953 36.7145C290.673 37.1568 292.444 38.4838 305.507 41.6907C318.57 44.787 322.556 47.1092 339.272 43.46C355.877 39.9214 352.335 40.3637 363.516 45.2293C374.808 50.2055 380.122 46.9986 380.122 46.9986L379.79 21.8964Z" fill="white"/>
<path opacity="0.06" d="M16.2369 116.002C27.3074 116.555 93.7299 110.473 106.461 114.343C119.192 118.214 160.152 113.79 175.098 112.132C190.043 110.473 218.272 116.002 227.682 119.32C237.092 122.637 190.043 112.132 168.455 119.872C146.868 127.613 130.262 127.613 104.247 125.402C78.2313 123.19 31.0713 120.204 18.451 124.849C-33.0264 143.648 -24.6129 119.32 -24.6129 119.32C-24.6129 119.32 5.16652 115.449 16.2369 116.002Z" fill="white"/>
<path opacity="0.2" d="M222.965 312.004V388.678H443.911V312.564H444.654V311.818H443.168C443.354 311.445 443.354 310.885 443.354 310.512C443.354 308.646 442.054 306.967 440.383 306.408C440.383 305.661 440.012 305.288 439.455 304.915L439.269 304.356V304.169C439.269 303.982 439.269 303.982 439.084 303.796L438.898 301.744L438.712 303.796C438.527 303.796 438.527 303.982 438.527 304.169V304.356L438.341 304.915C437.784 305.102 437.413 305.661 437.413 306.408C435.742 306.967 434.442 308.646 434.442 310.512C434.442 310.885 434.442 311.445 434.628 311.818H433.142H432.957V304.169C433.142 304.169 433.328 303.982 433.328 303.796V303.609C433.328 303.423 433.142 303.236 432.957 303.236H432.4C432.4 303.05 432.4 303.05 432.4 302.863C432.4 301.93 431.843 301.184 431.1 300.625C430.729 300.251 430.172 300.065 429.986 299.505L430.172 299.319C430.172 299.132 430.172 299.132 429.986 299.132C429.8 299.132 429.8 299.319 429.8 299.319C429.8 299.319 429.8 299.505 429.986 299.505C429.615 299.878 429.243 300.251 428.872 300.625C428.129 300.998 427.572 301.93 427.572 302.863C427.572 303.05 427.572 303.05 427.572 303.236H427.201C427.015 303.236 426.83 303.423 426.83 303.609V303.796C426.83 303.982 427.015 304.169 427.201 304.169V309.019H426.087C426.458 308.46 426.458 307.9 426.458 307.34C426.458 305.288 424.602 303.423 421.631 302.303C419.774 301.557 418.103 300.625 416.803 299.692C416.803 299.692 416.803 299.505 416.803 299.319C416.803 298.946 416.618 298.759 416.432 298.759L416.246 296.147H416.061L415.875 298.759C415.689 298.946 415.504 299.132 415.504 299.319C415.504 299.505 415.504 299.505 415.504 299.692C414.204 300.811 412.719 301.744 410.676 302.303C407.706 303.423 405.849 305.288 405.849 307.34C405.849 307.714 405.849 308.087 406.035 308.46H405.292C405.478 307.527 405.663 306.594 405.663 305.661C405.663 300.998 402.136 297.08 397.494 296.52L396.937 294.655C396.937 294.655 396.937 294.655 396.751 294.655L396.38 289.804L396.009 294.655H395.823L395.266 296.52C391.924 296.893 388.953 299.132 387.839 302.303L388.025 297.267H388.582V296.334H388.025V289.804H388.582V289.245H388.21V289.058H387.839V286.633H388.21V286.446H387.653C387.653 286.26 387.653 286.073 387.653 286.073C387.653 285.514 387.282 285.14 386.911 284.767C386.725 284.581 386.354 284.394 386.168 284.208C386.168 284.208 386.168 284.208 386.168 284.021C386.168 284.021 386.168 283.835 385.982 283.835V283.275C386.168 283.275 386.354 283.088 386.354 282.902C386.354 283.088 386.168 283.088 385.982 283.088C385.797 283.088 385.611 282.902 385.611 282.715C385.611 282.529 385.611 282.342 385.797 282.342C385.611 282.342 385.425 282.529 385.425 282.715C385.425 282.902 385.611 283.088 385.797 283.088V283.648C385.797 283.648 385.611 283.648 385.611 283.835V284.021C385.425 284.208 385.24 284.581 384.868 284.581C384.497 284.767 384.126 285.327 384.126 285.887C384.126 286.073 384.126 286.26 384.126 286.26H384.311V286.446H384.683V288.872H384.311V289.058H383.94V289.618H384.497L384.311 296.147H383.754V297.08H384.311L384.126 304.169H383.383V305.102H384.126V308.273H381.712C382.455 306.781 383.012 305.288 383.012 303.609C383.012 298.013 377.813 292.976 370.201 290.177C365.187 288.312 360.917 285.887 357.575 283.088C357.761 282.902 357.761 282.529 357.761 282.156C357.761 281.409 357.389 280.85 356.647 280.477L356.275 273.388H355.718L355.347 280.477C354.79 280.85 354.233 281.409 354.233 282.156C354.233 282.529 354.233 282.715 354.419 283.088C351.077 285.887 346.806 288.312 341.793 290.177C340.308 290.737 339.008 291.297 337.709 292.043V271.335H337.894C338.266 271.335 338.451 271.149 338.451 270.776V270.403C338.451 270.03 338.266 269.843 337.894 269.843H337.152C337.152 269.656 337.152 269.47 337.152 269.283C337.152 267.791 336.409 266.485 335.109 265.739C334.366 265.366 333.809 264.619 333.252 264.06C333.438 264.06 333.438 263.873 333.438 263.687C333.438 263.5 333.252 263.314 333.067 263.314L332.881 261.448H332.695L332.51 263.314C332.324 263.314 332.138 263.5 332.138 263.687C332.138 263.873 332.138 263.873 332.324 264.06C331.767 264.806 331.21 265.366 330.467 265.739C329.353 266.485 328.425 267.791 328.425 269.283C328.425 269.47 328.425 269.656 328.425 269.843H327.682C327.311 269.843 327.125 270.03 327.125 270.403V270.776C327.125 271.149 327.311 271.335 327.682 271.335H327.868V284.581C326.383 280.103 323.226 276.186 319.327 273.761C315.8 271.522 312.829 268.724 310.415 265.366C310.787 264.993 311.158 264.433 311.158 263.687C311.158 262.754 310.601 262.008 309.858 261.635L309.301 253.426C309.673 253.426 310.044 253.613 310.415 253.613C313.386 253.613 315.985 251.374 316.357 248.389C315.614 250.068 313.757 251.188 311.715 251.188C308.93 251.188 306.702 248.949 306.702 246.151C306.702 244.098 307.816 242.419 309.487 241.487C306.516 241.86 304.288 244.472 304.288 247.456C304.288 250.068 305.959 252.493 308.373 253.24L307.816 261.635C307.073 262.008 306.516 262.754 306.516 263.687C306.516 264.433 306.887 264.993 307.259 265.366C304.845 268.724 301.874 271.522 298.347 273.761C292.591 277.305 288.878 283.648 288.878 290.924C288.878 292.976 289.249 295.028 289.806 296.893H284.979C284.979 296.52 284.979 296.334 284.979 295.961C284.979 289.245 279.966 283.648 273.467 282.902L272.724 280.477C272.724 280.477 272.724 280.477 272.539 280.477L272.167 273.574L271.796 280.477C271.61 280.477 271.61 280.477 271.61 280.477L270.868 282.902C264.369 283.648 259.356 289.245 259.356 295.961C259.356 297.267 259.542 298.572 259.913 299.878H255.457V301.93H257.5V312.004H252.858L252.672 298.013H253.972V296.334H252.672L252.487 283.648H253.415V281.969H252.487L252.301 270.403H253.229V269.47H252.672V269.097H252.115V264.806H252.672V264.433H251.744C251.744 264.246 251.93 263.873 251.93 263.687C251.93 262.754 251.373 261.821 250.63 261.448C250.073 261.075 249.701 260.702 249.516 260.329L249.702 260.142C249.702 259.956 249.701 259.956 249.516 259.769V258.65H249.702C250.073 258.65 250.444 258.277 250.444 257.903C250.259 258.09 250.073 258.277 249.887 258.277C249.516 258.277 249.144 257.903 249.144 257.53C249.144 257.344 249.33 256.971 249.516 256.971C249.144 256.971 248.773 257.344 248.773 257.717C248.773 258.09 248.959 258.277 249.33 258.463V259.583C249.145 259.583 249.144 259.769 249.144 259.956C249.144 259.956 249.145 260.142 249.33 260.142C248.959 260.515 248.587 260.888 248.216 261.261C247.473 261.821 246.916 262.567 246.916 263.5C246.916 263.687 246.916 264.06 247.102 264.246H245.06V264.619H245.617V268.91H245.06V269.283H244.503V270.216H245.431L245.245 281.782H244.317V283.461H245.245L245.06 296.147H243.76V297.826H245.06L244.874 311.818H242.46V286.819H242.646C243.203 286.819 243.574 286.446 243.574 285.887V285.327C243.574 284.767 243.203 284.394 242.646 284.394H241.346C241.346 284.021 241.346 283.835 241.346 283.461C241.346 281.223 240.047 279.171 238.376 278.051C237.262 277.305 236.333 276.372 235.591 275.44C235.776 275.253 235.776 275.067 235.776 274.88C235.776 274.507 235.591 274.32 235.405 274.134L235.219 271.149H235.034L234.848 274.134C234.662 274.32 234.477 274.507 234.477 274.88C234.477 275.067 234.477 275.253 234.662 275.44C233.92 276.559 232.991 277.492 231.877 278.051C230.021 279.171 228.907 281.223 228.907 283.461C228.907 283.835 228.907 284.208 228.907 284.394H227.793C227.236 284.394 226.864 284.767 226.864 285.327V285.887C226.864 286.446 227.236 286.819 227.793 286.819H227.978V311.818H222.965V312.004ZM431.843 306.594C431.843 305.848 432.028 305.288 432.4 305.102C432.585 305.288 432.957 305.848 432.957 306.594V309.393H432.028V306.594H431.843ZM428.872 306.221C428.872 305.475 429.429 304.729 430.172 304.542C430.914 304.729 431.471 305.288 431.471 306.221V309.206H429.615H428.872V306.221ZM427.572 306.594C427.572 305.848 427.758 305.288 428.129 305.102C428.315 305.288 428.686 305.848 428.686 306.594V309.206H427.758V306.594H427.572ZM387.282 287.193C387.282 287.006 387.282 287.006 387.282 287.193L387.468 287.006C387.468 287.006 387.653 287.006 387.653 287.193V289.058H387.282V287.193ZM386.725 287.193C386.725 287.006 386.725 287.006 386.725 287.193L386.911 287.006C386.911 287.006 387.096 287.006 387.096 287.193V289.058H386.725V287.193ZM385.982 287.193C385.982 287.006 386.168 287.006 385.982 287.193L386.168 287.006C386.168 287.006 386.354 287.006 386.354 287.193V289.058H385.982V287.193ZM385.425 287.193C385.425 287.006 385.425 287.006 385.425 287.193L385.611 287.006C385.611 287.006 385.797 287.006 385.797 287.193V289.058H385.425V287.193ZM384.868 287.193C384.868 287.006 384.868 287.006 384.868 287.193L385.054 287.006C385.054 287.006 385.24 287.006 385.24 287.193V289.058H384.868V287.193ZM335.295 275.253C335.295 274.134 335.666 273.201 336.037 272.828C336.409 273.201 336.78 274.134 336.78 275.253V279.73H335.295V275.253ZM330.653 274.693C330.653 273.388 331.396 272.455 332.695 272.082C333.809 272.455 334.738 273.388 334.738 274.693V279.544H330.839V274.693H330.653ZM328.425 275.253C328.425 274.134 328.796 273.201 329.168 272.828C329.539 273.201 329.91 274.134 329.91 275.253V279.73H328.425V275.253ZM250.259 265.925C250.259 265.739 250.444 265.739 250.444 265.739H250.63C250.816 265.739 250.816 265.925 250.816 265.925V269.283H250.259V265.925ZM249.33 265.925C249.33 265.739 249.516 265.739 249.516 265.739H249.702C249.887 265.739 249.887 265.925 249.887 265.925V269.283H249.33V265.925ZM248.216 265.925C248.216 265.739 248.402 265.739 248.402 265.739H248.587C248.773 265.739 248.773 265.925 248.773 265.925V269.283H248.216V265.925ZM247.102 265.925C247.102 265.739 247.288 265.739 247.288 265.739H247.473C247.659 265.739 247.659 265.925 247.659 265.925V269.283H247.102V265.925ZM246.174 265.925C246.174 265.739 246.359 265.739 246.359 265.739H246.545C246.731 265.739 246.731 265.925 246.731 265.925V269.283H246.174V265.925ZM238.933 292.603C238.933 290.924 239.49 289.431 240.047 289.058C240.789 289.431 241.161 290.924 241.161 292.603V299.319H238.747V292.603H238.933ZM232.063 291.856C232.063 289.991 233.363 288.312 235.034 287.939C236.705 288.498 238.004 289.991 238.004 291.856V299.319H232.063V291.856ZM228.721 292.603C228.721 290.924 229.278 289.431 229.835 289.058C230.578 289.431 230.949 290.924 230.949 292.603V299.319H228.535V292.603H228.721Z" fill="black"/>
<path opacity="0.2" d="M91.4333 299.743V245.619H91.6601C92.3405 245.619 93.021 244.936 93.021 244.254V243.572C93.021 242.89 92.3405 242.207 91.6601 242.207H89.8456C89.8456 241.753 90.0724 241.07 90.0724 240.616C90.0724 236.977 88.031 233.566 85.0824 231.747C83.2679 230.61 81.6802 229.245 80.5461 227.426C80.7729 227.198 80.9997 226.971 80.9997 226.516C80.9997 226.061 80.7729 225.606 80.3193 225.379L80.0925 220.603H79.6389L79.412 225.379C78.9584 225.606 78.7316 226.061 78.7316 226.516C78.7316 226.971 78.9584 227.198 79.1852 227.426C78.0511 229.245 76.4634 230.61 74.6489 231.747C71.7003 233.566 69.659 236.75 69.659 240.616C69.659 241.07 69.659 241.753 69.8858 242.207H68.0713C67.3908 242.207 66.7104 242.89 66.7104 243.572V244.254C66.7104 244.936 67.3908 245.619 68.0713 245.619H68.2981V299.743H60.1327L59.6791 278.821H61.7204V276.092H59.4523L58.9986 254.26H60.5863V251.531H58.9986L58.545 231.519H60.1327V229.927H59.2255V229.472H58.3182V222.195H59.2255V221.513H57.6378C57.8646 221.058 57.8646 220.603 57.8646 220.149C57.8646 218.557 56.9573 216.965 55.5964 216.283C54.6892 215.828 54.0087 215.145 53.5551 214.236C53.5551 214.236 53.7819 214.008 53.7819 213.781C53.7819 213.554 53.5551 213.326 53.5551 213.326L53.3283 211.507H53.5551C54.2355 211.507 54.916 211.052 54.916 210.37C54.6891 210.825 54.2355 211.052 53.7819 211.052C53.1014 211.052 52.6478 210.597 52.6478 209.915C52.6478 209.46 52.8746 209.005 53.3283 208.778C52.6478 208.778 52.1942 209.46 52.1942 210.142C52.1942 210.825 52.6478 211.28 53.1015 211.507L52.8746 213.326C52.6478 213.326 52.6478 213.554 52.6478 213.781C52.6478 214.008 52.6478 214.008 52.8746 214.236C52.421 214.918 51.5137 215.6 50.8333 216.283C49.4724 217.192 48.5651 218.557 48.5651 220.149C48.5651 220.603 48.5651 221.058 48.792 221.513H47.2043V222.195H48.1115V229.472H47.2043V229.927H46.297V231.519H48.1115L47.6579 251.531H45.8434V254.26H47.4311L46.9774 276.092H44.7093V278.821H46.7506L46.297 299.743H40.6266V266.541H40.8534C41.3071 266.541 41.5339 266.086 41.5339 265.858V265.403C41.5339 264.949 41.3071 264.721 40.8534 264.721H39.7193C39.7193 264.494 39.7193 264.039 39.7193 263.812C39.7193 261.765 38.5853 259.946 36.9976 259.036C36.0903 258.354 35.183 257.671 34.5026 256.762C34.7294 256.534 34.7294 256.534 34.7294 256.307C34.7294 256.08 34.5026 255.852 34.2758 255.625L34.049 253.123H33.8221L33.5953 255.625C33.3685 255.625 33.1417 255.852 33.1417 256.307C33.1417 256.534 33.1417 256.762 33.3685 256.762C32.688 257.671 31.7808 258.581 30.8736 259.036C29.2858 259.946 28.1517 261.765 28.1517 263.812C28.1517 264.039 28.1517 264.494 28.1517 264.721H27.6981C27.2445 264.721 27.0177 265.176 27.0177 265.403V265.858C27.0177 266.313 27.4713 266.541 27.6981 266.541V279.503H23.8423C24.5227 277.001 24.9763 274.273 24.9763 271.316C24.9763 261.537 19.7596 252.896 12.0479 248.12C7.28473 245.164 3.20206 241.298 -0.20018 236.75C0.48027 236.067 0.707092 235.385 0.707092 234.476C0.707092 233.111 0.0266342 231.974 -1.10744 231.519L-1.78789 220.603C-1.33426 220.603 -0.880623 220.831 -0.426987 220.831C3.65569 220.831 7.05791 217.647 7.73837 213.781C6.60429 216.055 4.33613 217.647 1.61434 217.647C-2.24152 217.647 -5.19012 214.463 -5.19012 210.825C-5.19012 208.096 -3.60241 205.822 -1.33425 204.685C-5.41693 205.139 -8.36553 208.551 -8.36553 212.871C-8.36553 216.51 -6.09737 219.466 -2.69514 220.603L-3.3756 231.974C-4.50967 232.429 -5.19012 233.566 -5.19012 234.93C-5.19012 235.84 -4.7365 236.75 -4.28286 237.204C-7.45827 241.753 -11.7678 245.619 -16.5309 248.575C-24.2426 253.351 -29.4594 261.992 -29.4594 271.771C-29.4594 274.5 -29.0057 277.229 -28.3253 279.958H-34.9029C-34.9029 279.503 -34.9029 279.048 -34.9029 278.593C-34.9029 269.497 -41.7074 261.992 -50.5532 261.083L-51.6873 257.671C-51.6873 257.671 -51.6873 257.671 -51.9141 257.671L-52.5945 248.348L-53.275 257.671C-53.5018 257.671 -53.5018 257.671 -53.5018 257.671L-54.6359 261.083C-63.4817 262.22 -70.2862 269.497 -70.2862 278.593C-70.2862 280.413 -70.0593 282.232 -69.6057 283.824H-75.5029V286.553H-72.7811V300.197H-76.637L-76.8638 285.871H-75.2761V283.596H-77.0906L-77.3174 266.541H-76.1833V264.266H-77.3174L-77.5442 248.575H-76.1833V247.211H-76.8638V246.756H-77.5442V241.07H-76.8638V240.616H-77.9979C-77.9979 240.388 -77.7711 239.933 -77.7711 239.479C-77.7711 238.114 -78.4515 236.977 -79.5856 236.295C-80.266 235.84 -80.7197 235.385 -81.1733 234.703L-80.9465 234.476C-80.9465 234.248 -80.9465 234.248 -81.1733 234.021V232.656H-80.9465C-80.4928 232.656 -80.0392 232.201 -79.8124 231.747C-80.0392 231.974 -80.266 232.201 -80.7197 232.201C-81.1733 232.201 -81.6269 231.747 -81.6269 231.292C-81.6269 230.837 -81.4001 230.61 -81.1733 230.382C-81.6269 230.382 -82.0806 230.837 -82.0806 231.519C-82.0806 231.974 -81.8537 232.429 -81.4001 232.656V234.248C-81.6269 234.248 -81.6269 234.475 -81.6269 234.703C-81.6269 234.93 -81.6269 234.93 -81.4001 234.93C-81.8537 235.613 -82.3074 236.067 -82.9878 236.522C-84.1219 237.204 -84.8023 238.342 -84.8023 239.706C-84.8023 240.161 -84.8023 240.388 -84.5755 240.843H-85.7096V241.298H-85.0292V246.983H-85.7096V247.438H-86.39V248.802H-85.0292L-85.256 264.494H-86.39V266.768H-85.256L-85.4828 283.824H-87.2973V286.098H-85.7096L-85.9364 300.425H-97.0504V272.226H-96.8236C-96.3699 272.226 -95.9163 271.771 -95.9163 271.316V270.179C-95.9163 269.724 -96.3699 269.269 -96.8236 269.269H-97.9576C-97.9576 269.042 -97.9576 268.587 -97.9576 268.36C-97.9576 266.086 -99.0917 264.266 -100.906 263.129C-102.04 262.447 -102.948 261.537 -103.628 260.628C-103.401 260.4 -103.401 260.4 -103.401 260.173C-103.401 259.946 -103.628 259.718 -103.855 259.491L-104.082 256.762H-104.308L-104.535 259.491C-104.762 259.491 -104.989 259.946 -104.989 260.173C-104.989 260.4 -104.989 260.628 -104.762 260.628C-105.443 261.765 -106.35 262.447 -107.484 263.129C-109.298 264.266 -110.432 266.086 -110.432 268.36C-110.432 268.587 -110.432 269.042 -110.432 269.269H-111.567C-112.02 269.269 -112.474 269.724 -112.474 270.179V270.634C-112.474 271.089 -112.02 271.544 -111.567 271.544H-111.34V299.743H-120.186V414.813H97.1037V299.743H91.4333ZM-108.845 283.369H-111.113V277.001C-111.113 275.41 -110.659 274.045 -109.979 273.59C-109.298 274.045 -108.845 275.41 -108.845 277.001V283.369ZM-102.267 283.369H-107.938V276.319C-107.938 274.5 -106.803 272.908 -104.989 272.453C-103.401 272.908 -102.04 274.5 -102.04 276.319V283.369H-102.267ZM-98.8649 283.369H-101.133V277.001C-101.133 275.41 -100.679 274.045 -99.999 273.59C-99.3185 274.045 -98.8649 275.41 -98.8649 277.001V283.369ZM-84.3487 246.756H-85.0292V242.207C-85.0292 241.98 -84.8023 241.98 -84.8023 241.98H-84.5755C-84.3487 241.98 -84.3487 242.207 -84.3487 242.207V246.756ZM-82.761 246.756H-83.4414V242.207C-83.4414 241.98 -83.2146 241.98 -83.2146 241.98H-82.9878C-82.761 241.98 -82.761 242.207 -82.761 242.207V246.756ZM-81.4001 246.756H-82.0806V242.207C-82.0806 241.98 -81.8537 241.98 -81.8537 241.98H-81.6269C-81.4001 241.98 -81.4001 242.207 -81.4001 242.207V246.756ZM-80.0392 246.756H-80.7197V242.207C-80.7197 241.98 -80.4928 241.98 -80.4928 241.98H-80.266C-80.0392 241.98 -80.0392 242.207 -80.0392 242.207V246.756ZM-78.6783 246.756H-79.3588V242.207C-79.3588 241.98 -79.132 241.98 -79.132 241.98H-78.9051C-78.6783 241.98 -78.6783 242.207 -78.6783 242.207V246.756ZM30.6467 277.229H28.6054V271.316C28.6054 269.724 29.059 268.587 29.7395 268.132C30.4199 268.587 30.8736 269.724 30.8736 271.316V277.229H30.6467ZM36.9976 277.229H31.7808V270.634C31.7808 269.042 32.9149 267.45 34.5026 267.223C36.0903 267.678 37.2244 269.042 37.2244 270.634V277.229H36.9976ZM39.9462 277.229H37.9048V271.316C37.9048 269.724 38.3584 268.587 39.0389 268.132C39.7193 268.587 40.173 269.724 40.173 271.316V277.229H39.9462ZM49.926 229.018H49.0188V223.105C49.0188 222.878 49.2456 222.65 49.4724 222.65H49.6992C49.926 222.65 50.1529 222.878 50.1529 223.105V229.018H49.926ZM51.7406 229.018H50.8333V223.105C50.8333 222.878 51.0601 222.65 51.2869 222.65H51.5137C51.7406 222.65 51.9674 222.878 51.9674 223.105V229.018H51.7406ZM53.5551 229.018H52.6478V223.105C52.6478 222.878 52.8746 222.65 53.1015 222.65H53.3283C53.5551 222.65 53.7819 222.878 53.7819 223.105V229.018H53.5551ZM55.3696 229.018H54.4623V223.105C54.4623 222.878 54.6891 222.65 54.916 222.65C55.1428 222.65 55.3696 222.878 55.3696 223.105V229.018ZM57.1841 229.018H56.2769V223.105C56.2769 222.878 56.5037 222.65 56.7305 222.65H56.9573C57.1841 222.65 57.4109 222.878 57.4109 223.105V229.018H57.1841ZM73.288 265.176H69.4322V254.488C69.4322 251.759 70.3394 249.485 71.2467 248.802C72.3808 249.485 73.0612 251.759 73.0612 254.488V265.176H73.288ZM84.402 265.176H74.8757V253.351C74.8757 250.394 76.9171 247.665 79.6389 246.983C82.3607 247.665 84.402 250.394 84.402 253.351V265.176ZM89.8456 265.176H85.9897V254.488C85.9897 251.759 86.8969 249.485 87.8042 248.802C88.9383 249.485 89.6187 251.759 89.6187 254.488V265.176H89.8456Z" fill="black"/>
<path d="M220.955 261.955C239.54 243.369 239.54 213.237 220.955 194.651C202.369 176.066 172.237 176.066 153.652 194.651C135.066 213.237 135.066 243.369 153.652 261.955C172.237 280.54 202.369 280.54 220.955 261.955Z" fill="white" fill-opacity="0.2"/>
<path d="M187.34 265.265C207.848 265.265 224.472 248.64 224.472 228.132C224.472 207.625 207.848 191 187.34 191C166.832 191 150.208 207.625 150.208 228.132C150.208 248.64 166.832 265.265 187.34 265.265Z" fill="url(#paint1_linear_56_11533)" fill-opacity="0.3"/>
<path d="M205.197 246.871C215.228 236.84 215.228 220.576 205.197 210.545C195.166 200.514 178.902 200.514 168.871 210.545C158.84 220.576 158.84 236.84 168.871 246.871C178.902 256.902 195.166 256.902 205.197 246.871Z" fill="#FFD752"/>
<path fill-rule="evenodd" clip-rule="evenodd" d="M-25 558.155V367.869H-13.3029V306.119H-13.6742C-14.7882 306.119 -15.7166 305.187 -15.7166 304.067V302.948C-15.7166 301.829 -14.7882 300.896 -13.6742 300.896H-10.8892C-11.0748 300.15 -11.0748 299.217 -11.0748 298.471C-11.0748 292.874 -8.10414 287.837 -3.64809 285.039C-0.863058 283.36 1.55063 281.121 3.40732 278.509C3.03598 278.136 2.85032 277.763 2.85032 277.203C2.85032 276.457 3.40732 275.897 3.96433 275.524L4.52134 268.249H4.89267L5.44968 275.524C6.19235 275.897 6.56369 276.457 6.56369 277.203C6.56369 277.763 6.37803 278.136 6.00669 278.509C7.86337 281.308 10.2771 283.546 13.0621 285.225C17.5182 288.024 20.4889 292.874 20.4889 298.657C20.4889 299.403 20.4888 300.336 20.3032 301.082H23.0882C24.2022 301.082 25.1306 302.015 25.1306 303.134V304.44C25.1306 305.56 24.2022 306.492 23.0882 306.492H22.5312V368.242H28.2869L29.0296 333.543H26.0589V329.625H29.2153L29.7723 298.471H27.7299V294.553H29.958L30.515 266.01H28.1013V263.771H29.5866V263.025H30.8863V252.578H29.5866V251.645H31.8146C31.7828 251.517 31.7509 251.395 31.72 251.276C31.5707 250.702 31.4433 250.211 31.4433 249.593C31.4433 247.168 32.743 245.116 34.5997 243.997C35.7137 243.25 36.8277 242.318 37.5704 241.198C37.3847 241.012 37.3847 240.825 37.3847 240.639C37.3847 240.266 37.5704 240.079 37.756 239.892L37.9417 237.094C37.199 236.908 36.642 236.161 36.642 235.229C36.642 234.109 37.3847 233.363 38.3131 233.176C37.7561 233.363 37.3847 233.923 37.3847 234.669C37.3847 235.602 38.1274 236.348 39.0557 236.348C39.7984 236.348 40.3554 235.975 40.5411 235.415C40.3554 236.348 39.4271 237.094 38.4987 237.094H38.1274L38.3131 239.706C38.4987 239.892 38.6844 240.079 38.6844 240.452C38.6844 240.639 38.6844 240.825 38.4987 241.012C39.2414 242.131 40.3554 243.064 41.4694 243.81C43.3261 244.929 44.6258 246.982 44.6258 249.407C44.6258 250.153 44.4401 250.899 44.2545 251.459H46.4825V252.392H44.9971V262.839H46.4825V263.585H47.9678V265.824H45.5541L44.9971 293.993H47.2252V297.911H45.1828L45.7398 329.066H48.8962V332.983H45.9255L46.6682 367.682H58.1796V342.871H53.1666V338.02H64.121C63.1927 335.035 62.6357 331.864 62.6357 328.506C62.6357 311.903 75.0755 298.284 91.043 296.418L93.0854 290.262C93.1782 290.262 93.271 290.216 93.3638 290.169C93.4567 290.122 93.5495 290.076 93.6423 290.076L94.7564 272.913C94.7564 272.726 94.942 272.726 94.942 272.726C95.1277 272.726 95.1277 272.913 95.1277 272.913L96.2417 290.076C96.6131 290.076 96.7987 290.262 96.7987 290.262L98.8411 296.418C114.809 298.284 127.248 311.903 127.248 328.506V330.931H139.131C137.646 326.267 136.903 321.417 136.903 316.193C136.903 298.284 146.372 282.427 160.483 273.659C169.21 268.062 176.822 261.16 182.763 252.765C181.649 251.832 180.907 250.34 180.907 248.661C180.907 246.422 182.206 244.37 184.249 243.437L185.548 237.916C179.607 236.05 175.337 230.454 175.337 223.738C175.337 216.276 181.092 209.933 188.333 209C184.249 211.052 181.278 215.343 181.278 220.38C181.278 227.282 186.848 232.879 193.718 232.879C198.731 232.879 203.001 230.081 205.044 225.79C204.115 233.252 197.988 238.849 190.376 238.849C189.447 238.849 188.705 238.849 187.776 238.662L189.076 243.81C190.933 244.743 192.418 246.608 192.418 249.034C192.418 250.526 191.675 252.018 190.561 253.138C196.503 261.533 204.115 268.622 212.842 274.032C222.496 280.188 230.109 289.516 233.822 300.709V268.062H233.637C232.894 268.062 232.337 267.316 232.337 266.57V265.824C232.337 264.891 232.894 264.331 233.637 264.331H235.493C235.308 263.958 235.308 263.398 235.308 262.839C235.308 258.921 237.35 255.75 240.321 253.884C242.177 252.765 243.663 251.272 244.962 249.593C244.777 249.407 244.591 249.034 244.591 248.661C244.591 248.101 244.962 247.728 245.334 247.541L245.705 242.877H246.076L246.448 247.541C246.819 247.728 247.19 248.101 247.19 248.661C247.19 249.034 247.005 249.407 246.819 249.593C248.119 251.272 249.604 252.765 251.461 253.884C254.432 255.75 256.474 259.108 256.474 262.839C256.474 263.006 256.436 263.212 256.395 263.438C256.344 263.715 256.288 264.023 256.288 264.331H258.145C258.888 264.331 259.445 265.077 259.445 265.824V266.57C259.445 267.503 258.888 268.062 258.145 268.062H257.774V319.365C260.93 317.686 264.272 316.193 267.8 314.887C280.425 310.41 291.008 304.627 299.178 297.538C298.806 296.792 298.621 296.045 298.621 295.299C298.621 293.434 299.549 291.941 301.22 291.195L302.334 273.472H303.634L304.748 291.195C306.233 291.941 307.347 293.434 307.347 295.299C307.347 296.232 307.161 296.978 306.79 297.538C315.145 304.44 325.728 310.41 338.168 314.887C357.292 321.79 370.103 334.103 370.103 348.094C370.103 352.198 368.989 355.929 367.132 359.661H373.26L373.445 351.639H371.774V349.4H373.631L374.002 331.677H372.888V329.439H374.188L374.559 313.208H373.26V311.903H374.002V311.529H374.745V305.56H374.002V305H375.116C374.931 304.627 374.931 304.254 374.931 303.881C374.931 302.575 375.673 301.455 376.787 300.709C377.53 300.336 378.087 299.776 378.458 299.217C378.273 299.03 378.273 299.03 378.273 298.844C378.273 298.657 378.273 298.471 378.458 298.471L378.644 296.978C378.273 296.792 377.901 296.419 377.901 295.859C377.901 295.299 378.273 294.74 378.83 294.74C378.458 294.926 378.273 295.299 378.273 295.672C378.273 296.232 378.644 296.605 379.201 296.605C379.572 296.605 379.944 296.418 380.129 296.045C380.129 296.605 379.572 296.978 379.015 296.978H378.83L379.015 298.471C379.015 298.471 379.201 298.657 379.201 298.844C379.201 299.03 379.015 299.217 379.015 299.217C379.387 299.776 379.944 300.336 380.686 300.709C381.8 301.269 382.543 302.575 382.543 303.881C382.543 304.254 382.543 304.627 382.357 305H383.657V305.746H382.914V311.716H383.657V312.089H384.4V313.395H383.1L383.471 329.625H384.771V331.864H383.657L383.843 344.736C386.813 337.087 393.869 331.304 402.41 330.371L403.895 325.894C403.895 325.708 404.081 325.708 404.266 325.708L405.009 313.582H405.38L406.123 325.708C406.309 325.894 406.494 325.894 406.494 325.894L407.98 330.371C419.305 331.864 428.032 341.378 428.032 353.131C428.032 355.37 427.846 357.795 427.103 359.847H429.146C429.119 359.711 429.092 359.579 429.065 359.449C428.91 358.693 428.774 358.032 428.774 357.235C428.774 352.012 433.416 347.348 440.657 344.736C445.299 343.057 449.198 340.819 452.354 338.207C452.169 338.02 452.169 337.647 452.169 337.461C452.169 336.901 452.54 336.155 453.097 335.968L453.468 329.252H454.025L454.397 335.968C454.954 336.155 455.325 336.714 455.325 337.461C455.325 337.647 455.325 338.02 455.139 338.207C458.11 340.819 462.195 343.057 466.837 344.736C473.892 347.348 478.719 352.012 478.719 357.235C478.719 358.728 478.348 360.22 477.605 361.526H480.39V349.4H480.205C479.648 349.4 479.276 349.027 479.276 348.467V347.908C479.276 347.348 479.648 346.975 480.205 346.975H481.319V346.042C481.319 343.803 482.433 341.751 484.289 340.632C485.403 340.072 486.332 339.139 487.074 338.02C486.889 337.834 486.889 337.647 486.889 337.461C486.889 337.087 487.074 336.901 487.26 336.714L487.631 333.729H487.817L488.003 336.714C488.188 336.901 488.374 337.087 488.374 337.461C488.374 337.647 488.374 337.834 488.188 338.02C488.931 338.953 489.859 339.886 490.974 340.632C492.645 341.751 493.944 343.803 493.944 346.042V346.975H495.058C495.615 346.975 495.987 347.348 495.987 347.908V348.281C495.987 348.84 495.615 349.213 495.058 349.213H494.873V368.242H498.957C498.586 367.309 498.4 366.19 498.4 365.071C498.4 360.407 501.371 356.303 505.641 354.81V354.624C505.641 352.945 506.57 351.639 508.055 351.079L508.612 349.4C508.426 349.213 508.426 349.027 508.426 348.84C508.426 348.467 508.612 348.281 508.983 348.094L509.355 343.057L509.726 348.094C510.097 348.094 510.283 348.467 510.283 348.84C510.283 349.027 510.283 349.213 510.097 349.4L510.654 351.079C511.954 351.639 513.068 352.945 513.068 354.624V354.81C517.339 356.303 520.309 360.407 520.309 365.071C520.309 366.19 520.124 367.123 519.752 368.242H523.466V369.921H521.795V558.155H375V823H0V558.155H-25ZM492.645 351.266C492.088 351.639 491.531 353.131 491.531 354.81H491.345V361.526H493.759V354.81C493.759 353.131 493.387 351.639 492.645 351.266ZM487.446 350.146C485.775 350.519 484.475 352.198 484.475 354.064V361.34H485.96V361.526H490.417V354.064C490.417 352.198 489.117 350.706 487.446 350.146ZM482.247 351.266C481.69 351.639 481.133 353.131 481.133 354.81H480.947V361.34H483.361V354.81C483.361 353.131 482.99 351.639 482.247 351.266ZM381.8 306.119C381.615 306.119 381.429 306.306 381.429 306.492V311.343H382.357V306.492C382.357 306.306 382.172 306.119 381.986 306.119H381.8ZM380.315 306.119C380.129 306.119 379.944 306.306 379.944 306.492H380.129V311.343H380.872V306.492C380.872 306.306 380.686 306.119 380.501 306.119H380.315ZM378.83 306.119C378.644 306.119 378.458 306.306 378.458 306.492H378.644V311.343H379.387V306.492C379.387 306.306 379.201 306.119 379.015 306.119H378.83ZM377.344 306.119C377.159 306.119 376.973 306.306 376.973 306.492H377.159V311.343H377.901V306.492C377.901 306.306 377.716 306.119 377.53 306.119H377.344ZM375.859 306.119C375.673 306.119 375.488 306.306 375.488 306.492H375.673V311.343H376.416V306.492C376.416 306.306 376.23 306.119 376.045 306.119H375.859ZM254.617 271.234C253.503 271.98 252.76 274.219 252.76 277.017H252.575V287.837H256.474V277.017C256.474 274.219 255.731 271.98 254.617 271.234ZM246.262 269.555C243.477 270.301 241.435 272.913 241.435 275.897V287.837H251.089V275.897C251.089 272.913 249.047 270.301 246.262 269.555ZM237.907 271.234C236.793 271.98 236.05 274.219 236.05 277.017H235.865V287.837H239.764V277.017C239.764 274.219 239.021 271.98 237.907 271.234ZM43.1404 253.697C42.7691 253.697 42.5834 253.884 42.5834 254.257H42.3978V262.839H43.8831V254.257C43.8831 253.884 43.6974 253.697 43.3261 253.697H43.1404ZM40.5411 253.697C40.1697 253.697 39.9841 253.884 39.9841 254.257H39.7984V262.839H41.2838V254.257C41.2838 253.884 41.0981 253.697 40.7267 253.697H40.5411ZM37.9417 253.697C37.5704 253.697 37.3847 253.884 37.3847 254.257H37.199V262.839H38.6844V254.257C38.6844 253.884 38.4987 253.697 38.1274 253.697H37.9417ZM35.3424 253.697C34.971 253.697 34.7853 253.884 34.7853 254.257H34.5997V262.839H36.085V254.257C36.085 253.884 35.8994 253.697 35.528 253.697H35.3424ZM32.743 253.697C32.3717 253.697 32.186 253.884 32.186 254.257H32.0003V262.839H33.4857V254.257C33.4857 253.884 33.3 253.697 32.9287 253.697H32.743ZM17.5182 311.343C15.8471 312.276 14.5474 315.82 14.5474 320.111H14.7331V336.714H20.4889V320.111C20.4889 316.007 19.1892 312.462 17.5182 311.343ZM4.707 308.545C0.436623 309.664 -2.71975 313.582 -2.71975 318.245V336.528H12.1338V318.245C12.1338 313.582 8.97739 309.664 4.707 308.545ZM-8.10414 311.343C-9.77516 312.276 -11.0748 315.82 -11.0748 320.111V336.714H-5.13344V320.111C-5.13344 316.007 -6.43312 312.462 -8.10414 311.343Z" fill="#134560"/>
</g>
<defs>
<linearGradient id="paint0_linear_56_11533" x1="198.894" y1="555.046" x2="193.394" y2="-15.1072" gradientUnits="userSpaceOnUse">
<stop stop-color="#FFE79D"/>
<stop offset="0.0156025" stop-color="#FFE39B"/>
<stop offset="0.0406246" stop-color="#47676C"/>
<stop offset="0.1967" stop-color="#17597F"/>
<stop offset="0.3662" stop-color="#0983C8"/>
<stop offset="0.5355" stop-color="#5DC2FB"/>
<stop offset="0.6886" stop-color="#5EC2FB"/>
<stop offset="0.8219" stop-color="#52C0FF"/>
<stop offset="0.9302" stop-color="#42BBFF"/>
<stop offset="1" stop-color="#2CB3FF"/>
</linearGradient>
<linearGradient id="paint1_linear_56_11533" x1="187.34" y1="191" x2="187.34" y2="265.265" gradientUnits="userSpaceOnUse">
<stop stop-color="#FFD752"/>
<stop offset="1" stop-color="#FFD752"/>
</linearGradient>
<clipPath id="clip0_56_11533">
<rect width="375" height="812" fill="white"/>
</clipPath>
</defs>
</svg>
