<svg width="375" height="812" viewBox="0 0 375 812" fill="none" xmlns="http://www.w3.org/2000/svg">
<g clip-path="url(#clip0_55_10014)">
<path d="M0 -14V552.202C51.0574 550.999 117.975 550.323 170.445 552.654C244.098 555.962 314.709 559.872 375 561V-14H0Z" fill="url(#paint0_linear_55_10014)"/>
<path opacity="0.09" d="M-2.80422 35.7192C-2.80422 35.7192 87.4197 46.114 99.2651 45.0082C111 43.9023 118.528 47.3304 128.048 49.7632C137.679 52.196 145.982 52.8595 160.152 52.196C174.323 51.5325 189.71 56.5087 194.803 55.8452C199.895 55.1817 148.861 56.3981 138.233 57.8357C127.605 59.2733 131.259 60.3791 115.096 59.8262C98.933 59.2733 17.1225 58.278 10.3696 58.831C3.61663 59.3839 -4.68619 58.831 -4.68619 58.831V36.2722L-2.80422 35.7192Z" fill="white"/>
<path opacity="0.08" d="M379.79 21.8964C379.79 21.8964 359.531 18.8001 349.235 21.0118C338.94 23.2234 299.308 29.0843 293.44 29.5266C287.573 29.9689 280.377 30.4113 265.1 28.1996C249.823 25.988 251.151 28.1996 236.538 29.7478C221.925 31.2959 243.955 30.4113 252.037 31.2959C260.118 32.1806 259.233 36.2721 274.953 36.7145C290.673 37.1568 292.444 38.4838 305.507 41.6907C318.57 44.787 322.556 47.1092 339.272 43.46C355.877 39.9214 352.335 40.3637 363.516 45.2293C374.808 50.2055 380.122 46.9986 380.122 46.9986L379.79 21.8964Z" fill="white"/>
<path opacity="0.06" d="M16.2369 116.002C27.3073 116.555 93.7299 110.473 106.461 114.343C119.192 118.214 160.152 113.79 175.097 112.132C190.043 110.473 218.272 116.002 227.682 119.32C237.092 122.637 190.043 112.132 168.455 119.872C146.868 127.613 130.262 127.613 104.247 125.402C78.2313 123.19 31.0713 120.204 18.451 124.849C-33.0265 143.648 -24.6129 119.32 -24.6129 119.32C-24.6129 119.32 5.16649 115.449 16.2369 116.002Z" fill="white"/>
<path d="M73.9138 47.441L74.3566 47.9939L75.0208 47.8833L74.578 48.4362L74.9101 48.9891L74.2459 48.768L73.8031 49.2103V48.5468L73.1389 48.2151L73.9138 48.1045V47.441Z" fill="white"/>
<path d="M94.6155 51.2007V51.7537L95.169 51.8642L94.7262 52.0854V52.6383L94.3941 52.196L93.8406 52.4171L94.1727 51.8642L93.7299 51.5325L94.2834 51.6431L94.6155 51.2007Z" fill="white"/>
<path d="M34.8352 72.2114L35.1673 72.8749L35.9423 72.7643L35.4994 73.3172L35.8316 74.0913L35.1673 73.7596L34.6138 74.3125V73.5384L33.9496 73.2067L34.7245 72.9855L34.8352 72.2114Z" fill="white"/>
<path d="M57.8617 76.4136L57.9724 77.0771L58.5259 77.1876L57.9724 77.4088V78.0723L57.6403 77.5194L56.976 77.8511L57.3082 77.2982L56.976 76.8559L57.5296 76.9665L57.8617 76.4136Z" fill="white"/>
<path d="M225.357 99.4147V100.078L226.021 100.189L225.357 100.41L225.468 101.073L225.025 100.52L224.472 100.742L224.804 100.299L224.361 99.7464L225.025 99.9676L225.357 99.4147Z" fill="white"/>
<path d="M245.284 82.8273V83.4908L245.948 83.6014L245.284 83.8226L245.395 84.4861L244.952 83.9332L244.398 84.1543L244.73 83.712L244.288 83.1591L244.952 83.3802L245.284 82.8273Z" fill="white"/>
<path d="M239.195 66.4611V67.1246L239.859 67.2352L239.195 67.4564L239.306 68.1199L238.863 67.6775L238.31 67.8987L238.642 67.3458L238.199 66.9035L238.863 67.014L239.195 66.4611Z" fill="white"/>
<path d="M244.73 45.2293V45.8928L245.395 46.0034L244.73 46.2245L244.841 46.888L244.398 46.3351L243.845 46.5563L244.177 46.114L243.734 45.5611L244.398 45.7822L244.73 45.2293Z" fill="white"/>
<path d="M205.984 16.1462V16.8097L206.648 16.9203L205.984 17.1414L206.095 17.8049L205.652 17.3626L205.098 17.5837L205.43 17.0308L204.988 16.5885L205.652 16.6991L205.984 16.1462Z" fill="white"/>
<path d="M157.717 10.8382L157.828 11.3911L158.381 11.6123L157.828 11.8334V12.3863L157.496 11.944L156.831 12.1652L157.163 11.6123L156.831 11.1699L157.385 11.2805L157.717 10.8382Z" fill="white"/>
<path d="M88.0839 0.111694V0.775189L88.7481 0.885772L88.0839 1.10694L88.1946 1.77043L87.7518 1.3281L87.1983 1.54927L87.5304 0.996355L87.0876 0.554023L87.7518 0.664606L88.0839 0.111694Z" fill="white"/>
<path d="M17.2332 50.4267V51.0902L17.8975 51.2008L17.2332 51.4219L17.344 52.0854L16.9011 51.6431L16.3476 51.8643L16.6797 51.3114L16.2369 50.869L16.9011 50.9796L17.2332 50.4267Z" fill="white"/>
<path d="M16.1262 86.9189V87.5824L16.7904 87.693L16.1262 87.9141L16.2369 88.5776L15.7941 88.1353L15.2406 88.3564L15.5727 87.8035L15.1299 87.3612L15.7941 87.4718L16.1262 86.9189Z" fill="white"/>
<path d="M9.92676 113.68V114.343L10.4803 114.454L9.92676 114.786L10.0375 115.339L9.59465 114.896L9.04112 115.117L9.37324 114.564L8.93042 114.122L9.59465 114.233L9.92676 113.68Z" fill="white"/>
<path d="M98.4901 31.8489L98.6008 32.4018L99.1544 32.623L98.6008 32.8441V33.397L98.2687 32.9547L97.6045 33.1759L97.9366 32.623L97.6045 32.1806L98.158 32.2912L98.4901 31.8489Z" fill="white"/>
<path d="M250.376 5.64081V6.3043L251.041 6.41489L250.376 6.63605L250.487 7.29954L250.044 6.74663L249.491 6.9678L249.823 6.52547L249.38 5.97256L250.044 6.19372L250.376 5.64081Z" fill="white"/>
<path d="M46.0163 56.177L46.4592 56.8405L47.2341 56.7299L46.6806 57.2828L47.1234 57.9463L46.3485 57.6146L45.7949 58.2781L45.9056 57.504L45.1307 57.1722L46.0163 56.9511V56.177Z" fill="white"/>
<path d="M69.1535 60.3791V60.932L69.8177 61.1532L69.1535 61.3743L69.2642 62.0378L68.8214 61.4849L68.2679 61.7061L68.6 61.2637L68.1572 60.7108L68.8214 60.932L69.1535 60.3791Z" fill="white"/>
<path d="M289.566 13.3816L289.898 13.9345L290.562 13.8239L290.119 14.2662L290.451 14.8192L289.898 14.598L289.455 15.0403L289.566 14.3768L288.901 14.1557L289.566 14.0451V13.3816Z" fill="white"/>
<path d="M307.5 16.6991L307.61 17.1414L308.053 17.252L307.61 17.4732V17.9155L307.278 17.5838L306.836 17.6943L307.168 17.3626L306.836 16.9203L307.278 17.0308L307.5 16.6991Z" fill="white"/>
<path d="M307.057 33.7288L307.389 34.2817L308.053 34.0605L307.61 34.6134L307.943 35.0557L307.389 34.8346L306.946 35.2769V34.724L306.393 34.5028L307.057 34.2817V33.7288Z" fill="white"/>
<path d="M324.991 36.9357V37.4886L325.545 37.5992L325.102 37.7097V38.2627L324.77 37.8203L324.327 38.0415L324.548 37.5992L324.327 37.2674L324.77 37.378L324.991 36.9357Z" fill="white"/>
<path d="M332.74 16.4779L333.072 16.9202L333.737 16.8097L333.294 17.252L333.626 17.8049L333.072 17.5837L332.63 18.0261L332.74 17.4731L332.076 17.1414L332.74 17.0308V16.4779Z" fill="white"/>
<path d="M350.674 19.6848L350.785 20.1271L351.228 20.2377L350.785 20.4589V20.9012L350.453 20.5695L350.01 20.7906L350.342 20.3483L350.01 20.0166L350.453 20.1271L350.674 19.6848Z" fill="white"/>
<path d="M298.311 0.996399L298.643 1.43873L299.308 1.32815L298.865 1.77047L299.197 2.32339L298.643 2.10222L298.201 2.54455V1.99164L297.647 1.65989L298.311 1.54931V0.996399Z" fill="white"/>
<path d="M316.245 4.20325V4.64558L316.799 4.75616L316.356 4.97732V5.41965L316.024 5.08791L315.581 5.30907L315.803 4.86674L315.581 4.53499L316.024 4.64558L316.245 4.20325Z" fill="white"/>
<path d="M202.109 2.87628L202.441 3.53978L203.216 3.42919L202.773 3.98211L203.106 4.6456L202.441 4.42443L201.888 4.97735V4.20327L201.224 3.87152L201.999 3.65036L202.109 2.87628Z" fill="white"/>
<path d="M225.136 7.07843V7.74192L225.8 7.85251L225.246 8.07367V8.73717L224.804 8.18425L224.25 8.40542L224.582 7.96309L224.25 7.41018L224.804 7.63134L225.136 7.07843Z" fill="white"/>
<path d="M224.582 28.9737L224.914 29.7478L225.8 29.5266L225.247 30.1901L225.579 30.8536L224.914 30.5218L224.361 31.0748L224.472 30.3007L223.697 29.9689L224.472 29.8584L224.582 28.9737Z" fill="white"/>
<path d="M247.609 33.1758L247.719 33.8393L248.273 33.9499L247.719 34.2817V34.8346L247.387 34.3923L246.834 34.6134L247.166 34.0605L246.723 33.6182L247.277 33.7288L247.609 33.1758Z" fill="white"/>
<path d="M257.683 6.74664L258.126 7.41014L258.901 7.29955L258.347 7.85247L258.79 8.62654L258.015 8.2948L257.461 8.84771L257.572 8.07363L256.797 7.74188L257.572 7.52072L257.683 6.74664Z" fill="white"/>
<path d="M280.82 10.9488V11.6123L281.373 11.7229L280.82 11.944L280.931 12.6075L280.488 12.1652L279.934 12.3864L280.266 11.8334L279.824 11.3911L280.488 11.5017L280.82 10.9488Z" fill="white"/>
<path d="M329.641 54.4077L329.973 55.0711L330.637 54.85L330.194 55.4029L330.526 56.0664L329.862 55.7346L329.419 56.2876L329.53 55.6241L328.866 55.2923L329.53 55.1817L329.641 54.4077Z" fill="white"/>
<path d="M350.232 58.1675L350.342 58.7204L350.896 58.831L350.342 59.0521V59.605L350.01 59.1627L349.457 59.3839L349.789 58.9416L349.457 58.4992L350.01 58.6098L350.232 58.1675Z" fill="white"/>
<path d="M290.451 79.2887L290.894 79.9522L291.669 79.731L291.116 80.3945L291.558 81.058L290.783 80.7263L290.23 81.3898L290.341 80.5051L289.566 80.2839L290.341 80.0628L290.451 79.2887Z" fill="white"/>
<path d="M313.588 83.4908V84.0438L314.142 84.2649L313.588 84.4861L313.699 85.039L313.256 84.5967L312.703 84.8178L313.035 84.2649L312.592 83.8226L313.256 83.9332L313.588 83.4908Z" fill="white"/>
<path d="M312.924 105.386L313.367 106.05L314.142 105.939L313.588 106.492L314.031 107.266L313.256 106.934L312.703 107.487L312.814 106.713L312.039 106.381L312.924 106.16V105.386Z" fill="white"/>
<path d="M336.061 109.588V110.252L336.726 110.362L336.061 110.583L336.172 111.247L335.729 110.805L335.176 111.026L335.508 110.473L335.065 110.031L335.729 110.141L336.061 109.588Z" fill="white"/>
<path d="M346.136 83.1591L346.468 83.8226L347.243 83.712L346.689 84.2649L347.132 84.9284L346.357 84.5966L345.914 85.2601V84.486L345.25 84.1543L346.025 83.9331L346.136 83.1591Z" fill="white"/>
<path d="M369.162 87.3612V87.9141L369.826 88.1353L369.273 88.3564V89.0199L368.83 88.467L368.276 88.6882L368.608 88.2459L368.276 87.6929L368.83 87.9141L369.162 87.3612Z" fill="white"/>
<path d="M301.743 63.1437L302.075 63.9177L302.85 63.6966L302.407 64.3601L302.739 65.0236L302.075 64.6918L301.522 65.2447V64.4707L300.857 64.1389L301.632 64.0283L301.743 63.1437Z" fill="white"/>
<path d="M324.77 67.3458L324.88 68.0093L325.434 68.1199L324.88 68.4516V69.0046L324.548 68.5622L323.884 68.7834L324.216 68.2305L323.884 67.7882L324.437 67.8987L324.77 67.3458Z" fill="white"/>
<rect y="406" width="376" height="406" fill="#0D2327"/>
<g clip-path="url(#clip1_55_10014)">
<path opacity="0.2" d="M245.965 312.004V388.678H466.911V312.564H467.653V311.818H466.168C466.354 311.445 466.354 310.885 466.354 310.512C466.354 308.646 465.054 306.967 463.383 306.408C463.383 305.661 463.012 305.288 462.455 304.915L462.269 304.356V304.169C462.269 303.982 462.269 303.982 462.083 303.796L461.898 301.744L461.712 303.796C461.526 303.796 461.526 303.982 461.526 304.169V304.356L461.341 304.915C460.784 305.102 460.412 305.661 460.412 306.408C458.741 306.967 457.442 308.646 457.442 310.512C457.442 310.885 457.442 311.445 457.627 311.818H456.142H455.956V304.169C456.142 304.169 456.328 303.982 456.328 303.796V303.609C456.328 303.423 456.142 303.236 455.956 303.236H455.399C455.399 303.05 455.399 303.05 455.399 302.863C455.399 301.93 454.842 301.184 454.1 300.625C453.728 300.251 453.171 300.065 452.986 299.505L453.171 299.319C453.171 299.132 453.171 299.132 452.986 299.132C452.8 299.132 452.8 299.319 452.8 299.319C452.8 299.319 452.8 299.505 452.986 299.505C452.614 299.878 452.243 300.251 451.872 300.625C451.129 300.998 450.572 301.93 450.572 302.863C450.572 303.05 450.572 303.05 450.572 303.236H450.201C450.015 303.236 449.829 303.423 449.829 303.609V303.796C449.829 303.982 450.015 304.169 450.201 304.169V309.019H449.087C449.458 308.46 449.458 307.9 449.458 307.34C449.458 305.288 447.601 303.423 444.63 302.303C442.774 301.557 441.103 300.625 439.803 299.692C439.803 299.692 439.803 299.505 439.803 299.319C439.803 298.946 439.617 298.759 439.432 298.759L439.246 296.147H439.06L438.875 298.759C438.689 298.946 438.503 299.132 438.503 299.319C438.503 299.505 438.503 299.505 438.503 299.692C437.204 300.811 435.718 301.744 433.676 302.303C430.705 303.423 428.849 305.288 428.849 307.34C428.849 307.714 428.849 308.087 429.034 308.46H428.292C428.477 307.527 428.663 306.594 428.663 305.661C428.663 300.998 425.135 297.08 420.494 296.52L419.937 294.655C419.937 294.655 419.936 294.655 419.751 294.655L419.38 289.804L419.008 294.655H418.822L418.265 296.52C414.923 296.893 411.953 299.132 410.839 302.303L411.024 297.267H411.581V296.334H411.024V289.804H411.581V289.245H411.21V289.058H410.839V286.633H411.21V286.446H410.653C410.653 286.26 410.653 286.073 410.653 286.073C410.653 285.514 410.282 285.14 409.91 284.767C409.725 284.581 409.353 284.394 409.168 284.208C409.168 284.208 409.168 284.208 409.168 284.021C409.168 284.021 409.168 283.835 408.982 283.835V283.275C409.168 283.275 409.353 283.088 409.353 282.902C409.353 283.088 409.168 283.088 408.982 283.088C408.796 283.088 408.611 282.902 408.611 282.715C408.611 282.529 408.611 282.342 408.796 282.342C408.611 282.342 408.425 282.529 408.425 282.715C408.425 282.902 408.611 283.088 408.796 283.088V283.648C408.796 283.648 408.611 283.648 408.611 283.835V284.021C408.425 284.208 408.239 284.581 407.868 284.581C407.497 284.767 407.125 285.327 407.125 285.887C407.125 286.073 407.125 286.26 407.125 286.26H407.311V286.446H407.682V288.872H407.311V289.058H406.94V289.618H407.497L407.311 296.147H406.754V297.08H407.311L407.125 304.169H406.383V305.102H407.125V308.273H404.712C405.454 306.781 406.011 305.288 406.011 303.609C406.011 298.013 400.813 292.976 393.2 290.177C388.187 288.312 383.917 285.887 380.575 283.088C380.76 282.902 380.76 282.529 380.76 282.156C380.76 281.409 380.389 280.85 379.646 280.477L379.275 273.388H378.718L378.347 280.477C377.79 280.85 377.233 281.409 377.233 282.156C377.233 282.529 377.233 282.715 377.418 283.088C374.076 285.887 369.806 288.312 364.793 290.177C363.308 290.737 362.008 291.297 360.708 292.043V271.335H360.894C361.265 271.335 361.451 271.149 361.451 270.776V270.403C361.451 270.03 361.265 269.843 360.894 269.843H360.151C360.151 269.656 360.151 269.47 360.151 269.283C360.151 267.791 359.408 266.485 358.109 265.739C357.366 265.366 356.809 264.619 356.252 264.06C356.438 264.06 356.438 263.873 356.438 263.687C356.438 263.5 356.252 263.314 356.066 263.314L355.881 261.448H355.695L355.509 263.314C355.324 263.314 355.138 263.5 355.138 263.687C355.138 263.873 355.138 263.873 355.324 264.06C354.767 264.806 354.21 265.366 353.467 265.739C352.353 266.485 351.425 267.791 351.425 269.283C351.425 269.47 351.425 269.656 351.425 269.843H350.682C350.311 269.843 350.125 270.03 350.125 270.403V270.776C350.125 271.149 350.311 271.335 350.682 271.335H350.868V284.581C349.382 280.103 346.226 276.186 342.327 273.761C338.799 271.522 335.829 268.724 333.415 265.366C333.786 264.993 334.158 264.433 334.158 263.687C334.158 262.754 333.6 262.008 332.858 261.635L332.301 253.426C332.672 253.426 333.043 253.613 333.415 253.613C336.386 253.613 338.985 251.374 339.356 248.389C338.614 250.068 336.757 251.188 334.715 251.188C331.929 251.188 329.701 248.949 329.701 246.151C329.701 244.098 330.815 242.419 332.486 241.487C329.516 241.86 327.288 244.472 327.288 247.456C327.288 250.068 328.959 252.493 331.372 253.24L330.815 261.635C330.073 262.008 329.516 262.754 329.516 263.687C329.516 264.433 329.887 264.993 330.258 265.366C327.845 268.724 324.874 271.522 321.346 273.761C315.591 277.305 311.877 283.648 311.877 290.924C311.877 292.976 312.249 295.028 312.806 296.893H307.978C307.978 296.52 307.978 296.334 307.978 295.961C307.978 289.245 302.965 283.648 296.467 282.902L295.724 280.477C295.724 280.477 295.724 280.477 295.538 280.477L295.167 273.574L294.796 280.477C294.61 280.477 294.61 280.477 294.61 280.477L293.867 282.902C287.369 283.648 282.356 289.245 282.356 295.961C282.356 297.267 282.542 298.572 282.913 299.878H278.457V301.93H280.499V312.004H275.858L275.672 298.013H276.972V296.334H275.672L275.486 283.648H276.415V281.969H275.486L275.3 270.403H276.229V269.47H275.672V269.097H275.115V264.806H275.672V264.433H274.744C274.744 264.246 274.929 263.873 274.929 263.687C274.929 262.754 274.372 261.821 273.629 261.448C273.072 261.075 272.701 260.702 272.515 260.329L272.701 260.142C272.701 259.956 272.701 259.956 272.515 259.769V258.65H272.701C273.072 258.65 273.444 258.277 273.444 257.903C273.258 258.09 273.072 258.277 272.887 258.277C272.515 258.277 272.144 257.903 272.144 257.53C272.144 257.344 272.33 256.971 272.515 256.971C272.144 256.971 271.773 257.344 271.773 257.717C271.773 258.09 271.958 258.277 272.33 258.463V259.583C272.144 259.583 272.144 259.769 272.144 259.956C272.144 259.956 272.144 260.142 272.33 260.142C271.958 260.515 271.587 260.888 271.216 261.261C270.473 261.821 269.916 262.567 269.916 263.5C269.916 263.687 269.916 264.06 270.102 264.246H268.059V264.619H268.616V268.91H268.059V269.283H267.502V270.216H268.431L268.245 281.782H267.317V283.461H268.245L268.059 296.147H266.76V297.826H268.059L267.874 311.818H265.46V286.819H265.646C266.203 286.819 266.574 286.446 266.574 285.887V285.327C266.574 284.767 266.203 284.394 265.646 284.394H264.346C264.346 284.021 264.346 283.835 264.346 283.461C264.346 281.223 263.046 279.171 261.375 278.051C260.261 277.305 259.333 276.372 258.59 275.44C258.776 275.253 258.776 275.067 258.776 274.88C258.776 274.507 258.59 274.32 258.405 274.134L258.219 271.149H258.033L257.848 274.134C257.662 274.32 257.476 274.507 257.476 274.88C257.476 275.067 257.476 275.253 257.662 275.44C256.919 276.559 255.991 277.492 254.877 278.051C253.02 279.171 251.906 281.223 251.906 283.461C251.906 283.835 251.906 284.208 251.906 284.394H250.792C250.235 284.394 249.864 284.767 249.864 285.327V285.887C249.864 286.446 250.235 286.819 250.792 286.819H250.978V311.818H245.965V312.004ZM454.842 306.594C454.842 305.848 455.028 305.288 455.399 305.102C455.585 305.288 455.956 305.848 455.956 306.594V309.393H455.028V306.594H454.842ZM451.872 306.221C451.872 305.475 452.429 304.729 453.171 304.542C453.914 304.729 454.471 305.288 454.471 306.221V309.206H452.614H451.872V306.221ZM450.572 306.594C450.572 305.848 450.758 305.288 451.129 305.102C451.315 305.288 451.686 305.848 451.686 306.594V309.206H450.758V306.594H450.572ZM410.282 287.193C410.282 287.006 410.282 287.006 410.282 287.193L410.467 287.006C410.467 287.006 410.653 287.006 410.653 287.193V289.058H410.282V287.193ZM409.725 287.193C409.725 287.006 409.725 287.006 409.725 287.193L409.91 287.006C409.91 287.006 410.096 287.006 410.096 287.193V289.058H409.725V287.193ZM408.982 287.193C408.982 287.006 409.168 287.006 408.982 287.193L409.168 287.006C409.168 287.006 409.353 287.006 409.353 287.193V289.058H408.982V287.193ZM408.425 287.193C408.425 287.006 408.425 287.006 408.425 287.193L408.611 287.006C408.611 287.006 408.796 287.006 408.796 287.193V289.058H408.425V287.193ZM407.868 287.193C407.868 287.006 407.868 287.006 407.868 287.193L408.054 287.006C408.054 287.006 408.239 287.006 408.239 287.193V289.058H407.868V287.193ZM358.294 275.253C358.294 274.134 358.666 273.201 359.037 272.828C359.408 273.201 359.78 274.134 359.78 275.253V279.73H358.294V275.253ZM353.653 274.693C353.653 273.388 354.395 272.455 355.695 272.082C356.809 272.455 357.737 273.388 357.737 274.693V279.544H353.838V274.693H353.653ZM351.425 275.253C351.425 274.134 351.796 273.201 352.167 272.828C352.539 273.201 352.91 274.134 352.91 275.253V279.73H351.425V275.253ZM273.258 265.925C273.258 265.739 273.444 265.739 273.444 265.739H273.629C273.815 265.739 273.815 265.925 273.815 265.925V269.283H273.258V265.925ZM272.33 265.925C272.33 265.739 272.515 265.739 272.515 265.739H272.701C272.887 265.739 272.887 265.925 272.887 265.925V269.283H272.33V265.925ZM271.216 265.925C271.216 265.739 271.401 265.739 271.401 265.739H271.587C271.773 265.739 271.773 265.925 271.773 265.925V269.283H271.216V265.925ZM270.102 265.925C270.102 265.739 270.287 265.739 270.287 265.739H270.473C270.659 265.739 270.659 265.925 270.659 265.925V269.283H270.102V265.925ZM269.173 265.925C269.173 265.739 269.359 265.739 269.359 265.739H269.545C269.73 265.739 269.73 265.925 269.73 265.925V269.283H269.173V265.925ZM261.932 292.603C261.932 290.924 262.489 289.431 263.046 289.058C263.789 289.431 264.16 290.924 264.16 292.603V299.319H261.747V292.603H261.932ZM255.063 291.856C255.063 289.991 256.362 288.312 258.033 287.939C259.704 288.498 261.004 289.991 261.004 291.856V299.319H255.063V291.856ZM251.721 292.603C251.721 290.924 252.278 289.431 252.835 289.058C253.577 289.431 253.949 290.924 253.949 292.603V299.319H251.535V292.603H251.721Z" fill="black"/>
<path opacity="0.2" d="M114.433 299.743V245.619H114.66C115.34 245.619 116.021 244.936 116.021 244.254V243.572C116.021 242.89 115.34 242.207 114.66 242.207H112.846C112.846 241.753 113.072 241.07 113.072 240.616C113.072 236.977 111.031 233.566 108.082 231.747C106.268 230.61 104.68 229.245 103.546 227.426C103.773 227.198 104 226.971 104 226.516C104 226.061 103.773 225.606 103.319 225.379L103.092 220.603H102.639L102.412 225.379C101.958 225.606 101.732 226.061 101.732 226.516C101.732 226.971 101.958 227.198 102.185 227.426C101.051 229.245 99.4634 230.61 97.6489 231.747C94.7003 233.566 92.659 236.75 92.659 240.616C92.659 241.07 92.659 241.753 92.8858 242.207H91.0713C90.3908 242.207 89.7104 242.89 89.7104 243.572V244.254C89.7104 244.936 90.3908 245.619 91.0713 245.619H91.2981V299.743H83.1327L82.6791 278.821H84.7204V276.092H82.4523L81.9986 254.26H83.5863V251.531H81.9986L81.545 231.519H83.1327V229.927H82.2255V229.472H81.3182V222.195H82.2255V221.513H80.6378C80.8646 221.058 80.8646 220.603 80.8646 220.149C80.8646 218.557 79.9573 216.965 78.5964 216.283C77.6892 215.828 77.0087 215.145 76.5551 214.236C76.5551 214.236 76.7819 214.008 76.7819 213.781C76.7819 213.554 76.5551 213.326 76.5551 213.326L76.3283 211.507H76.5551C77.2355 211.507 77.916 211.052 77.916 210.37C77.6891 210.825 77.2355 211.052 76.7819 211.052C76.1014 211.052 75.6478 210.597 75.6478 209.915C75.6478 209.46 75.8746 209.005 76.3283 208.778C75.6478 208.778 75.1942 209.46 75.1942 210.142C75.1942 210.825 75.6478 211.28 76.1015 211.507L75.8746 213.326C75.6478 213.326 75.6478 213.554 75.6478 213.781C75.6478 214.008 75.6478 214.008 75.8746 214.236C75.421 214.918 74.5137 215.6 73.8333 216.283C72.4724 217.192 71.5651 218.557 71.5651 220.149C71.5651 220.603 71.5651 221.058 71.792 221.513H70.2043V222.195H71.1115V229.472H70.2043V229.927H69.297V231.519H71.1115L70.6579 251.531H68.8434V254.26H70.4311L69.9774 276.092H67.7093V278.821H69.7506L69.297 299.743H63.6266V266.541H63.8534C64.3071 266.541 64.5339 266.086 64.5339 265.858V265.403C64.5339 264.949 64.3071 264.721 63.8534 264.721H62.7193C62.7193 264.494 62.7193 264.039 62.7193 263.812C62.7193 261.765 61.5853 259.946 59.9976 259.036C59.0903 258.354 58.183 257.671 57.5026 256.762C57.7294 256.534 57.7294 256.534 57.7294 256.307C57.7294 256.08 57.5026 255.852 57.2758 255.625L57.049 253.123H56.8221L56.5953 255.625C56.3685 255.625 56.1417 255.852 56.1417 256.307C56.1417 256.534 56.1417 256.762 56.3685 256.762C55.688 257.671 54.7808 258.581 53.8736 259.036C52.2858 259.946 51.1517 261.765 51.1517 263.812C51.1517 264.039 51.1517 264.494 51.1517 264.721H50.6981C50.2445 264.721 50.0177 265.176 50.0177 265.403V265.858C50.0177 266.313 50.4713 266.541 50.6981 266.541V279.503H46.8423C47.5227 277.001 47.9763 274.273 47.9763 271.316C47.9763 261.537 42.7596 252.896 35.0479 248.12C30.2847 245.164 26.2021 241.298 22.7998 236.75C23.4803 236.067 23.7071 235.385 23.7071 234.476C23.7071 233.111 23.0266 231.974 21.8926 231.519L21.2121 220.603C21.6657 220.603 22.1194 220.831 22.573 220.831C26.6557 220.831 30.0579 217.647 30.7384 213.781C29.6043 216.055 27.3361 217.647 24.6143 217.647C20.7585 217.647 17.8099 214.463 17.8099 210.825C17.8099 208.096 19.3976 205.822 21.6657 204.685C17.5831 205.139 14.6345 208.551 14.6345 212.871C14.6345 216.51 16.9026 219.466 20.3049 220.603L19.6244 231.974C18.4903 232.429 17.8099 233.566 17.8099 234.93C17.8099 235.84 18.2635 236.75 18.7171 237.204C15.5417 241.753 11.2322 245.619 6.46911 248.575C-1.24261 253.351 -6.45937 261.992 -6.45937 271.771C-6.45937 274.5 -6.00574 277.229 -5.32529 279.958H-11.9029C-11.9029 279.503 -11.9029 279.048 -11.9029 278.593C-11.9029 269.497 -18.7074 261.992 -27.5532 261.083L-28.6873 257.671C-28.6873 257.671 -28.6873 257.671 -28.9141 257.671L-29.5945 248.348L-30.275 257.671C-30.5018 257.671 -30.5018 257.671 -30.5018 257.671L-31.6359 261.083C-40.4817 262.22 -47.2862 269.497 -47.2862 278.593C-47.2862 280.413 -47.0593 282.232 -46.6057 283.824H-52.5029V286.553H-49.7811V300.197H-53.637L-53.8638 285.871H-52.2761V283.596H-54.0906L-54.3174 266.541H-53.1833V264.266H-54.3174L-54.5442 248.575H-53.1833V247.211H-53.8638V246.756H-54.5442V241.07H-53.8638V240.616H-54.9979C-54.9979 240.388 -54.7711 239.933 -54.7711 239.479C-54.7711 238.114 -55.4515 236.977 -56.5856 236.295C-57.266 235.84 -57.7197 235.385 -58.1733 234.703L-57.9465 234.476C-57.9465 234.248 -57.9465 234.248 -58.1733 234.021V232.656H-57.9465C-57.4928 232.656 -57.0392 232.201 -56.8124 231.747C-57.0392 231.974 -57.266 232.201 -57.7197 232.201C-58.1733 232.201 -58.6269 231.747 -58.6269 231.292C-58.6269 230.837 -58.4001 230.61 -58.1733 230.382C-58.6269 230.382 -59.0806 230.837 -59.0806 231.519C-59.0806 231.974 -58.8537 232.429 -58.4001 232.656V234.248C-58.6269 234.248 -58.6269 234.475 -58.6269 234.703C-58.6269 234.93 -58.6269 234.93 -58.4001 234.93C-58.8537 235.613 -59.3074 236.067 -59.9878 236.522C-61.1219 237.204 -61.8023 238.342 -61.8023 239.706C-61.8023 240.161 -61.8023 240.388 -61.5755 240.843H-62.7096V241.298H-62.0292V246.983H-62.7096V247.438H-63.39V248.802H-62.0292L-62.256 264.494H-63.39V266.768H-62.256L-62.4828 283.824H-64.2973V286.098H-62.7096L-62.9364 300.425H-74.0504V272.226H-73.8236C-73.3699 272.226 -72.9163 271.771 -72.9163 271.316V270.179C-72.9163 269.724 -73.3699 269.269 -73.8236 269.269H-74.9576C-74.9576 269.042 -74.9576 268.587 -74.9576 268.36C-74.9576 266.086 -76.0917 264.266 -77.9062 263.129C-79.0403 262.447 -79.9476 261.537 -80.628 260.628C-80.4012 260.4 -80.4012 260.4 -80.4012 260.173C-80.4012 259.946 -80.628 259.718 -80.8548 259.491L-81.0816 256.762H-81.3085L-81.5353 259.491C-81.7621 259.491 -81.9889 259.946 -81.9889 260.173C-81.9889 260.4 -81.9889 260.628 -81.7621 260.628C-82.4425 261.765 -83.3498 262.447 -84.4839 263.129C-86.2984 264.266 -87.4325 266.086 -87.4325 268.36C-87.4325 268.587 -87.4325 269.042 -87.4325 269.269H-88.5666C-89.0202 269.269 -89.4738 269.724 -89.4738 270.179V270.634C-89.4738 271.089 -89.0202 271.544 -88.5666 271.544H-88.3397V299.743H-97.1855V414.813H120.104V299.743H114.433ZM-85.8448 283.369H-88.1129V277.001C-88.1129 275.41 -87.6593 274.045 -86.9789 273.59C-86.2984 274.045 -85.8448 275.41 -85.8448 277.001V283.369ZM-79.2671 283.369H-84.9375V276.319C-84.9375 274.5 -83.8034 272.908 -81.9889 272.453C-80.4012 272.908 -79.0403 274.5 -79.0403 276.319V283.369H-79.2671ZM-75.8649 283.369H-78.133V277.001C-78.133 275.41 -77.6794 274.045 -76.999 273.59C-76.3185 274.045 -75.8649 275.41 -75.8649 277.001V283.369ZM-61.3487 246.756H-62.0292V242.207C-62.0292 241.98 -61.8023 241.98 -61.8023 241.98H-61.5755C-61.3487 241.98 -61.3487 242.207 -61.3487 242.207V246.756ZM-59.761 246.756H-60.4414V242.207C-60.4414 241.98 -60.2146 241.98 -60.2146 241.98H-59.9878C-59.761 241.98 -59.761 242.207 -59.761 242.207V246.756ZM-58.4001 246.756H-59.0806V242.207C-59.0806 241.98 -58.8537 241.98 -58.8537 241.98H-58.6269C-58.4001 241.98 -58.4001 242.207 -58.4001 242.207V246.756ZM-57.0392 246.756H-57.7197V242.207C-57.7197 241.98 -57.4928 241.98 -57.4928 241.98H-57.266C-57.0392 241.98 -57.0392 242.207 -57.0392 242.207V246.756ZM-55.6783 246.756H-56.3588V242.207C-56.3588 241.98 -56.132 241.98 -56.132 241.98H-55.9051C-55.6783 241.98 -55.6783 242.207 -55.6783 242.207V246.756ZM53.6467 277.229H51.6054V271.316C51.6054 269.724 52.059 268.587 52.7395 268.132C53.4199 268.587 53.8736 269.724 53.8736 271.316V277.229H53.6467ZM59.9976 277.229H54.7808V270.634C54.7808 269.042 55.9149 267.45 57.5026 267.223C59.0903 267.678 60.2244 269.042 60.2244 270.634V277.229H59.9976ZM62.9462 277.229H60.9048V271.316C60.9048 269.724 61.3584 268.587 62.0389 268.132C62.7193 268.587 63.173 269.724 63.173 271.316V277.229H62.9462ZM72.926 229.018H72.0188V223.105C72.0188 222.878 72.2456 222.65 72.4724 222.65H72.6992C72.926 222.65 73.1529 222.878 73.1529 223.105V229.018H72.926ZM74.7406 229.018H73.8333V223.105C73.8333 222.878 74.0601 222.65 74.2869 222.65H74.5137C74.7406 222.65 74.9674 222.878 74.9674 223.105V229.018H74.7406ZM76.5551 229.018H75.6478V223.105C75.6478 222.878 75.8746 222.65 76.1015 222.65H76.3283C76.5551 222.65 76.7819 222.878 76.7819 223.105V229.018H76.5551ZM78.3696 229.018H77.4623V223.105C77.4623 222.878 77.6891 222.65 77.916 222.65C78.1428 222.65 78.3696 222.878 78.3696 223.105V229.018ZM80.1841 229.018H79.2769V223.105C79.2769 222.878 79.5037 222.65 79.7305 222.65H79.9573C80.1841 222.65 80.4109 222.878 80.4109 223.105V229.018H80.1841ZM96.288 265.176H92.4322V254.488C92.4322 251.759 93.3394 249.485 94.2467 248.802C95.3808 249.485 96.0612 251.759 96.0612 254.488V265.176H96.288ZM107.402 265.176H97.8757V253.351C97.8757 250.394 99.9171 247.665 102.639 246.983C105.361 247.665 107.402 250.394 107.402 253.351V265.176ZM112.846 265.176H108.99V254.488C108.99 251.759 109.897 249.485 110.804 248.802C111.938 249.485 112.619 251.759 112.619 254.488V265.176H112.846Z" fill="black"/>
<path d="M-2 368.242V558.155H544.795V369.921H546.466V368.242H542.752C543.124 367.123 543.309 366.19 543.309 365.071C543.309 360.407 540.339 356.303 536.068 354.81V354.624C536.068 352.945 534.954 351.639 533.654 351.079L533.097 349.4C533.283 349.213 533.283 349.027 533.283 348.84C533.283 348.467 533.097 348.094 532.726 348.094L532.355 343.057L531.983 348.094C531.612 348.281 531.426 348.467 531.426 348.84C531.426 349.027 531.426 349.213 531.612 349.4L531.055 351.079C529.57 351.639 528.641 352.945 528.641 354.624V354.81C524.371 356.303 521.4 360.407 521.4 365.071C521.4 366.19 521.586 367.309 521.957 368.242H518.244H517.873V349.213H518.058C518.615 349.213 518.987 348.84 518.987 348.281V347.908C518.987 347.348 518.615 346.975 518.058 346.975H516.944C516.944 346.602 516.944 346.415 516.944 346.042C516.944 343.803 515.645 341.751 513.974 340.632C512.859 339.886 511.931 338.953 511.188 338.02C511.374 337.834 511.374 337.647 511.374 337.46C511.374 337.087 511.188 336.901 511.003 336.714L510.817 333.729H510.632L510.26 336.714C510.074 336.901 509.889 337.087 509.889 337.46C509.889 337.647 509.889 337.834 510.074 338.02C509.332 339.139 508.403 340.072 507.289 340.632C505.433 341.751 504.319 343.803 504.319 346.042C504.319 346.415 504.319 346.788 504.319 346.975H503.205C502.648 346.975 502.276 347.348 502.276 347.908V348.467C502.276 349.027 502.648 349.4 503.205 349.4H503.39V361.526H500.605C501.348 360.22 501.719 358.728 501.719 357.235C501.719 352.012 496.892 347.348 489.837 344.736C485.195 343.057 481.11 340.819 478.139 338.207C478.325 338.02 478.325 337.647 478.325 337.46C478.325 336.714 477.954 336.155 477.397 335.968L477.025 329.252H476.468L476.097 335.968C475.54 336.155 475.169 336.901 475.169 337.46C475.169 337.647 475.169 338.02 475.354 338.207C472.198 340.819 468.299 343.057 463.657 344.736C456.416 347.348 451.774 352.012 451.774 357.235C451.774 358.168 451.96 358.914 452.146 359.847H450.103C450.846 357.795 451.032 355.37 451.032 353.131C451.032 341.378 442.305 331.864 430.98 330.371L429.494 325.894C429.494 325.894 429.309 325.894 429.123 325.708L428.38 313.582C428.38 313.582 428.38 313.582 428.195 313.582H428.009L427.266 325.708C427.081 325.708 426.895 325.708 426.895 325.894L425.41 330.371C416.869 331.304 409.813 337.087 406.843 344.736L406.657 331.864H407.771V329.625H406.471L406.1 313.395H407.4V312.089H406.657V311.716H405.914V305.746H406.657V305H405.357C405.543 304.627 405.543 304.254 405.543 303.881C405.543 302.575 404.8 301.269 403.686 300.709C402.944 300.336 402.387 299.776 402.015 299.217C402.015 299.217 402.201 299.03 402.201 298.844C402.201 298.657 402.015 298.471 402.015 298.471L401.83 296.978H402.015C402.572 296.978 403.129 296.605 403.129 296.045C402.944 296.418 402.572 296.605 402.201 296.605C401.644 296.605 401.273 296.232 401.273 295.672C401.273 295.299 401.458 294.926 401.83 294.74C401.273 294.74 400.901 295.299 400.901 295.859C400.901 296.419 401.273 296.792 401.644 296.978L401.458 298.471C401.273 298.471 401.273 298.657 401.273 298.844C401.273 299.03 401.273 299.03 401.458 299.217C401.087 299.776 400.53 300.336 399.787 300.709C398.673 301.455 397.931 302.575 397.931 303.881C397.931 304.254 397.931 304.627 398.116 305H397.002V305.56H397.745V311.529H397.002V311.903H396.26V313.208H397.559L397.188 329.439H395.888V331.677H397.002L396.631 349.4H394.774V351.639H396.445L396.26 359.661H390.132C391.989 355.929 393.103 352.198 393.103 348.094C393.103 334.103 380.292 321.79 361.168 314.887C348.728 310.41 338.145 304.44 329.79 297.538C330.161 296.978 330.347 296.232 330.347 295.299C330.347 293.434 329.233 291.941 327.748 291.195L326.634 273.472H325.334L324.22 291.195C322.549 291.941 321.621 293.434 321.621 295.299C321.621 296.045 321.806 296.792 322.178 297.538C314.008 304.627 303.425 310.41 290.8 314.887C287.272 316.193 283.93 317.686 280.774 319.365V268.062H281.145C281.888 268.062 282.445 267.503 282.445 266.57V265.824C282.445 265.077 281.888 264.331 281.145 264.331H279.288C279.288 263.771 279.474 263.212 279.474 262.839C279.474 259.108 277.431 255.75 274.461 253.884C272.604 252.765 271.119 251.272 269.819 249.593C270.005 249.407 270.19 249.034 270.19 248.661C270.19 248.101 269.819 247.728 269.448 247.541L269.076 242.877H268.705L268.334 247.541C267.962 247.728 267.591 248.101 267.591 248.661C267.591 249.034 267.777 249.407 267.962 249.593C266.663 251.272 265.177 252.765 263.321 253.884C260.35 255.75 258.308 258.921 258.308 262.839C258.308 263.398 258.308 263.958 258.493 264.331H256.637C255.894 264.331 255.337 264.891 255.337 265.824V266.57C255.337 267.316 255.894 268.062 256.637 268.062H256.822V300.709C253.109 289.516 245.496 280.188 235.842 274.032C227.115 268.622 219.503 261.533 213.561 253.138C214.675 252.018 215.418 250.526 215.418 249.034C215.418 246.608 213.933 244.743 212.076 243.81L210.776 238.662C211.705 238.849 212.447 238.849 213.376 238.849C220.988 238.849 227.115 233.252 228.044 225.79C226.001 230.081 221.731 232.879 216.718 232.879C209.848 232.879 204.278 227.282 204.278 220.38C204.278 215.343 207.249 211.052 211.333 209C204.092 209.933 198.337 216.276 198.337 223.738C198.337 230.454 202.607 236.05 208.548 237.916L207.249 243.437C205.206 244.37 203.907 246.422 203.907 248.661C203.907 250.34 204.649 251.832 205.763 252.765C199.822 261.16 192.21 268.062 183.483 273.659C169.372 282.427 159.903 298.284 159.903 316.193C159.903 321.417 160.646 326.267 162.131 330.931H150.248C150.248 330.185 150.248 329.439 150.248 328.506C150.248 311.903 137.809 298.284 121.841 296.418L119.799 290.262C119.799 290.262 119.613 290.076 119.242 290.076L118.128 272.913C118.128 272.913 118.128 272.726 117.942 272.726C117.942 272.726 117.756 272.726 117.756 272.913L116.642 290.076C116.457 290.076 116.271 290.262 116.085 290.262L114.043 296.418C98.0755 298.284 85.6357 311.903 85.6357 328.506C85.6357 331.864 86.1927 335.035 87.121 338.02H76.1666V342.871H81.1796V367.682H69.6682L68.9255 332.983H71.8962V329.066H68.7398L68.1828 297.911H70.2252V293.993H67.9971L68.5541 265.824H70.9678V263.585H69.4825V262.839H67.9971V252.392H69.4825V251.459H67.2545C67.4401 250.899 67.6258 250.153 67.6258 249.407C67.6258 246.982 66.3261 244.929 64.4694 243.81C63.3554 243.064 62.2414 242.131 61.4987 241.012C61.6844 240.825 61.6844 240.639 61.6844 240.452C61.6844 240.079 61.4987 239.892 61.3131 239.706L61.1274 237.094C61.3131 237.094 61.3131 237.094 61.4987 237.094C62.4271 237.094 63.3554 236.348 63.5411 235.415C63.3554 235.975 62.7984 236.348 62.0557 236.348C61.1274 236.348 60.3847 235.602 60.3847 234.669C60.3847 233.923 60.7561 233.363 61.3131 233.176C60.3847 233.363 59.642 234.109 59.642 235.229C59.642 236.161 60.199 236.908 60.9417 237.094L60.756 239.892C60.5704 240.079 60.3847 240.266 60.3847 240.639C60.3847 240.825 60.3847 241.012 60.5704 241.198C59.8277 242.318 58.7137 243.25 57.5997 243.997C55.743 245.116 54.4433 247.168 54.4433 249.593C54.4433 250.34 54.629 250.899 54.8146 251.645H52.5866V252.578H53.8863V263.025H52.5866V263.771H51.1013V266.01H53.515L52.958 294.553H50.7299V298.471H52.7723L52.2153 329.625H49.0589V333.543H52.0296L51.2869 368.242H45.5312V306.492H46.0882C47.2022 306.492 48.1306 305.56 48.1306 304.44V303.134C48.1306 302.015 47.2022 301.082 46.0882 301.082H43.3032C43.4888 300.336 43.4888 299.403 43.4888 298.657C43.4888 292.874 40.5182 288.024 36.0621 285.225C33.2771 283.546 30.8634 281.308 29.0067 278.509C29.378 278.136 29.5637 277.763 29.5637 277.203C29.5637 276.457 29.1924 275.897 28.4497 275.524L27.8927 268.249H27.5213L26.9643 275.524C26.4073 275.897 25.8503 276.457 25.8503 277.203C25.8503 277.763 26.036 278.136 26.4073 278.509C24.5506 281.121 22.1369 283.36 19.3519 285.039C14.8959 287.837 11.9252 292.874 11.9252 298.471C11.9252 299.217 11.9252 300.15 12.1108 300.896H9.3258C8.21178 300.896 7.28344 301.829 7.28344 302.948V304.067C7.28344 305.187 8.21178 306.119 9.3258 306.119H9.69713V367.869H-2V368.242ZM514.531 354.81C514.531 353.131 515.088 351.639 515.645 351.266C516.387 351.639 516.759 353.131 516.759 354.81V361.526H514.345V354.81H514.531ZM507.475 354.064C507.475 352.198 508.775 350.519 510.446 350.146C512.117 350.706 513.417 352.198 513.417 354.064V361.526H508.96V361.34H507.475V354.064ZM504.133 354.81C504.133 353.131 504.69 351.639 505.247 351.266C505.99 351.639 506.361 353.131 506.361 354.81V361.34H503.947V354.81H504.133ZM404.429 306.492C404.429 306.306 404.615 306.119 404.8 306.119H404.986C405.172 306.119 405.357 306.306 405.357 306.492V311.343H404.429V306.492ZM402.944 306.492C402.944 306.306 403.129 306.119 403.315 306.119H403.501C403.686 306.119 403.872 306.306 403.872 306.492V311.343H403.129V306.492H402.944ZM401.458 306.492C401.458 306.306 401.644 306.119 401.83 306.119H402.015C402.201 306.119 402.387 306.306 402.387 306.492V311.343H401.644V306.492H401.458ZM399.973 306.492C399.973 306.306 400.159 306.119 400.344 306.119H400.53C400.716 306.119 400.901 306.306 400.901 306.492V311.343H400.159V306.492H399.973ZM398.488 306.492C398.488 306.306 398.673 306.119 398.859 306.119H399.045C399.23 306.119 399.416 306.306 399.416 306.492V311.343H398.673V306.492H398.488ZM275.76 277.017C275.76 274.218 276.503 271.98 277.617 271.234C278.731 271.98 279.474 274.218 279.474 277.017V287.837H275.575V277.017H275.76ZM264.435 275.897C264.435 272.913 266.477 270.301 269.262 269.555C272.047 270.301 274.089 272.913 274.089 275.897V287.837H264.435V275.897ZM259.05 277.017C259.05 274.218 259.793 271.98 260.907 271.234C262.021 271.98 262.764 274.218 262.764 277.017V287.837H258.865V277.017H259.05ZM65.5834 254.257C65.5834 253.884 65.7691 253.697 66.1404 253.697H66.3261C66.6974 253.697 66.8831 253.884 66.8831 254.257V262.839H65.3978V254.257H65.5834ZM62.9841 254.257C62.9841 253.884 63.1697 253.697 63.5411 253.697H63.7268C64.0981 253.697 64.2838 253.884 64.2838 254.257V262.839H62.7984V254.257H62.9841ZM60.3847 254.257C60.3847 253.884 60.5704 253.697 60.9417 253.697H61.1274C61.4987 253.697 61.6844 253.884 61.6844 254.257V262.839H60.199V254.257H60.3847ZM57.7853 254.257C57.7853 253.884 57.971 253.697 58.3424 253.697H58.528C58.8994 253.697 59.085 253.884 59.085 254.257V262.839H57.5997V254.257H57.7853ZM55.186 254.257C55.186 253.884 55.3717 253.697 55.743 253.697H55.9287C56.3 253.697 56.4857 253.884 56.4857 254.257V262.839H55.0003V254.257H55.186ZM37.5474 320.111C37.5474 315.82 38.8471 312.276 40.5182 311.343C42.1892 312.462 43.4888 316.007 43.4888 320.111V336.714H37.7331V320.111H37.5474ZM20.2803 318.245C20.2803 313.582 23.4366 309.664 27.707 308.545C31.9774 309.664 35.1338 313.582 35.1338 318.245V336.528H20.2803V318.245ZM11.9252 320.111C11.9252 315.82 13.2248 312.276 14.8959 311.343C16.5669 312.462 17.8666 316.007 17.8666 320.111V336.714H11.9252V320.111Z" fill="#0D2327"/>
</g>
</g>
<defs>
<linearGradient id="paint0_linear_55_10014" x1="198.894" y1="555.046" x2="193.394" y2="-15.1072" gradientUnits="userSpaceOnUse">
<stop stop-color="#FFE79D"/>
<stop offset="0.0156025" stop-color="#FFE39B"/>
<stop offset="0.0406246" stop-color="#47676C"/>
<stop offset="0.1967" stop-color="#47676C"/>
<stop offset="0.3662" stop-color="#47676C"/>
<stop offset="0.5355" stop-color="#47676C"/>
<stop offset="0.6886" stop-color="#47676C"/>
<stop offset="0.8219" stop-color="#235767"/>
<stop offset="0.9302" stop-color="#0D4D64"/>
<stop offset="1" stop-color="#054A63"/>
</linearGradient>
<clipPath id="clip0_55_10014">
<rect width="375" height="819" fill="white"/>
</clipPath>
<clipPath id="clip1_55_10014">
<rect width="375" height="222" fill="white" transform="translate(0 194)"/>
</clipPath>
</defs>
</svg>
