<svg width="375" height="812" viewBox="0 0 375 812" fill="none" xmlns="http://www.w3.org/2000/svg">
<g clip-path="url(#clip0_1422_179)">
<rect width="375" height="812" fill="#F4F8FA"/>
<path d="M0 -14V552.202C51.0574 550.999 117.975 550.323 170.445 552.654C244.098 555.962 314.709 559.872 375 561V-14H0Z" fill="url(#paint0_linear_1422_179)"/>
<path opacity="0.09" d="M-2.80406 35.7192C-2.80406 35.7192 87.4199 46.114 99.2652 45.0082C111 43.9023 118.528 47.3304 128.048 49.7632C137.68 52.196 145.982 52.8595 160.153 52.196C174.323 51.5325 189.711 56.5087 194.803 55.8452C199.895 55.1817 148.861 56.3981 138.233 57.8357C127.606 59.2733 131.259 60.3791 115.096 59.8262C98.9331 59.2733 17.1227 58.278 10.3697 58.831C3.61678 59.3839 -4.68604 58.831 -4.68604 58.831V36.2722L-2.80406 35.7192Z" fill="white"/>
<path opacity="0.08" d="M379.79 21.8964C379.79 21.8964 359.531 18.8001 349.235 21.0118C338.94 23.2234 299.308 29.0843 293.44 29.5266C287.573 29.9689 280.377 30.4113 265.1 28.1996C249.823 25.988 251.151 28.1996 236.538 29.7478C221.925 31.2959 243.955 30.4113 252.037 31.2959C260.118 32.1806 259.233 36.2721 274.953 36.7145C290.673 37.1568 292.444 38.4838 305.507 41.6907C318.57 44.787 322.556 47.1092 339.272 43.46C355.877 39.9214 352.335 40.3637 363.516 45.2293C374.808 50.2055 380.122 46.9986 380.122 46.9986L379.79 21.8964Z" fill="white"/>
<path opacity="0.06" d="M16.2369 116.002C27.3074 116.555 93.7299 110.473 106.461 114.343C119.192 118.214 160.152 113.79 175.098 112.132C190.043 110.473 218.272 116.002 227.682 119.319C237.092 122.637 190.043 112.132 168.455 119.872C146.868 127.613 130.262 127.613 104.247 125.401C78.2313 123.19 31.0713 120.204 18.451 124.849C-33.0264 143.648 -24.6129 119.319 -24.6129 119.319C-24.6129 119.319 5.16652 115.449 16.2369 116.002Z" fill="white"/>
<path d="M73.9136 47.4409L74.3564 47.9938L75.0206 47.8832L74.5778 48.4362L74.9099 48.9891L74.2457 48.7679L73.8029 49.2102V48.5467L73.1387 48.215L73.9136 48.1044V47.4409Z" fill="white"/>
<path d="M94.6156 51.2007V51.7536L95.1691 51.8642L94.7263 52.0853V52.6383L94.3942 52.1959L93.8407 52.4171L94.1728 51.8642L93.73 51.5324L94.2835 51.643L94.6156 51.2007Z" fill="white"/>
<path d="M34.8353 72.2114L35.1675 72.8749L35.9424 72.7643L35.4996 73.3172L35.8317 74.0913L35.1675 73.7596L34.6139 74.3125V73.5384L33.9497 73.2067L34.7246 72.9855L34.8353 72.2114Z" fill="white"/>
<path d="M57.8617 76.4136L57.9724 77.0771L58.5259 77.1876L57.9724 77.4088V78.0723L57.6403 77.5194L56.9761 77.8511L57.3082 77.2982L56.9761 76.8559L57.5296 76.9665L57.8617 76.4136Z" fill="white"/>
<path d="M225.357 99.4146V100.078L226.021 100.189L225.357 100.41L225.468 101.073L225.025 100.52L224.472 100.742L224.804 100.299L224.361 99.7463L225.025 99.9675L225.357 99.4146Z" fill="white"/>
<path d="M245.284 82.8271V83.4906L245.948 83.6012L245.284 83.8224L245.395 84.4859L244.952 83.933L244.398 84.1541L244.73 83.7118L244.288 83.1589L244.952 83.3801L245.284 82.8271Z" fill="white"/>
<path d="M239.195 66.4609V67.1244L239.859 67.235L239.195 67.4562L239.306 68.1197L238.863 67.6773L238.309 67.8985L238.642 67.3456L238.199 66.9033L238.863 67.0138L239.195 66.4609Z" fill="white"/>
<path d="M244.73 45.2295V45.893L245.394 46.0036L244.73 46.2247L244.841 46.8882L244.398 46.3353L243.845 46.5565L244.177 46.1142L243.734 45.5612L244.398 45.7824L244.73 45.2295Z" fill="white"/>
<path d="M205.984 16.146V16.8095L206.648 16.9201L205.984 17.1412L206.095 17.8047L205.652 17.3624L205.099 17.5836L205.431 17.0307L204.988 16.5883L205.652 16.6989L205.984 16.146Z" fill="white"/>
<path d="M157.717 10.8379L157.827 11.3908L158.381 11.612L157.827 11.8331V12.386L157.495 11.9437L156.831 12.1649L157.163 11.612L156.831 11.1696L157.385 11.2802L157.717 10.8379Z" fill="white"/>
<path d="M88.0837 0.111328V0.774823L88.748 0.885406L88.0837 1.10657L88.1944 1.77006L87.7516 1.32773L87.1981 1.5489L87.5302 0.995988L87.0874 0.553657L87.7516 0.66424L88.0837 0.111328Z" fill="white"/>
<path d="M17.2332 50.4268V51.0903L17.8974 51.2008L17.2332 51.422L17.3439 52.0855L16.901 51.6432L16.3475 51.8643L16.6796 51.3114L16.2368 50.8691L16.901 50.9797L17.2332 50.4268Z" fill="white"/>
<path d="M16.1262 86.9189V87.5824L16.7904 87.693L16.1262 87.9142L16.2369 88.5777L15.7941 88.1353L15.2406 88.3565L15.5727 87.8036L15.1299 87.3613L15.7941 87.4719L16.1262 86.9189Z" fill="white"/>
<path d="M9.927 113.68V114.343L10.4805 114.454L9.927 114.786L10.0377 115.338L9.59489 114.896L9.04137 115.117L9.37348 114.564L8.93066 114.122L9.59489 114.233L9.927 113.68Z" fill="white"/>
<path d="M98.4901 31.8486L98.6008 32.4015L99.1544 32.6227L98.6008 32.8439V33.3968L98.2687 32.9545L97.6045 33.1756L97.9366 32.6227L97.6045 32.1804L98.158 32.291L98.4901 31.8486Z" fill="white"/>
<path d="M250.376 5.64062V6.30412L251.04 6.4147L250.376 6.63587L250.487 7.29936L250.044 6.74645L249.491 6.96761L249.823 6.52529L249.38 5.97237L250.044 6.19354L250.376 5.64062Z" fill="white"/>
<path d="M46.0165 56.1768L46.4593 56.8403L47.2342 56.7297L46.6807 57.2826L47.1235 57.9461L46.3486 57.6143L45.7951 58.2778L45.9058 57.5038L45.1309 57.172L46.0165 56.9508V56.1768Z" fill="white"/>
<path d="M69.1536 60.3789V60.9318L69.8178 61.153L69.1536 61.3741L69.2643 62.0376L68.8215 61.4847L68.2679 61.7059L68.6 61.2636L68.1572 60.7106L68.8215 60.9318L69.1536 60.3789Z" fill="white"/>
<path d="M289.566 13.3813L289.898 13.9343L290.562 13.8237L290.119 14.266L290.451 14.8189L289.898 14.5978L289.455 15.0401L289.566 14.3766L288.901 14.1554L289.566 14.0448V13.3813Z" fill="white"/>
<path d="M307.5 16.6992L307.61 17.1415L308.053 17.2521L307.61 17.4733V17.9156L307.278 17.5839L306.835 17.6945L307.168 17.3627L306.835 16.9204L307.278 17.031L307.5 16.6992Z" fill="white"/>
<path d="M307.057 33.7285L307.389 34.2814L308.053 34.0603L307.61 34.6132L307.942 35.0555L307.389 34.8343L306.946 35.2767V34.7238L306.393 34.5026L307.057 34.2814V33.7285Z" fill="white"/>
<path d="M324.991 36.9355V37.4885L325.544 37.599L325.102 37.7096V38.2625L324.769 37.8202L324.327 38.0414L324.548 37.599L324.327 37.2673L324.769 37.3779L324.991 36.9355Z" fill="white"/>
<path d="M332.74 16.4775L333.073 16.9199L333.737 16.8093L333.294 17.2516L333.626 17.8045L333.073 17.5834L332.63 18.0257L332.74 17.4728L332.076 17.141L332.74 17.0305V16.4775Z" fill="white"/>
<path d="M350.674 19.6846L350.785 20.1269L351.228 20.2375L350.785 20.4586V20.901L350.453 20.5692L350.01 20.7904L350.342 20.3481L350.01 20.0163L350.453 20.1269L350.674 19.6846Z" fill="white"/>
<path d="M298.311 0.996094L298.643 1.43842L299.308 1.32784L298.865 1.77017L299.197 2.32308L298.643 2.10192L298.2 2.54425V1.99133L297.647 1.65959L298.311 1.54901V0.996094Z" fill="white"/>
<path d="M316.245 4.20312V4.64545L316.799 4.75604L316.356 4.9772V5.41953L316.024 5.08778L315.581 5.30895L315.802 4.86662L315.581 4.53487L316.024 4.64545L316.245 4.20312Z" fill="white"/>
<path d="M202.109 2.87598L202.441 3.53947L203.216 3.42889L202.773 3.9818L203.106 4.6453L202.441 4.42413L201.888 4.97704V4.20297L201.224 3.87122L201.999 3.65005L202.109 2.87598Z" fill="white"/>
<path d="M225.136 7.07812V7.74162L225.8 7.8522L225.246 8.07337V8.73686L224.804 8.18395L224.25 8.40511L224.582 7.96278L224.25 7.40987L224.804 7.63104L225.136 7.07812Z" fill="white"/>
<path d="M224.582 28.9736L224.915 29.7477L225.8 29.5265L225.247 30.19L225.579 30.8535L224.915 30.5218L224.361 31.0747L224.472 30.3006L223.697 29.9689L224.472 29.8583L224.582 28.9736Z" fill="white"/>
<path d="M247.609 33.1758L247.719 33.8393L248.273 33.9499L247.719 34.2816V34.8345L247.387 34.3922L246.834 34.6134L247.166 34.0604L246.723 33.6181L247.277 33.7287L247.609 33.1758Z" fill="white"/>
<path d="M257.683 6.74658L258.126 7.41008L258.901 7.29949L258.347 7.85241L258.79 8.62648L258.015 8.29473L257.462 8.84765L257.572 8.07357L256.797 7.74182L257.572 7.52066L257.683 6.74658Z" fill="white"/>
<path d="M280.82 10.9487V11.6122L281.374 11.7228L280.82 11.944L280.931 12.6075L280.488 12.1651L279.934 12.3863L280.267 11.8334L279.824 11.3911L280.488 11.5016L280.82 10.9487Z" fill="white"/>
<path d="M322.757 44L323.269 45.0225L324.293 44.6817L323.61 45.5337L324.122 46.5562L323.098 46.0449L322.416 46.897L322.587 45.8745L321.563 45.3633L322.587 45.1929L322.757 44Z" fill="white"/>
<path d="M155.757 5L156.269 6.02247L157.293 5.68165L156.61 6.53372L157.122 7.55619L156.098 7.04495L155.416 7.89701L155.587 6.87454L154.563 6.36331L155.587 6.19288L155.757 5Z" fill="white"/>
<path d="M354.489 49.7939L354.66 50.646L355.513 50.8164L354.66 51.1572V52.0093L354.148 51.3277L353.295 51.6685L353.807 50.9868L353.295 50.3052L354.148 50.4756L354.489 49.7939Z" fill="white"/>
<path d="M187.489 10.7939L187.66 11.646L188.513 11.8164L187.66 12.1572V13.0093L187.148 12.3277L186.295 12.6685L186.807 11.9868L186.295 11.3052L187.148 11.4756L187.489 10.7939Z" fill="white"/>
<path d="M262.365 82.3428L263.047 83.3652L264.241 83.0244L263.388 84.0469L264.071 85.0694L262.877 84.5581L262.024 85.5806L262.194 84.2173L261 83.8765L262.194 83.5357L262.365 82.3428Z" fill="white"/>
<path d="M95.3648 43.3428L96.0472 44.3652L97.2414 44.0244L96.3884 45.0469L97.0708 46.0694L95.8766 45.5581L95.0236 46.5806L95.1942 45.2173L94 44.8765L95.1942 44.5357L95.3648 43.3428Z" fill="white"/>
<path d="M298.02 88.8184V89.6704L298.873 90.0112L298.02 90.3521L298.191 91.2041L297.508 90.5225L296.655 90.8633L297.167 90.0112L296.485 89.3296L297.508 89.5L298.02 88.8184Z" fill="white"/>
<path d="M131.02 49.8184V50.6704L131.873 51.0112L131.02 51.3521L131.191 52.2041L130.508 51.5225L129.655 51.8633L130.167 51.0112L129.485 50.3296L130.508 50.5L131.02 49.8184Z" fill="white"/>
<path d="M296.997 122.561L297.68 123.583L298.874 123.413L298.021 124.265L298.703 125.458L297.509 124.946L296.656 125.798L296.827 124.606L295.632 124.094L296.997 123.753V122.561Z" fill="white"/>
<path d="M129.997 83.5605L130.68 84.583L131.874 84.4126L131.021 85.2647L131.703 86.4576L130.509 85.9463L129.656 86.7984L129.827 85.6055L128.632 85.0943L129.997 84.7534V83.5605Z" fill="white"/>
<path d="M332.653 129.036V130.059L333.676 130.229L332.653 130.57L332.823 131.592L332.141 130.911L331.288 131.251L331.8 130.399L331.117 129.718L332.141 129.888L332.653 129.036Z" fill="white"/>
<path d="M165.653 90.0361V91.0586L166.676 91.229L165.653 91.5699L165.823 92.5923L165.141 91.9107L164.288 92.2515L164.8 91.3994L164.117 90.7178L165.141 90.8882L165.653 90.0361Z" fill="white"/>
<path d="M348.177 88.3071L348.689 89.3296L349.883 89.1592L349.03 90.0113L349.712 91.0337L348.518 90.5225L347.836 91.545V90.3521L346.812 89.8408L348.006 89.5L348.177 88.3071Z" fill="white"/>
<path d="M181.177 49.3071L181.689 50.3296L182.883 50.1592L182.03 51.0113L182.712 52.0337L181.518 51.5225L180.836 52.545V51.3521L179.812 50.8408L181.006 50.5L181.177 49.3071Z" fill="white"/>
<path d="M216.662 55.7832V56.6353L217.686 56.9761L216.833 57.3169V58.3394L216.15 57.4873L215.297 57.8282L215.809 57.1465L215.297 56.2944L216.15 56.6353L216.662 55.7832Z" fill="white"/>
<path d="M279.766 57.4624L280.278 58.6553L281.472 58.3145L280.79 59.3369L281.302 60.3594L280.278 59.8482L279.425 60.7002V59.5074L278.401 58.9961L279.596 58.8257L279.766 57.4624Z" fill="white"/>
<path d="M112.766 18.4624L113.278 19.6553L114.472 19.3145L113.79 20.3369L114.302 21.3594L113.278 20.8482L112.425 21.7002V20.5074L111.401 19.9961L112.596 19.8257L112.766 18.4624Z" fill="white"/>
<path d="M315.251 63.938L315.422 64.9605L316.275 65.1309L315.422 65.6421V66.4942L314.91 65.8125L313.886 66.1534L314.398 65.3013L313.886 64.6196L314.739 64.7901L315.251 63.938Z" fill="white"/>
<path d="M148.251 24.938L148.422 25.9605L149.275 26.1309L148.422 26.6421V27.4942L147.91 26.8125L146.886 27.1534L147.398 26.3013L146.886 25.6196L147.739 25.7901L148.251 24.938Z" fill="white"/>
<path d="M245.965 382.004V458.678H466.911V382.564H467.654V381.818H466.169C466.354 381.445 466.354 380.885 466.354 380.512C466.354 378.646 465.055 376.967 463.383 376.408C463.383 375.662 463.012 375.289 462.455 374.915L462.269 374.356V374.169C462.269 373.983 462.269 373.983 462.084 373.796L461.898 371.744L461.712 373.796C461.527 373.796 461.527 373.983 461.527 374.169V374.356L461.341 374.915C460.784 375.102 460.413 375.662 460.413 376.408C458.742 376.967 457.442 378.646 457.442 380.512C457.442 380.885 457.442 381.445 457.628 381.818H456.142H455.957V374.169C456.142 374.169 456.328 373.983 456.328 373.796V373.609C456.328 373.423 456.142 373.236 455.957 373.236H455.4C455.4 373.05 455.4 373.05 455.4 372.863C455.4 371.931 454.843 371.184 454.1 370.625C453.729 370.252 453.172 370.065 452.986 369.505L453.172 369.319C453.172 369.132 453.172 369.132 452.986 369.132C452.8 369.132 452.8 369.319 452.8 369.319C452.8 369.319 452.8 369.505 452.986 369.505C452.615 369.878 452.243 370.252 451.872 370.625C451.129 370.998 450.572 371.931 450.572 372.863C450.572 373.05 450.572 373.05 450.572 373.236H450.201C450.015 373.236 449.83 373.423 449.83 373.609V373.796C449.83 373.983 450.015 374.169 450.201 374.169V379.02H449.087C449.458 378.46 449.458 377.9 449.458 377.341C449.458 375.288 447.602 373.423 444.631 372.304C442.774 371.557 441.103 370.625 439.804 369.692C439.804 369.692 439.804 369.505 439.804 369.319C439.804 368.946 439.618 368.759 439.432 368.759L439.247 366.147H439.061L438.875 368.759C438.69 368.946 438.504 369.132 438.504 369.319C438.504 369.505 438.504 369.505 438.504 369.692C437.204 370.811 435.719 371.744 433.676 372.304C430.706 373.423 428.849 375.288 428.849 377.341C428.849 377.714 428.849 378.087 429.035 378.46H428.292C428.478 377.527 428.663 376.594 428.663 375.662C428.663 370.998 425.136 367.08 420.494 366.52L419.937 364.655C419.937 364.655 419.937 364.655 419.751 364.655L419.38 359.804L419.009 364.655H418.823L418.266 366.52C414.924 366.894 411.953 369.132 410.839 372.304L411.025 367.267H411.582V366.334H411.025V359.804H411.582V359.245H411.211V359.058H410.839V356.633H411.211V356.446H410.654C410.654 356.26 410.654 356.073 410.654 356.073C410.654 355.514 410.282 355.141 409.911 354.767C409.725 354.581 409.354 354.394 409.168 354.208C409.168 354.208 409.168 354.208 409.168 354.021C409.168 354.021 409.168 353.835 408.983 353.835V353.275C409.168 353.275 409.354 353.089 409.354 352.902C409.354 353.089 409.168 353.088 408.983 353.088C408.797 353.088 408.611 352.902 408.611 352.715C408.611 352.529 408.611 352.342 408.797 352.342C408.611 352.342 408.426 352.529 408.426 352.715C408.426 352.902 408.611 353.088 408.797 353.088V353.648C408.797 353.648 408.611 353.648 408.611 353.835V354.021C408.426 354.208 408.24 354.581 407.869 354.581C407.497 354.767 407.126 355.327 407.126 355.887C407.126 356.073 407.126 356.26 407.126 356.26H407.312V356.446H407.683V358.872H407.312V359.058H406.94V359.618H407.497L407.312 366.147H406.755V367.08H407.312L407.126 374.169H406.383V375.102H407.126V378.273H404.712C405.455 376.781 406.012 375.288 406.012 373.609C406.012 368.013 400.813 362.976 393.201 360.178C388.188 358.312 383.917 355.887 380.575 353.088C380.761 352.902 380.761 352.529 380.761 352.156C380.761 351.409 380.39 350.85 379.647 350.477L379.276 343.388H378.719L378.347 350.477C377.79 350.85 377.233 351.409 377.233 352.156C377.233 352.529 377.233 352.715 377.419 353.088C374.077 355.887 369.806 358.312 364.793 360.178C363.308 360.737 362.008 361.297 360.709 362.043V341.336H360.894C361.266 341.336 361.451 341.149 361.451 340.776V340.403C361.451 340.03 361.266 339.843 360.894 339.843H360.152C360.152 339.657 360.152 339.47 360.152 339.283C360.152 337.791 359.409 336.485 358.109 335.739C357.367 335.366 356.81 334.62 356.253 334.06C356.438 334.06 356.438 333.873 356.438 333.687C356.438 333.5 356.253 333.314 356.067 333.314L355.881 331.448H355.696L355.51 333.314C355.324 333.314 355.139 333.5 355.139 333.687C355.139 333.873 355.139 333.873 355.324 334.06C354.767 334.806 354.21 335.366 353.468 335.739C352.354 336.485 351.425 337.791 351.425 339.283C351.425 339.47 351.425 339.657 351.425 339.843H350.683C350.311 339.843 350.126 340.03 350.126 340.403V340.776C350.126 341.149 350.311 341.336 350.683 341.336H350.868V354.581C349.383 350.104 346.226 346.186 342.327 343.761C338.8 341.522 335.829 338.724 333.415 335.366C333.787 334.993 334.158 334.433 334.158 333.687C334.158 332.754 333.601 332.008 332.858 331.635L332.301 323.426C332.673 323.426 333.044 323.613 333.415 323.613C336.386 323.613 338.985 321.374 339.357 318.389C338.614 320.068 336.757 321.188 334.715 321.188C331.93 321.188 329.702 318.949 329.702 316.151C329.702 314.099 330.816 312.42 332.487 311.487C329.516 311.86 327.288 314.472 327.288 317.457C327.288 320.068 328.959 322.494 331.373 323.24L330.816 331.635C330.073 332.008 329.516 332.754 329.516 333.687C329.516 334.433 329.888 334.993 330.259 335.366C327.845 338.724 324.875 341.522 321.347 343.761C315.591 347.305 311.878 353.648 311.878 360.924C311.878 362.976 312.249 365.028 312.806 366.894H307.979C307.979 366.52 307.979 366.334 307.979 365.961C307.979 359.245 302.966 353.648 296.467 352.902L295.725 350.477C295.725 350.477 295.725 350.477 295.539 350.477L295.168 343.574L294.796 350.477C294.611 350.477 294.611 350.477 294.611 350.477L293.868 352.902C287.369 353.648 282.356 359.245 282.356 365.961C282.356 367.267 282.542 368.573 282.913 369.878H278.457V371.931H280.5V382.004H275.858L275.672 368.013H276.972V366.334H275.672L275.487 353.648H276.415V351.969H275.487L275.301 340.403H276.229V339.47H275.672V339.097H275.115V334.806H275.672V334.433H274.744C274.744 334.246 274.93 333.873 274.93 333.687C274.93 332.754 274.373 331.821 273.63 331.448C273.073 331.075 272.702 330.702 272.516 330.329L272.702 330.142C272.702 329.956 272.702 329.956 272.516 329.769V328.65H272.702C273.073 328.65 273.444 328.277 273.444 327.904C273.259 328.09 273.073 328.277 272.887 328.277C272.516 328.277 272.145 327.904 272.145 327.531C272.145 327.344 272.33 326.971 272.516 326.971C272.145 326.971 271.773 327.344 271.773 327.717C271.773 328.09 271.959 328.277 272.33 328.463V329.583C272.145 329.583 272.145 329.769 272.145 329.956C272.145 329.956 272.145 330.142 272.33 330.142C271.959 330.515 271.588 330.888 271.216 331.262C270.474 331.821 269.917 332.567 269.917 333.5C269.917 333.687 269.917 334.06 270.102 334.246H268.06V334.62H268.617V338.91H268.06V339.283H267.503V340.216H268.431L268.246 351.783H267.317V353.462H268.246L268.06 366.147H266.76V367.826H268.06L267.874 381.818H265.461V356.82H265.646C266.203 356.82 266.575 356.446 266.575 355.887V355.327C266.575 354.768 266.203 354.394 265.646 354.394H264.347C264.347 354.021 264.347 353.835 264.347 353.462C264.347 351.223 263.047 349.171 261.376 348.052C260.262 347.305 259.333 346.373 258.591 345.44C258.776 345.253 258.776 345.067 258.776 344.88C258.776 344.507 258.591 344.32 258.405 344.134L258.219 341.149H258.034L257.848 344.134C257.662 344.32 257.477 344.507 257.477 344.88C257.477 345.067 257.477 345.253 257.662 345.44C256.92 346.559 255.991 347.492 254.877 348.052C253.021 349.171 251.907 351.223 251.907 353.462C251.907 353.835 251.907 354.208 251.907 354.394H250.793C250.236 354.394 249.864 354.768 249.864 355.327V355.887C249.864 356.446 250.236 356.82 250.793 356.82H250.978V381.818H245.965V382.004ZM454.843 376.594C454.843 375.848 455.028 375.288 455.4 375.102C455.585 375.288 455.957 375.848 455.957 376.594V379.393H455.028V376.594H454.843ZM451.872 376.221C451.872 375.475 452.429 374.729 453.172 374.542C453.914 374.729 454.471 375.289 454.471 376.221V379.206H452.615H451.872V376.221ZM450.572 376.594C450.572 375.848 450.758 375.288 451.129 375.102C451.315 375.288 451.686 375.848 451.686 376.594V379.206H450.758V376.594H450.572ZM410.282 357.193C410.282 357.006 410.282 357.006 410.282 357.193L410.468 357.006C410.468 357.006 410.654 357.006 410.654 357.193V359.058H410.282V357.193ZM409.725 357.193C409.725 357.006 409.725 357.006 409.725 357.193L409.911 357.006C409.911 357.006 410.097 357.006 410.097 357.193V359.058H409.725V357.193ZM408.983 357.193C408.983 357.006 409.168 357.006 408.983 357.193L409.168 357.006C409.168 357.006 409.354 357.006 409.354 357.193V359.058H408.983V357.193ZM408.426 357.193C408.426 357.006 408.426 357.006 408.426 357.193L408.611 357.006C408.611 357.006 408.797 357.006 408.797 357.193V359.058H408.426V357.193ZM407.869 357.193C407.869 357.006 407.869 357.006 407.869 357.193L408.054 357.006C408.054 357.006 408.24 357.006 408.24 357.193V359.058H407.869V357.193ZM358.295 345.253C358.295 344.134 358.666 343.201 359.038 342.828C359.409 343.201 359.78 344.134 359.78 345.253V349.731H358.295V345.253ZM353.653 344.694C353.653 343.388 354.396 342.455 355.696 342.082C356.81 342.455 357.738 343.388 357.738 344.694V349.544H353.839V344.694H353.653ZM351.425 345.253C351.425 344.134 351.797 343.201 352.168 342.828C352.539 343.201 352.911 344.134 352.911 345.253V349.731H351.425V345.253ZM273.259 335.925C273.259 335.739 273.444 335.739 273.444 335.739H273.63C273.816 335.739 273.816 335.925 273.816 335.925V339.283H273.259V335.925ZM272.33 335.925C272.33 335.739 272.516 335.739 272.516 335.739H272.702C272.887 335.739 272.887 335.925 272.887 335.925V339.283H272.33V335.925ZM271.216 335.925C271.216 335.739 271.402 335.739 271.402 335.739H271.588C271.773 335.739 271.773 335.925 271.773 335.925V339.283H271.216V335.925ZM270.102 335.925C270.102 335.739 270.288 335.739 270.288 335.739H270.474C270.659 335.739 270.659 335.925 270.659 335.925V339.283H270.102V335.925ZM269.174 335.925C269.174 335.739 269.36 335.739 269.36 335.739H269.545C269.731 335.739 269.731 335.925 269.731 335.925V339.283H269.174V335.925ZM261.933 362.603C261.933 360.924 262.49 359.431 263.047 359.058C263.79 359.431 264.161 360.924 264.161 362.603V369.319H261.747V362.603H261.933ZM255.063 361.857C255.063 359.991 256.363 358.312 258.034 357.939C259.705 358.499 261.004 359.991 261.004 361.857V369.319H255.063V361.857ZM251.721 362.603C251.721 360.924 252.278 359.431 252.835 359.058C253.578 359.431 253.949 360.924 253.949 362.603V369.319H251.535V362.603H251.721Z" fill="#0F323E"/>
<path fill-rule="evenodd" clip-rule="evenodd" d="M-2 558.155V367.869H9.69713V306.119H9.3258C8.21178 306.119 7.28344 305.187 7.28344 304.067V302.948C7.28344 301.829 8.21178 300.896 9.3258 300.896H12.1108C11.9252 300.15 11.9252 299.217 11.9252 298.471C11.9252 292.874 14.8959 287.837 19.3519 285.039C22.1369 283.36 24.5506 281.121 26.4073 278.509C26.036 278.136 25.8503 277.763 25.8503 277.203C25.8503 276.457 26.4073 275.897 26.9643 275.524L27.5213 268.249H27.8927L28.4497 275.524C29.1924 275.897 29.5637 276.457 29.5637 277.203C29.5637 277.763 29.378 278.136 29.0067 278.509C30.8634 281.308 33.2771 283.546 36.0621 285.225C40.5182 288.024 43.4888 292.874 43.4888 298.657C43.4888 299.403 43.4888 300.336 43.3032 301.082H46.0882C47.2022 301.082 48.1306 302.015 48.1306 303.134V304.44C48.1306 305.56 47.2022 306.492 46.0882 306.492H45.5312V368.242H51.2869L52.0296 333.543H49.0589V329.625H52.2153L52.7723 298.471H50.7299V294.553H52.958L53.515 266.01H51.1013V263.771H52.5866V263.025H53.8863V252.578H52.5866V251.645H54.8146C54.7828 251.517 54.7509 251.395 54.72 251.276C54.5707 250.702 54.4433 250.211 54.4433 249.593C54.4433 247.168 55.743 245.116 57.5997 243.997C58.7137 243.25 59.8277 242.318 60.5704 241.198C60.3847 241.012 60.3847 240.825 60.3847 240.639C60.3847 240.266 60.5704 240.079 60.756 239.892L60.9417 237.094C60.199 236.908 59.642 236.161 59.642 235.229C59.642 234.109 60.3847 233.363 61.3131 233.176C60.7561 233.363 60.3847 233.923 60.3847 234.669C60.3847 235.602 61.1274 236.348 62.0557 236.348C62.7984 236.348 63.3554 235.975 63.5411 235.415C63.3554 236.348 62.4271 237.094 61.4987 237.094H61.1274L61.3131 239.706C61.4987 239.892 61.6844 240.079 61.6844 240.452C61.6844 240.639 61.6844 240.825 61.4987 241.012C62.2414 242.131 63.3554 243.064 64.4694 243.81C66.3261 244.929 67.6258 246.982 67.6258 249.407C67.6258 250.153 67.4401 250.899 67.2545 251.459H69.4825V252.392H67.9971V262.839H69.4825V263.585H70.9678V265.824H68.5541L67.9971 293.993H70.2252V297.911H68.1828L68.7398 329.066H71.8962V332.983H68.9255L69.6682 367.682H81.1796V342.871H76.1666V338.02H87.121C86.1927 335.035 85.6357 331.864 85.6357 328.506C85.6357 311.903 98.0755 298.284 114.043 296.418L116.085 290.262C116.178 290.262 116.271 290.216 116.364 290.169C116.457 290.122 116.55 290.076 116.642 290.076L117.756 272.913C117.756 272.726 117.942 272.726 117.942 272.726C118.128 272.726 118.128 272.913 118.128 272.913L119.242 290.076C119.613 290.076 119.799 290.262 119.799 290.262L121.841 296.418C137.809 298.284 150.248 311.903 150.248 328.506V330.931H162.131C160.646 326.267 159.903 321.417 159.903 316.193C159.903 298.284 169.372 282.427 183.483 273.659C192.21 268.062 199.822 261.16 205.763 252.765C204.649 251.832 203.907 250.34 203.907 248.661C203.907 246.422 205.206 244.37 207.249 243.437L208.548 237.916C202.607 236.05 198.337 230.454 198.337 223.738C198.337 216.276 204.092 209.933 211.333 209C207.249 211.052 204.278 215.343 204.278 220.38C204.278 227.282 209.848 232.879 216.718 232.879C221.731 232.879 226.001 230.081 228.044 225.79C227.115 233.252 220.988 238.849 213.376 238.849C212.447 238.849 211.705 238.849 210.776 238.662L212.076 243.81C213.933 244.743 215.418 246.608 215.418 249.034C215.418 250.526 214.675 252.018 213.561 253.138C219.503 261.533 227.115 268.622 235.842 274.032C245.496 280.188 253.109 289.516 256.822 300.709V268.062H256.637C255.894 268.062 255.337 267.316 255.337 266.57V265.824C255.337 264.891 255.894 264.331 256.637 264.331H258.493C258.308 263.958 258.308 263.398 258.308 262.839C258.308 258.921 260.35 255.75 263.321 253.884C265.177 252.765 266.663 251.272 267.962 249.593C267.777 249.407 267.591 249.034 267.591 248.661C267.591 248.101 267.962 247.728 268.334 247.541L268.705 242.877H269.076L269.448 247.541C269.819 247.728 270.19 248.101 270.19 248.661C270.19 249.034 270.005 249.407 269.819 249.593C271.119 251.272 272.604 252.765 274.461 253.884C277.431 255.75 279.474 259.108 279.474 262.839C279.474 263.006 279.436 263.212 279.395 263.438C279.344 263.715 279.288 264.023 279.288 264.331H281.145C281.888 264.331 282.445 265.077 282.445 265.824V266.57C282.445 267.503 281.888 268.062 281.145 268.062H280.774V319.365C283.93 317.686 287.272 316.193 290.8 314.887C303.425 310.41 314.008 304.627 322.178 297.538C321.806 296.792 321.621 296.045 321.621 295.299C321.621 293.434 322.549 291.941 324.22 291.195L325.334 273.472H326.634L327.748 291.195C329.233 291.941 330.347 293.434 330.347 295.299C330.347 296.232 330.161 296.978 329.79 297.538C338.145 304.44 348.728 310.41 361.168 314.887C380.292 321.79 393.103 334.103 393.103 348.094C393.103 352.198 391.989 355.929 390.132 359.661H396.26L396.445 351.639H394.774V349.4H396.631L397.002 331.677H395.888V329.439H397.188L397.559 313.208H396.26V311.903H397.002V311.529H397.745V305.56H397.002V305H398.116C397.931 304.627 397.931 304.254 397.931 303.881C397.931 302.575 398.673 301.455 399.787 300.709C400.53 300.336 401.087 299.776 401.458 299.217C401.273 299.03 401.273 299.03 401.273 298.844C401.273 298.657 401.273 298.471 401.458 298.471L401.644 296.978C401.273 296.792 400.901 296.419 400.901 295.859C400.901 295.299 401.273 294.74 401.83 294.74C401.458 294.926 401.273 295.299 401.273 295.672C401.273 296.232 401.644 296.605 402.201 296.605C402.572 296.605 402.944 296.418 403.129 296.045C403.129 296.605 402.572 296.978 402.015 296.978H401.83L402.015 298.471C402.015 298.471 402.201 298.657 402.201 298.844C402.201 299.03 402.015 299.217 402.015 299.217C402.387 299.776 402.944 300.336 403.686 300.709C404.8 301.269 405.543 302.575 405.543 303.881C405.543 304.254 405.543 304.627 405.357 305H406.657V305.746H405.914V311.716H406.657V312.089H407.4V313.395H406.1L406.471 329.625H407.771V331.864H406.657L406.843 344.736C409.813 337.087 416.869 331.304 425.41 330.371L426.895 325.894C426.895 325.708 427.081 325.708 427.266 325.708L428.009 313.582H428.38L429.123 325.708C429.309 325.894 429.494 325.894 429.494 325.894L430.98 330.371C442.305 331.864 451.032 341.378 451.032 353.131C451.032 355.37 450.846 357.795 450.103 359.847H452.146C452.119 359.711 452.092 359.579 452.065 359.449C451.91 358.693 451.774 358.032 451.774 357.235C451.774 352.012 456.416 347.348 463.657 344.736C468.299 343.057 472.198 340.819 475.354 338.207C475.169 338.02 475.169 337.647 475.169 337.461C475.169 336.901 475.54 336.155 476.097 335.968L476.468 329.252H477.025L477.397 335.968C477.954 336.155 478.325 336.714 478.325 337.461C478.325 337.647 478.325 338.02 478.139 338.207C481.11 340.819 485.195 343.057 489.837 344.736C496.892 347.348 501.719 352.012 501.719 357.235C501.719 358.728 501.348 360.22 500.605 361.526H503.39V349.4H503.205C502.648 349.4 502.276 349.027 502.276 348.467V347.908C502.276 347.348 502.648 346.975 503.205 346.975H504.319V346.042C504.319 343.803 505.433 341.751 507.289 340.632C508.403 340.072 509.332 339.139 510.074 338.02C509.889 337.834 509.889 337.647 509.889 337.461C509.889 337.087 510.074 336.901 510.26 336.714L510.631 333.729H510.817L511.003 336.714C511.188 336.901 511.374 337.087 511.374 337.461C511.374 337.647 511.374 337.834 511.188 338.02C511.931 338.953 512.859 339.886 513.974 340.632C515.645 341.751 516.944 343.803 516.944 346.042V346.975H518.058C518.615 346.975 518.987 347.348 518.987 347.908V348.281C518.987 348.84 518.615 349.213 518.058 349.213H517.873V368.242H521.957C521.586 367.309 521.4 366.19 521.4 365.071C521.4 360.407 524.371 356.303 528.641 354.81V354.624C528.641 352.945 529.57 351.639 531.055 351.079L531.612 349.4C531.426 349.213 531.426 349.027 531.426 348.84C531.426 348.467 531.612 348.281 531.983 348.094L532.355 343.057L532.726 348.094C533.097 348.094 533.283 348.467 533.283 348.84C533.283 349.027 533.283 349.213 533.097 349.4L533.654 351.079C534.954 351.639 536.068 352.945 536.068 354.624V354.81C540.339 356.303 543.309 360.407 543.309 365.071C543.309 366.19 543.124 367.123 542.752 368.242H546.466V369.921H544.795V558.155H376V812H0V558.155H-2ZM515.645 351.266C515.088 351.639 514.531 353.131 514.531 354.81H514.345V361.526H516.759V354.81C516.759 353.131 516.387 351.639 515.645 351.266ZM510.446 350.146C508.775 350.519 507.475 352.198 507.475 354.064V361.34H508.96V361.526H513.417V354.064C513.417 352.198 512.117 350.706 510.446 350.146ZM505.247 351.266C504.69 351.639 504.133 353.131 504.133 354.81H503.947V361.34H506.361V354.81C506.361 353.131 505.99 351.639 505.247 351.266ZM404.8 306.119C404.615 306.119 404.429 306.306 404.429 306.492V311.343H405.357V306.492C405.357 306.306 405.172 306.119 404.986 306.119H404.8ZM403.315 306.119C403.129 306.119 402.944 306.306 402.944 306.492H403.129V311.343H403.872V306.492C403.872 306.306 403.686 306.119 403.501 306.119H403.315ZM401.83 306.119C401.644 306.119 401.458 306.306 401.458 306.492H401.644V311.343H402.387V306.492C402.387 306.306 402.201 306.119 402.015 306.119H401.83ZM400.344 306.119C400.159 306.119 399.973 306.306 399.973 306.492H400.159V311.343H400.901V306.492C400.901 306.306 400.716 306.119 400.53 306.119H400.344ZM398.859 306.119C398.673 306.119 398.488 306.306 398.488 306.492H398.673V311.343H399.416V306.492C399.416 306.306 399.23 306.119 399.045 306.119H398.859ZM277.617 271.234C276.503 271.98 275.76 274.219 275.76 277.017H275.575V287.837H279.474V277.017C279.474 274.219 278.731 271.98 277.617 271.234ZM269.262 269.555C266.477 270.301 264.435 272.913 264.435 275.897V287.837H274.089V275.897C274.089 272.913 272.047 270.301 269.262 269.555ZM260.907 271.234C259.793 271.98 259.05 274.219 259.05 277.017H258.865V287.837H262.764V277.017C262.764 274.219 262.021 271.98 260.907 271.234ZM66.1404 253.697C65.7691 253.697 65.5834 253.884 65.5834 254.257H65.3978V262.839H66.8831V254.257C66.8831 253.884 66.6974 253.697 66.3261 253.697H66.1404ZM63.5411 253.697C63.1697 253.697 62.9841 253.884 62.9841 254.257H62.7984V262.839H64.2838V254.257C64.2838 253.884 64.0981 253.697 63.7267 253.697H63.5411ZM60.9417 253.697C60.5704 253.697 60.3847 253.884 60.3847 254.257H60.199V262.839H61.6844V254.257C61.6844 253.884 61.4987 253.697 61.1274 253.697H60.9417ZM58.3424 253.697C57.971 253.697 57.7853 253.884 57.7853 254.257H57.5997V262.839H59.085V254.257C59.085 253.884 58.8994 253.697 58.528 253.697H58.3424ZM55.743 253.697C55.3717 253.697 55.186 253.884 55.186 254.257H55.0003V262.839H56.4857V254.257C56.4857 253.884 56.3 253.697 55.9287 253.697H55.743ZM40.5182 311.343C38.8471 312.276 37.5474 315.82 37.5474 320.111H37.7331V336.714H43.4888V320.111C43.4888 316.007 42.1892 312.462 40.5182 311.343ZM27.707 308.545C23.4366 309.664 20.2803 313.582 20.2803 318.245V336.528H35.1338V318.245C35.1338 313.582 31.9774 309.664 27.707 308.545ZM14.8959 311.343C13.2248 312.276 11.9252 315.82 11.9252 320.111V336.714H17.8666V320.111C17.8666 316.007 16.5669 312.462 14.8959 311.343Z" fill="#12404F"/>
<path d="M55.5 229C76.2107 229 93 212.211 93 191.5C93 170.789 76.2107 154 55.5 154C34.7893 154 18 170.789 18 191.5C18 212.211 34.7893 229 55.5 229Z" fill="white" fill-opacity="0.1"/>
<path d="M55.5 221C71.7924 221 85 207.792 85 191.5C85 175.208 71.7924 162 55.5 162C39.2076 162 26 175.208 26 191.5C26 207.792 39.2076 221 55.5 221Z" fill="#144D61"/>
<path d="M56 177.125C47.7848 177.125 41.125 183.785 41.125 192C41.125 200.215 47.7848 206.875 56 206.875C63.7308 206.875 70.0833 200.978 70.8064 193.436C70.8402 193.085 70.6597 192.748 70.3491 192.582C70.0383 192.415 69.6579 192.451 69.3842 192.673C67.8797 193.894 65.964 194.625 63.875 194.625C59.0425 194.625 55.125 190.707 55.125 185.875C55.125 183.005 56.5061 180.457 58.6436 178.86C58.9262 178.649 59.0543 178.289 58.9685 177.947C58.8828 177.605 58.6 177.347 58.2512 177.294C57.5166 177.183 56.7648 177.125 56 177.125Z" fill="white"/>
</g>
<defs>
<linearGradient id="paint0_linear_1422_179" x1="198.894" y1="555.046" x2="193.394" y2="-15.1072" gradientUnits="userSpaceOnUse">
<stop stop-color="#FFE79D"/>
<stop offset="0.0156025" stop-color="#FFE39B"/>
<stop offset="0.0406246" stop-color="#47676C"/>
<stop offset="0.1967" stop-color="#031F29"/>
<stop offset="0.3662" stop-color="#032430"/>
<stop offset="0.5355" stop-color="#04242F"/>
<stop offset="0.6886" stop-color="#042F3E"/>
<stop offset="0.8219" stop-color="#042F3E"/>
<stop offset="0.9302" stop-color="#042F3E"/>
<stop offset="1" stop-color="#042F3E"/>
</linearGradient>
<clipPath id="clip0_1422_179">
<rect width="375" height="812" fill="white"/>
</clipPath>
</defs>
</svg>
