<svg width="21" height="20" viewBox="0 0 21 20" fill="none" xmlns="http://www.w3.org/2000/svg">
<g clip-path="url(#clip0_81_7519)">
<path d="M10.2401 20.0732C9.05352 20.0757 7.91357 19.6111 7.0668 18.7798L3.7818 15.744C2.91083 14.8985 2.21646 13.8885 1.73898 12.7725C1.2615 11.6565 1.01042 10.4568 1.00032 9.24297C0.990214 8.02916 1.22129 6.82543 1.68012 5.70165C2.13896 4.57786 2.81642 3.5564 3.6732 2.69653C4.52997 1.83667 5.54899 1.15553 6.67112 0.692653C7.79324 0.229773 8.99613 -0.00563116 10.21 0.000102264C11.4238 0.00583569 12.6244 0.252592 13.7421 0.726052C14.8598 1.19951 15.8724 1.89024 16.721 2.75816C18.44 4.47723 19.4057 6.80875 19.4057 9.23983C19.4057 11.6709 18.44 14.0024 16.721 15.7215L13.3951 18.7957C12.5518 19.6189 11.4187 20.0777 10.2401 20.0732ZM10.2401 1.73983C8.75676 1.73982 7.3067 2.17968 6.07332 3.00379C4.83994 3.8279 3.87864 4.99924 3.31098 6.3697C2.74331 7.74015 2.59479 9.24816 2.88418 10.703C3.17358 12.1579 3.88789 13.4943 4.9368 14.5432L8.21513 17.5732C8.75742 18.0913 9.47777 18.3818 10.2278 18.3848C10.9779 18.3877 11.7005 18.1029 12.2468 17.589L15.5668 14.5207C16.963 13.1119 17.7443 11.2074 17.7398 9.22401C17.7353 7.24058 16.9453 5.3397 15.5426 3.93733C14.848 3.23862 14.0217 2.68462 13.1115 2.30742C12.2013 1.93022 11.2254 1.7373 10.2401 1.73983ZM10.2401 15.0732C9.08641 15.0732 7.95859 14.731 6.99931 14.0901C6.04002 13.4491 5.29235 12.5381 4.85084 11.4722C4.40933 10.4062 4.29381 9.23336 4.51889 8.1018C4.74397 6.97025 5.29954 5.93085 6.11534 5.11504C6.93115 4.29923 7.97055 3.74366 9.10211 3.51858C10.2337 3.2935 11.4066 3.40902 12.4725 3.85053C13.5384 4.29204 14.4494 5.03972 15.0904 5.999C15.7313 6.95829 16.0735 8.08611 16.0735 9.23983C16.0717 10.7864 15.4566 12.2691 14.363 13.3627C13.2694 14.4563 11.7867 15.0714 10.2401 15.0732ZM10.2401 5.07316C9.41605 5.07316 8.61046 5.31753 7.92526 5.77537C7.24005 6.23321 6.706 6.88396 6.39064 7.64532C6.07527 8.40668 5.99276 9.24445 6.15353 10.0527C6.3143 10.861 6.71114 11.6034 7.29386 12.1861C7.87657 12.7688 8.619 13.1657 9.42726 13.3264C10.2355 13.4872 11.0733 13.4047 11.8346 13.0893C12.596 12.774 13.2468 12.2399 13.7046 11.5547C14.1624 10.8695 14.4068 10.0639 14.4068 9.23983C14.4055 8.13517 13.9661 7.07613 13.1849 6.29501C12.4038 5.5139 11.3448 5.07449 10.2401 5.07316ZM11.6626 10.6623C11.8189 10.5061 11.9066 10.2941 11.9066 10.0732C11.9066 9.85219 11.8189 9.64027 11.6626 9.484L11.0735 8.89483V7.57316C11.0735 7.35215 10.9857 7.14019 10.8294 6.98391C10.6731 6.82763 10.4611 6.73983 10.2401 6.73983C10.0191 6.73983 9.80716 6.82763 9.65088 6.98391C9.4946 7.14019 9.4068 7.35215 9.4068 7.57316V9.23983C9.40685 9.46083 9.49468 9.67275 9.65097 9.829L10.4843 10.6623C10.6406 10.8186 10.8525 10.9063 11.0735 10.9063C11.2944 10.9063 11.5064 10.8186 11.6626 10.6623Z" fill="#B5B9BC"/>
</g>
<defs>
<clipPath id="clip0_81_7519">
<rect width="20" height="20" fill="white" transform="translate(0.5)"/>
</clipPath>
</defs>
</svg>
