<svg width="25" height="24" viewBox="0 0 25 24" fill="none" xmlns="http://www.w3.org/2000/svg">
<g id="fi-rr-user-remove">
<path id="Vector" d="M10.4962 12C11.4846 12 12.4508 11.7068 13.2726 11.1573C14.0944 10.6079 14.735 9.82705 15.1132 8.91342C15.4914 7.99979 15.5904 6.99446 15.3976 6.02455C15.2048 5.05465 14.7288 4.16373 14.0299 3.46447C13.331 2.76521 12.4405 2.289 11.4711 2.09608C10.5017 1.90315 9.49689 2.00217 8.58372 2.3806C7.67056 2.75904 6.89007 3.39991 6.34094 4.22215C5.79182 5.0444 5.49872 6.0111 5.49872 7C5.50004 8.32568 6.02698 9.59668 6.9639 10.5341C7.90081 11.4715 9.17116 11.9987 10.4962 12ZM10.4962 3.66667C11.1551 3.66667 11.7992 3.86217 12.3471 4.22844C12.895 4.59471 13.322 5.1153 13.5742 5.72439C13.8263 6.33348 13.8923 7.0037 13.7638 7.6503C13.6352 8.29691 13.3179 8.89085 12.852 9.35702C12.386 9.8232 11.7924 10.1407 11.1461 10.2693C10.4999 10.3979 9.82998 10.3319 9.2212 10.0796C8.61243 9.82731 8.0921 9.40007 7.72601 8.8519C7.35993 8.30374 7.16453 7.65927 7.16453 7C7.16453 6.11595 7.51554 5.2681 8.14035 4.64298C8.76515 4.01786 9.61256 3.66667 10.4962 3.66667ZM17.9923 21.1667C17.9923 21.3877 17.9046 21.5996 17.7484 21.7559C17.5922 21.9122 17.3803 22 17.1594 22C16.9385 22 16.7267 21.9122 16.5705 21.7559C16.4143 21.5996 16.3265 21.3877 16.3265 21.1667C16.3265 19.6196 15.7122 18.1358 14.6188 17.0419C13.5254 15.9479 12.0425 15.3333 10.4962 15.3333C8.94986 15.3333 7.46689 15.9479 6.37348 17.0419C5.28008 18.1358 4.66581 19.6196 4.66581 21.1667C4.66581 21.3877 4.57806 21.5996 4.42186 21.7559C4.26566 21.9122 4.05381 22 3.83291 22C3.61201 22 3.40015 21.9122 3.24395 21.7559C3.08775 21.5996 3 21.3877 3 21.1667C3 19.1775 3.78977 17.2699 5.19557 15.8634C6.60138 14.4568 8.50806 13.6667 10.4962 13.6667C12.4843 13.6667 14.3909 14.4568 15.7967 15.8634C17.2026 17.2699 17.9923 19.1775 17.9923 21.1667ZM22.7457 13.9108C22.8253 13.9877 22.8887 14.0797 22.9324 14.1813C22.976 14.283 22.999 14.3924 23 14.503C23.0009 14.6137 22.9799 14.7234 22.938 14.8258C22.8961 14.9282 22.8342 15.0213 22.756 15.0995C22.6778 15.1777 22.5848 15.2396 22.4825 15.2815C22.3801 15.3234 22.2704 15.3445 22.1599 15.3435C22.0493 15.3426 21.94 15.3196 21.8384 15.2759C21.7367 15.2322 21.6448 15.1688 21.568 15.0892L20.0746 13.595L18.5812 15.0892C18.4241 15.241 18.2137 15.325 17.9953 15.3231C17.7769 15.3212 17.568 15.2335 17.4136 15.079C17.2592 14.9245 17.1716 14.7155 17.1697 14.497C17.1678 14.2785 17.2517 14.068 17.4035 13.9108L18.8969 12.4167L17.4035 10.9225C17.2517 10.7653 17.1678 10.5548 17.1697 10.3363C17.1716 10.1178 17.2592 9.90883 17.4136 9.75432C17.568 9.59981 17.7769 9.51217 17.9953 9.51027C18.2137 9.50837 18.4241 9.59237 18.5812 9.74417L20.0746 11.2383L21.568 9.74417C21.7251 9.59237 21.9355 9.50837 22.1539 9.51027C22.3722 9.51217 22.5811 9.59981 22.7356 9.75432C22.89 9.90883 22.9776 10.1178 22.9795 10.3363C22.9814 10.5548 22.8974 10.7653 22.7457 10.9225L21.2523 12.4167L22.7457 13.9108Z" fill="#FF0000"/>
</g>
</svg>
