<svg width="24" height="25" viewBox="0 0 24 25" fill="none" xmlns="http://www.w3.org/2000/svg">
<path d="M0.798985 10.25C1.02535 10.25 1.21499 10.3219 1.36788 10.4656C1.52078 10.6094 1.59722 10.7875 1.59722 11V15C1.59722 15.2125 1.52066 15.3906 1.36754 15.5344C1.21439 15.6781 1.02464 15.75 0.798266 15.75C0.571879 15.75 0.382246 15.6781 0.229369 15.5344C0.0764563 15.3906 0 15.2125 0 15V11C0 10.7875 0.0765717 10.6094 0.229715 10.4656C0.382841 10.3219 0.572597 10.25 0.798985 10.25ZM3.87066 8.25001C4.09703 8.25001 4.28667 8.32188 4.43958 8.46561C4.59247 8.60936 4.66892 8.78749 4.66892 8.99999V17C4.66892 17.2125 4.59235 17.3906 4.43921 17.5344C4.28606 17.6781 4.09631 17.75 3.86994 17.75C3.64357 17.75 3.45393 17.6781 3.30101 17.5344C3.14812 17.3906 3.07167 17.2125 3.07167 17V8.99999C3.07167 8.78749 3.14824 8.60936 3.30139 8.46561C3.45453 8.32188 3.64429 8.25001 3.87066 8.25001ZM23.2017 10.25C23.4281 10.25 23.6178 10.3219 23.7707 10.4656C23.9235 10.6094 24 10.7875 24 11V15C24 15.2125 23.9234 15.3906 23.7703 15.5344C23.6172 15.6781 23.4274 15.75 23.201 15.75C22.9746 15.75 22.785 15.6781 22.6321 15.5344C22.4792 15.3906 22.4028 15.2125 22.4028 15V11C22.4028 10.7875 22.4793 10.6094 22.6325 10.4656C22.7856 10.3219 22.9754 10.25 23.2017 10.25ZM20.1301 8.25001C20.3564 8.25001 20.5461 8.32188 20.699 8.46561C20.8519 8.60936 20.9283 8.78749 20.9283 8.99999V17C20.9283 17.2125 20.8518 17.3906 20.6986 17.5344C20.5455 17.6781 20.3557 17.75 20.1293 17.75C19.903 17.75 19.7133 17.6781 19.5604 17.5344C19.4075 17.3906 19.3311 17.2125 19.3311 17V8.99999C19.3311 8.78749 19.4076 8.60936 19.5608 8.46561C19.7139 8.32188 19.9037 8.25001 20.1301 8.25001ZM8.06827 21.5C7.53892 21.5 7.08576 21.323 6.7088 20.969C6.33183 20.615 6.14334 20.1894 6.14334 19.6923V6.30771C6.14334 5.81059 6.33183 5.38503 6.7088 5.03103C7.08576 4.67701 7.53892 4.5 8.06827 4.5H15.9317C16.4611 4.5 16.9142 4.67701 17.2912 5.03103C17.6682 5.38503 17.8567 5.81059 17.8567 6.30771V19.6923C17.8567 20.1894 17.6682 20.615 17.2912 20.969C16.9142 21.323 16.4611 21.5 15.9317 21.5H8.06827ZM8.06827 20H15.9317C16.0273 20 16.1058 19.9712 16.1672 19.9135C16.2287 19.8558 16.2594 19.782 16.2594 19.6923V6.30771C16.2594 6.21796 16.2287 6.14423 16.1672 6.08653C16.1058 6.02883 16.0273 5.99998 15.9317 5.99998H8.06827C7.9727 5.99998 7.8942 6.02883 7.83276 6.08653C7.77131 6.14423 7.74059 6.21796 7.74059 6.30771V19.6923C7.74059 19.782 7.77131 19.8558 7.83276 19.9135C7.8942 19.9712 7.9727 20 8.06827 20Z" fill="#374957"/>
</svg>
