<svg width="24" height="24" viewBox="0 0 24 24" fill="none" xmlns="http://www.w3.org/2000/svg">
<g id="fi-rr-volume">
<g id="Union">
<path fill-rule="evenodd" clip-rule="evenodd" d="M7.70045 6.6684C9.05724 4.7566 11.0861 3.44767 13.3671 3.01258C13.4755 2.99233 13.5869 2.99657 13.6934 3.02498C13.8 3.05339 13.8991 3.10529 13.9836 3.17698C14.0682 3.24866 14.1362 3.33839 14.1828 3.43976C14.2293 3.54114 14.2533 3.65169 14.253 3.76355V20.2384C14.253 20.4404 14.174 20.6341 14.0333 20.7769C13.8926 20.9197 13.7018 21 13.5029 21C13.4573 21.0002 13.4118 20.9959 13.3671 20.987C11.0863 20.5516 9.05751 19.2427 7.70045 17.3312H6.75076C5.75649 17.3296 4.80339 16.9279 4.10033 16.2141C3.39727 15.5002 3.00159 14.5326 3 13.5231V10.4766C3.00159 9.46706 3.39727 8.49938 4.10033 7.78556C4.80339 7.07175 5.75649 6.67001 6.75076 6.6684H7.70045ZM8.72291 16.1545C9.67477 17.6292 11.0974 18.7264 12.752 19.2619V4.73767C11.0993 5.27458 9.67882 6.37231 8.72891 7.84664C8.66073 7.95259 8.56762 8.03961 8.45799 8.09985C8.34837 8.16009 8.22569 8.19165 8.10104 8.19166H6.75076C6.1539 8.19166 5.58149 8.43239 5.15945 8.86089C4.73741 9.28939 4.5003 9.87056 4.5003 10.4766V13.5231C4.5003 14.1291 4.73741 14.7102 5.15945 15.1387C5.58149 15.5672 6.1539 15.808 6.75076 15.808H8.09504C8.21982 15.8081 8.3426 15.8399 8.45223 15.9004C8.56187 15.9609 8.6549 16.0483 8.72291 16.1545Z" fill="white"/>
<path d="M18.6082 6.12803C18.5385 6.05727 18.4557 6.00113 18.3647 5.96284C18.2736 5.92454 18.176 5.90483 18.0775 5.90483C17.9789 5.90483 17.8813 5.92454 17.7902 5.96284C17.6992 6.00113 17.6164 6.05727 17.5467 6.12803C17.477 6.19879 17.4217 6.2828 17.384 6.37526C17.3463 6.46771 17.3269 6.56681 17.3269 6.66688C17.3269 6.76696 17.3463 6.86605 17.384 6.95851C17.4217 7.05096 17.477 7.13497 17.5467 7.20574C18.7972 8.47834 19.4995 10.2026 19.4995 12.0002C19.4995 13.7978 18.7972 15.522 17.5467 16.7947C17.406 16.9376 17.3269 17.1314 17.3269 17.3335C17.3269 17.5356 17.406 17.7294 17.5467 17.8724C17.6875 18.0153 17.8784 18.0956 18.0775 18.0956C18.2765 18.0956 18.4674 18.0153 18.6082 17.8724C20.1398 16.3137 21 14.2019 21 12.0002C21 9.79847 20.1398 7.68665 18.6082 6.12803Z" fill="white"/>
<path d="M16.578 8.41296C16.5083 8.34195 16.4255 8.28557 16.3343 8.24704C16.2432 8.20852 16.1454 8.18859 16.0467 8.18842C15.9479 8.18824 15.8501 8.20781 15.7588 8.24601C15.6675 8.28421 15.5846 8.3403 15.5146 8.41106C15.4447 8.48182 15.3891 8.56588 15.3512 8.65843C15.3132 8.75098 15.2936 8.85022 15.2935 8.95047C15.2933 9.05072 15.3126 9.15002 15.3502 9.24271C15.3878 9.3354 15.443 9.41966 15.5127 9.49067C16.1674 10.1564 16.5352 11.0587 16.5352 11.9995C16.5352 12.9402 16.1674 13.8425 15.5127 14.5083C15.443 14.5793 15.3878 14.6635 15.3502 14.7562C15.3126 14.8489 15.2933 14.9482 15.2935 15.0485C15.2936 15.1487 15.3132 15.248 15.3512 15.3405C15.3891 15.4331 15.4447 15.5171 15.5146 15.5879C15.6559 15.7308 15.8473 15.8109 16.0467 15.8105C16.1454 15.8104 16.2432 15.7904 16.3343 15.7519C16.4255 15.7134 16.5083 15.657 16.578 15.586C17.5136 14.6341 18.0392 13.3443 18.0392 11.9995C18.0392 10.6547 17.5136 9.3648 16.578 8.41296Z" fill="white"/>
</g>
</g>
</svg>
