<svg width="29" height="28" viewBox="0 0 29 28" fill="none" xmlns="http://www.w3.org/2000/svg">
<g id="Frame 134">
<g id="Group">
<path id="Vector" d="M22.7724 20.286L18.2746 18.6985H10.7244L6.22664 20.286C5.18197 20.6547 4.4834 21.6421 4.4834 22.7499V25.6934C4.4834 26.415 5.06833 26.9999 5.78984 26.9999H23.2092C23.9308 26.9999 24.5157 26.415 24.5157 25.6934V22.7499C24.5157 21.6421 23.8171 20.6547 22.7724 20.286Z" fill="#5A4650"/>
<path id="Vector_2" d="M20.7806 17.752C20.121 17.2559 19.7257 16.483 19.7257 15.6577V13.9355C19.7257 9.14513 17.1128 3.04834 14.4999 3.04834C11.887 3.04834 9.27408 9.14513 9.27408 13.9355V15.6577C9.27408 16.483 8.87879 17.2558 8.21918 17.752C7.5079 18.2869 7.09668 18.9192 7.09668 19.5968C7.09668 21.5209 8.96812 25.2581 14.4999 25.2581C20.0317 25.2581 21.9031 21.521 21.9031 19.5968C21.9031 18.9192 21.4919 18.2869 20.7806 17.752Z" fill="#DFDFDF"/>
<path id="Vector_3" d="M19.0569 22.4867C20.1714 21.4244 21.0058 20.0953 21.5559 18.5433C21.3873 18.2931 21.1554 18.0566 20.8774 17.8344C20.3788 19.4416 19.5671 20.7973 18.456 21.8564C16.4651 23.7542 13.5908 24.6232 10.323 24.328C11.0815 24.7273 12.0029 25.0189 13.0871 25.1599C15.429 24.8846 17.4893 23.981 19.0569 22.4867ZM14.4992 18.726C11.3776 18.726 8.83789 16.577 8.83789 13.9356C8.83789 11.2942 11.3776 9.14526 14.4992 9.14526C17.6208 9.14526 20.1605 11.2942 20.1605 13.9356C20.1605 16.577 17.6208 18.726 14.4992 18.726Z" fill="#C6C6C6"/>
<path id="Vector_4" d="M14.4992 17.1396C11.3725 17.1396 8.83789 13.8591 8.83789 9.81217V3.04834H20.1605V9.81217C20.1605 13.8591 17.6259 17.1396 14.4992 17.1396Z" fill="#FDC8A8"/>
<g id="1">
<path id="Vector_5" d="M16.0376 13.8485C16.0327 13.8214 16.0224 13.7956 16.0075 13.7725C15.9925 13.7494 15.9732 13.7295 15.9506 13.7139C15.9279 13.6983 15.9025 13.6873 15.8756 13.6815C15.8487 13.6758 15.8209 13.6754 15.7939 13.6803H15.7898C15.591 13.7182 15.3872 13.7218 15.1873 13.6908C15.1373 13.6834 15.0887 13.6735 15.0298 13.6619C14.9436 13.6415 14.8543 13.637 14.7665 13.6487C14.6742 13.6647 14.5864 13.7003 14.5091 13.7532C14.5057 13.7547 14.502 13.7554 14.4982 13.7554C14.4945 13.7554 14.4908 13.7547 14.4874 13.7532C14.4101 13.7003 14.3223 13.6646 14.23 13.6487C14.1422 13.637 14.0529 13.6415 13.9667 13.6619C13.9083 13.6735 13.8592 13.6834 13.8092 13.6908C13.6093 13.7218 13.4055 13.7182 13.2067 13.6803H13.2024C13.152 13.6713 13.1001 13.6811 13.0564 13.7078C13.0127 13.7344 12.9803 13.7762 12.9653 13.8251C12.9503 13.874 12.9537 13.9268 12.9749 13.9734C12.9961 14.02 13.0336 14.0572 13.0804 14.078C13.3233 14.1853 13.5869 14.2376 13.8524 14.2312C13.9183 14.2298 13.9847 14.2244 14.0409 14.2205C14.093 14.216 14.0992 14.2216 14.1803 14.2689C14.2696 14.3231 14.3718 14.3525 14.4763 14.3542H14.5198C14.6243 14.3526 14.7265 14.3231 14.8158 14.2689C14.8963 14.2216 14.9031 14.216 14.9554 14.2205C15.0114 14.2244 15.078 14.2298 15.1437 14.2312C15.4092 14.2377 15.6728 14.1854 15.9157 14.078C15.9589 14.059 15.9944 14.026 16.0165 13.9844C16.0386 13.9427 16.0461 13.8948 16.0376 13.8485Z" fill="#FF6C73"/>
<path id="Vector_6" d="M15.1791 12.4951C14.996 12.6674 14.7562 12.767 14.5049 12.7752C14.2541 12.7666 14.015 12.6671 13.8322 12.4951C13.7838 12.4465 13.7556 12.3815 13.7531 12.313C13.7506 12.2445 13.7741 12.1776 13.8188 12.1256C13.8635 12.0737 13.9262 12.0405 13.9943 12.0328C14.0624 12.025 14.1309 12.0433 14.1861 12.0838C14.2254 12.1303 14.2744 12.1677 14.3296 12.1933C14.3848 12.2189 14.4449 12.2322 14.5058 12.2322C14.5666 12.2322 14.6267 12.2189 14.682 12.1933C14.7372 12.1677 14.7861 12.1303 14.8254 12.0838C14.8518 12.0571 14.8835 12.0362 14.9184 12.0224C14.9533 12.0085 14.9907 12.002 15.0283 12.0033C15.0658 12.0047 15.1027 12.0137 15.1366 12.03C15.1704 12.0463 15.2006 12.0694 15.2251 12.0978C15.2496 12.1263 15.2679 12.1596 15.2789 12.1955C15.2899 12.2314 15.2934 12.2692 15.2891 12.3065C15.2848 12.3439 15.2728 12.3799 15.2538 12.4123C15.2349 12.4448 15.2095 12.473 15.1791 12.4951Z" fill="#BA876B"/>
<path id="Vector_7" d="M15.8945 8.45836C16.1328 8.34963 16.3878 8.28232 16.6487 8.25933C16.8991 8.23162 17.1519 8.23528 17.4014 8.27022C17.6483 8.30497 17.8928 8.35482 18.1336 8.41949C18.3803 8.48027 18.6182 8.57258 18.8413 8.69413C18.8692 8.70997 18.8903 8.73556 18.9005 8.76598C18.9107 8.79641 18.9093 8.82954 18.8966 8.859C18.8839 8.88847 18.8607 8.9122 18.8316 8.92564C18.8024 8.93908 18.7693 8.94129 18.7387 8.93184L18.7299 8.92873C18.512 8.86705 18.2885 8.82752 18.0627 8.81075C17.8329 8.79175 17.6021 8.78642 17.3717 8.79481L16.6914 8.81424C16.4733 8.82329 16.2559 8.84516 16.0403 8.87975L16.0288 8.88169C15.9755 8.89084 15.9206 8.8804 15.8744 8.85229C15.8281 8.82418 15.7936 8.78029 15.7772 8.72872C15.7608 8.67715 15.7635 8.62138 15.785 8.5717C15.8064 8.52201 15.8457 8.48176 15.8945 8.45836Z" fill="#2C2023"/>
<path id="Vector_8" d="M11.8464 10.9956H11.8467C12.2167 10.9956 12.5166 10.6957 12.5166 10.3257V9.96973C12.5166 9.59972 12.2167 9.29978 11.8467 9.29978H11.8464C11.4764 9.29978 11.1764 9.59972 11.1764 9.96973V10.3257C11.1764 10.6957 11.4764 10.9956 11.8464 10.9956Z" fill="black"/>
<path id="Vector_9" d="M13.1045 8.45836C12.8662 8.34963 12.6111 8.28232 12.3502 8.25933C12.0999 8.23162 11.847 8.23528 11.5976 8.27022C11.3507 8.30499 11.1061 8.35484 10.8653 8.41949C10.6186 8.48034 10.3807 8.57264 10.1576 8.69413C10.13 8.71018 10.1093 8.73579 10.0993 8.7661C10.0893 8.79641 10.0908 8.82933 10.1035 8.85861C10.1162 8.8879 10.1391 8.91152 10.168 8.92502C10.1969 8.93851 10.2298 8.94094 10.2604 8.93184L10.2691 8.92873C10.487 8.86702 10.7106 8.82749 10.9364 8.81075C11.1661 8.79175 11.3968 8.78642 11.6272 8.79481L12.3074 8.81425C12.5256 8.8233 12.743 8.84517 12.9586 8.87975L12.97 8.88169C13.0234 8.89085 13.0782 8.8804 13.1245 8.85229C13.1707 8.82418 13.2052 8.78029 13.2217 8.72872C13.2381 8.67715 13.2353 8.62138 13.2139 8.5717C13.1924 8.52201 13.1533 8.48176 13.1045 8.45836Z" fill="#2C2023"/>
<path id="Vector_10" d="M17.1268 9.2998H17.1265C16.78 9.2998 16.499 9.58074 16.499 9.92729V10.2607C16.499 10.6072 16.78 10.8881 17.1265 10.8881H17.1268C17.4733 10.8881 17.7542 10.6072 17.7542 10.2607V9.92729C17.7542 9.58074 17.4733 9.2998 17.1268 9.2998Z" fill="black"/>
</g>
<path id="Vector_11" d="M22.2786 13.5149L21.8971 7.15676C21.6704 3.37865 18.7154 0.230567 14.9368 0.0126152C10.8295 -0.224268 7.35796 2.90389 7.11491 6.95521L6.7213 13.5148C6.46358 17.8102 9.72959 21.453 13.9551 21.7456C11.3251 21.4731 9.27412 19.2505 9.27412 16.5484V13.9355C9.27412 9.14517 11.887 3.04838 14.4999 3.04838C17.1129 3.04838 19.7258 9.14517 19.7258 13.9355V18.1559C19.7258 18.7411 20.4806 18.9979 20.8234 18.5237C21.8343 17.1254 22.3907 15.383 22.2786 13.5149Z" fill="#DFDFDF"/>
</g>
</g>
</svg>
