<svg width="22" height="20" viewBox="0 0 22 20" fill="none" xmlns="http://www.w3.org/2000/svg">
<path d="M21.4221 1.9751C19.6043 2.97509 17.8185 4.03824 16.1526 5.29086C13.3133 7.38558 10.6997 9.78029 8.30048 12.375C8.71956 12.975 9.17532 13.5434 9.66251 14.0855C9.81443 14.275 10.1497 14.6276 10.333 14.7855C11.2236 15.7223 12.287 16.4592 13.361 17.1644C14.1206 17.5908 14.3772 18.5802 13.9005 19.3171C13.6859 19.645 13.3531 19.8764 12.972 19.9628C12.591 20.0492 12.1915 19.9837 11.8575 19.7802C10.3802 18.9013 8.98673 17.8697 7.76142 16.6539C7.19501 16.071 6.65825 15.4597 6.15318 14.8224C5.776 15.2802 5.40406 15.7381 5.03736 16.2013C4.39534 17.0144 3.78204 17.85 3.19861 18.7065C1.80514 20.617 -1.00746 18.596 0.369769 16.6539C1.61132 15.075 2.92096 13.5539 4.30343 12.1013C3.05141 9.9645 2.13465 7.62768 1.60032 5.19612C1.22314 2.90667 4.53393 2.32246 4.94778 4.61192C5.30924 6.36453 5.9012 8.08557 6.7027 9.70661C9.20151 7.34347 11.8936 5.19612 14.7749 3.29088C16.5926 2.06984 18.5409 1.04879 20.5158 0.101432C21.0292 -0.145934 21.6526 0.0751162 21.8988 0.590901C22.145 1.10669 21.925 1.72247 21.4221 1.9751Z" fill="#F45863"/>
</svg>
