<svg width="30" height="30" viewBox="0 0 30 30" fill="none" xmlns="http://www.w3.org/2000/svg">
<g id="Frame 146">
<g id="Group">
<g id="Layer 31">
<path id="Subtract" fill-rule="evenodd" clip-rule="evenodd" d="M16.4816 4.00341C15.5604 5.70217 15.0793 7.60463 15.0824 9.5371C15.0632 12.5426 16.229 15.4347 18.3272 17.5866C20.4254 19.7386 23.2871 20.9771 26.2921 21.0338C25.0916 23.2695 23.175 25.0371 20.8497 26.053C18.5244 27.0689 15.9252 27.2743 13.4692 26.6361C11.8788 26.2228 10.4081 25.4714 9.15177 24.4447H12.2377C12.9583 24.4423 13.6537 24.179 14.1952 23.7035C14.7366 23.228 15.0876 22.5725 15.1831 21.8583C15.2786 21.144 15.1121 20.4193 14.7146 19.8183C14.317 19.2173 13.7153 18.7806 13.0206 18.589C12.8468 17.6039 12.3315 16.7116 11.5652 16.0687C10.7989 15.4258 9.83055 15.0734 8.83027 15.0734C7.83 15.0734 6.86169 15.4258 6.09539 16.0687C5.69174 16.4073 5.35773 16.8152 5.10659 17.2694C5.02379 16.6864 4.98621 16.0949 4.99553 15.5001C4.97547 12.4704 6.15971 9.55673 8.28778 7.40007C10.4158 5.24341 13.3134 4.02038 16.3432 4C16.3664 4 16.3894 4.00085 16.4124 4.0017C16.4354 4.00256 16.4584 4.00341 16.4816 4.00341Z" fill="#FFBC42"/>
<path id="Vector" d="M12.1594 18.914C12.0085 18.0585 11.5609 17.2835 10.8955 16.7252C10.23 16.1669 9.38905 15.8608 8.52037 15.8608C7.65168 15.8608 6.81076 16.1669 6.14527 16.7252C5.47979 17.2835 5.03227 18.0585 4.88131 18.914C4.27803 19.0803 3.75542 19.4596 3.41016 19.9816C3.06491 20.5035 2.92038 21.1329 3.00331 21.7532C3.08624 22.3734 3.39101 22.9427 3.86125 23.3556C4.33149 23.7686 4.93538 23.9972 5.56118 23.9993H11.4795C12.1054 23.9972 12.7092 23.7686 13.1795 23.3556C13.6497 22.9427 13.9545 22.3734 14.0374 21.7532C14.1203 21.1329 13.9758 20.5035 13.6306 19.9816C13.2853 19.4596 12.7627 19.0803 12.1594 18.914Z" fill="#FFBC42"/>
</g>
</g>
</g>
</svg>
