<svg width="41" height="40" viewBox="0 0 41 40" fill="none" xmlns="http://www.w3.org/2000/svg">
<g id="Frame 43">
<g id="Group">
<g id="Union">
<path d="M19.9122 4.3256C19.9122 5.29934 19.1228 6.08871 18.1491 6.08871C17.1754 6.08871 16.386 5.29934 16.386 4.3256C16.386 3.35187 17.1754 2.5625 18.1491 2.5625C19.1228 2.5625 19.9122 3.35187 19.9122 4.3256Z" fill="#1E2125"/>
<path d="M12.9187 5.36583C12.6659 4.42551 13.2243 3.46168 14.1646 3.20897C15.1049 2.95626 16.0687 3.51457 16.3215 4.4549C16.5742 5.39522 16.0158 6.35905 15.0755 6.61176C14.1352 6.86447 13.1714 6.30616 12.9187 5.36583Z" fill="#1E2125"/>
<path d="M9.56876 6.97026C9.08097 6.12397 9.37482 5.04847 10.2152 4.56068C11.0615 4.07289 12.137 4.36086 12.6248 5.20715C13.1126 6.05344 12.8188 7.12894 11.9783 7.61673C11.132 8.10452 10.0566 7.81655 9.56876 6.97026Z" fill="#1E2125"/>
<path d="M9.4042 7.19358C10.0918 7.8812 10.0918 8.99783 9.4042 9.68544C8.71659 10.3731 7.59996 10.3731 6.91235 9.68544C6.22474 8.99783 6.22474 7.8812 6.91235 7.19358C7.59996 6.50597 8.71659 6.50597 9.4042 7.19358Z" fill="#1E2125"/>
<path d="M7.3355 12.2596C6.8477 13.1059 5.76633 13.3938 4.92592 12.906C4.7251 12.7904 4.54906 12.6363 4.40785 12.4526C4.26665 12.2689 4.16306 12.0591 4.10302 11.8353C4.04297 11.6115 4.02765 11.3781 4.05792 11.1483C4.08819 10.9186 4.16347 10.6971 4.27945 10.4965C4.76724 9.65018 5.84273 9.3622 6.68902 9.85C7.53531 10.3378 7.82329 11.4192 7.3355 12.2596Z" fill="#1E2125"/>
<path d="M6.33053 15.3626C6.07781 16.303 5.11398 16.8613 4.17366 16.6086C3.23334 16.3559 2.67502 15.392 2.92773 14.4517C3.18044 13.5114 4.14428 12.9531 5.0846 13.2058C6.02492 13.4585 6.58324 14.4223 6.33053 15.3626Z" fill="#1E2125"/>
<path d="M4.04435 20.1936C5.01809 20.1936 5.80746 19.4042 5.80746 18.4304C5.80746 17.4567 5.01809 16.6673 4.04435 16.6673C3.07062 16.6673 2.28125 17.4567 2.28125 18.4304C2.28125 19.4042 3.07062 20.1936 4.04435 20.1936Z" fill="#1E2125"/>
<path d="M6.33638 21.5041C6.5891 22.4444 6.03078 23.4083 5.09046 23.661C4.15013 23.9137 3.1863 23.3554 2.93359 22.4151C2.68088 21.4747 3.2392 20.5109 4.17952 20.2582C5.11984 20.0055 6.08367 20.5638 6.33638 21.5041Z" fill="#1E2125"/>
<path d="M4.9259 23.9548C5.77219 23.467 6.84769 23.7609 7.33548 24.6013C7.82327 25.4476 7.5353 26.5231 6.68901 27.0109C5.84272 27.4987 4.76722 27.2048 4.27943 26.3644C3.79164 25.5181 4.07961 24.4426 4.9259 23.9548Z" fill="#1E2125"/>
<path d="M6.91233 27.1754C7.59994 26.4878 8.71658 26.4878 9.40419 27.1754C10.0918 27.8631 10.0918 28.9797 9.40419 29.6673C8.71658 30.3549 7.59994 30.3549 6.91233 29.6673C6.22472 28.9797 6.22472 27.8631 6.91233 27.1754Z" fill="#1E2125"/>
<path d="M9.56874 29.8906C10.0565 29.0443 11.1379 28.7564 11.9783 29.2442C12.8246 29.7319 13.1126 30.8074 12.6248 31.6537C12.137 32.5 11.0556 32.788 10.2152 32.3002C9.36892 31.8124 9.08095 30.7369 9.56874 29.8906Z" fill="#1E2125"/>
<path d="M12.9245 31.4892C13.1772 30.5488 14.1411 29.9905 15.0814 30.2432C16.0217 30.496 16.58 31.4598 16.3273 32.4001C16.0746 33.3404 15.1108 33.8987 14.1704 33.646C13.2301 33.3933 12.6718 32.4295 12.9245 31.4892Z" fill="#1E2125"/>
<path d="M18.1491 34.2984C19.1228 34.2984 19.9122 33.509 19.9122 32.5353C19.9122 31.5616 19.1228 30.7722 18.1491 30.7722C17.1754 30.7722 16.386 31.5616 16.386 32.5353C16.386 33.509 17.1754 34.2984 18.1491 34.2984Z" fill="#1E2125"/>
<path d="M19.9709 32.4001C19.7182 31.4598 20.2766 30.496 21.2169 30.2432C22.1572 29.9905 23.121 30.5488 23.3737 31.4892C23.6264 32.4295 23.0681 33.3933 22.1278 33.646C21.1875 33.8987 20.2237 33.3404 19.9709 32.4001Z" fill="#1E2125"/>
<path d="M23.6735 31.6537C23.1857 30.8074 23.4795 29.7319 24.3199 29.2442C25.1662 28.7564 26.2417 29.0443 26.7295 29.8906C27.2173 30.7369 26.9235 31.8124 26.083 32.3002C25.2368 32.788 24.1613 32.5 23.6735 31.6537Z" fill="#1E2125"/>
<path d="M28.7747 26.7758C28.8452 26.9756 28.8864 27.1813 28.8864 27.3929C28.8864 28.3744 28.093 29.1677 27.1115 29.1677C26.8999 29.1677 26.6943 29.1266 26.4944 29.0561C26.2535 28.4272 26.3886 27.6809 26.8941 27.1754C27.3995 26.67 28.1459 26.5348 28.7747 26.7758Z" fill="#1E2125"/>
<path d="M29.6093 27.0109C28.763 26.5231 28.475 25.4417 28.9628 24.6013C29.4506 23.755 30.5261 23.467 31.3724 23.9548C32.2186 24.4426 32.5066 25.524 32.0188 26.3644C31.531 27.2107 30.4555 27.4987 29.6093 27.0109Z" fill="#1E2125"/>
<path d="M32.1246 20.2582C33.0649 20.5109 33.6233 21.4747 33.3705 22.4151C33.1178 23.3554 32.154 23.9137 31.2137 23.661C30.2734 23.4083 29.715 22.4444 29.9678 21.5041C30.2205 20.5638 31.1843 20.0055 32.1246 20.2582Z" fill="#1E2125"/>
<path d="M32.2541 20.1936C33.2278 20.1936 34.0172 19.4042 34.0172 18.4304C34.0172 17.4567 33.2278 16.6673 32.2541 16.6673C31.2803 16.6673 30.491 17.4567 30.491 18.4304C30.491 19.4042 31.2803 20.1936 32.2541 20.1936Z" fill="#1E2125"/>
<path d="M29.9619 15.3568C29.7091 14.4164 30.2675 13.4526 31.2078 13.1999C32.1481 12.9472 33.1119 13.5055 33.3646 14.4458C33.6174 15.3861 33.059 16.35 32.1187 16.6027C31.1784 16.8554 30.2146 16.2971 29.9619 15.3568Z" fill="#1E2125"/>
<path d="M31.3723 12.906C30.526 13.3938 29.4506 13.1 28.9628 12.2596C28.475 11.4133 28.7629 10.3378 29.6092 9.85C30.4555 9.3622 31.531 9.65605 32.0188 10.4965C32.5066 11.3428 32.2186 12.4183 31.3723 12.906Z" fill="#1E2125"/>
<path d="M29.3859 9.68544C28.6983 10.3731 27.5817 10.3731 26.8941 9.68544C26.5639 9.35486 26.3784 8.90674 26.3784 8.43951C26.3784 7.97229 26.5639 7.52417 26.8941 7.19358C27.5817 6.50597 28.6983 6.50597 29.3859 7.19358C30.0735 7.8812 30.0735 8.99783 29.3859 9.68544Z" fill="#1E2125"/>
<path d="M26.7295 6.97026C26.2417 7.81655 25.1603 8.10452 24.3199 7.61673C23.4736 7.12894 23.1857 6.05344 23.6734 5.20715C24.1612 4.36086 25.2367 4.07289 26.083 4.56068C26.9293 5.04847 27.2173 6.12397 26.7295 6.97026Z" fill="#1E2125"/>
<path d="M19.9768 4.4549C20.2295 3.51457 21.1933 2.95626 22.1337 3.20897C23.074 3.46168 23.6323 4.42551 23.3796 5.36583C23.1269 6.30616 22.1631 6.86447 21.2227 6.61176C20.2824 6.35905 19.7241 5.39522 19.9768 4.4549Z" fill="#1E2125"/>
</g>
<g id="Vector">
<path d="M32.6534 31.3481C32.9767 31.3481 33.2999 31.448 33.582 31.6479L34.0757 32.0064L31.7249 34.3572L31.3664 33.8635C31.2067 33.6415 31.1071 33.382 31.0772 33.1101C31.0473 32.8383 31.0882 32.5633 31.1959 32.312L29.8677 30.9838C29.2506 30.9955 28.3985 30.6664 27.7344 30.2785C28.2881 30.1566 28.7954 29.8787 29.1963 29.4778C29.5972 29.0769 29.8751 28.5696 29.997 28.0159C30.3849 28.68 30.714 29.5321 30.7023 30.1492L32.0305 31.4774C32.2303 31.3952 32.4419 31.3481 32.6534 31.3481Z" fill="#0A9D4E"/>
<path d="M32.3361 35.415L35.1335 32.6176L38.7185 34.2984L38.3365 35.2975L37.1729 35.797L36.6733 36.9607L35.5097 37.4602L35.0101 38.6239L34.0169 39L32.3361 35.415Z" fill="#0A9D4E"/>
</g>
</g>
</g>
</svg>
